<svg width="1920" height="1480" viewBox="0 0 1920 1480" fill="none" xmlns="http://www.w3.org/2000/svg">
<g clip-path="url(#clip0_438_140)">
<rect width="1920" height="1480" fill="#8000FF"/>
<mask id="path-1-outside-1_438_140" maskUnits="userSpaceOnUse" x="-11" y="464" width="731" height="498" fill="black">
<rect fill="white" x="-11" y="464" width="731" height="498"/>
<path d="M41.9868 466.645V854.109H105.16V960H-8.55207V466.645H41.9868ZM112.592 960L145.683 466.645H234.727L267.818 960H218.483L213.669 878.175H171.554L166.74 960H112.592ZM206.45 772.284L193.815 586.975H190.807L178.774 772.284H206.45ZM439.637 466.645V960H378.87L333.144 676.02H330.136V960H282.004V466.645H342.771L388.497 765.666H391.505V466.645H439.637ZM525.26 854.109H584.823V960H454.866L516.235 572.536H457.273V466.645H586.628L525.26 854.109ZM716.839 466.645V570.129H653.064V656.767H712.628V757.845H653.064V856.516H717.441V960H602.525V466.645H716.839Z"/>
</mask>
<path d="M41.9868 466.645H43.9868V464.645H41.9868V466.645ZM41.9868 854.109H39.9868V856.109H41.9868V854.109ZM105.16 854.109H107.16V852.109H105.16V854.109ZM105.16 960V962H107.16V960H105.16ZM-8.55207 960H-10.5521V962H-8.55207V960ZM-8.55207 466.645V464.645H-10.5521V466.645H-8.55207ZM39.9868 466.645V854.109H43.9868V466.645H39.9868ZM41.9868 856.109H105.16V852.109H41.9868V856.109ZM103.16 854.109V960H107.16V854.109H103.16ZM105.16 958H-8.55207V962H105.16V958ZM-6.55207 960V466.645H-10.5521V960H-6.55207ZM-8.55207 468.645H41.9868V464.645H-8.55207V468.645ZM112.592 960L110.596 959.866L110.453 962H112.592V960ZM145.683 466.645V464.645H143.812L143.687 466.511L145.683 466.645ZM234.727 466.645L236.723 466.511L236.598 464.645H234.727V466.645ZM267.818 960V962H269.957L269.814 959.866L267.818 960ZM218.483 960L216.486 960.117L216.597 962H218.483V960ZM213.669 878.175L215.666 878.058L215.555 876.175H213.669V878.175ZM171.554 878.175V876.175H169.668L169.557 878.058L171.554 878.175ZM166.74 960V962H168.626L168.737 960.117L166.74 960ZM206.45 772.284V774.284H208.591L208.445 772.148L206.45 772.284ZM193.815 586.975L195.81 586.839L195.683 584.975H193.815V586.975ZM190.807 586.975V584.975H188.932L188.811 586.846L190.807 586.975ZM178.774 772.284L176.778 772.155L176.639 774.284H178.774V772.284ZM114.587 960.134L147.678 466.778L143.687 466.511L110.596 959.866L114.587 960.134ZM145.683 468.645H234.727V464.645H145.683V468.645ZM232.732 466.778L265.823 960.134L269.814 959.866L236.723 466.511L232.732 466.778ZM267.818 958H218.483V962H267.818V958ZM220.479 959.883L215.666 878.058L211.673 878.293L216.486 960.117L220.479 959.883ZM213.669 876.175H171.554V880.175H213.669V876.175ZM169.557 878.058L164.744 959.883L168.737 960.117L173.55 878.293L169.557 878.058ZM166.74 958H112.592V962H166.74V958ZM208.445 772.148L195.81 586.839L191.819 587.111L204.454 772.42L208.445 772.148ZM193.815 584.975H190.807V588.975H193.815V584.975ZM188.811 586.846L176.778 772.155L180.769 772.414L192.802 587.105L188.811 586.846ZM178.774 774.284H206.45V770.284H178.774V774.284ZM439.637 466.645H441.637V464.645H439.637V466.645ZM439.637 960V962H441.637V960H439.637ZM378.87 960L376.896 960.318L377.166 962H378.87V960ZM333.144 676.02L335.119 675.702L334.848 674.02H333.144V676.02ZM330.136 676.02V674.02H328.136V676.02H330.136ZM330.136 960V962H332.136V960H330.136ZM282.004 960H280.004V962H282.004V960ZM282.004 466.645V464.645H280.004V466.645H282.004ZM342.771 466.645L344.748 466.342L344.488 464.645H342.771V466.645ZM388.497 765.666L386.52 765.968L386.779 767.666H388.497V765.666ZM391.505 765.666V767.666H393.505V765.666H391.505ZM391.505 466.645V464.645H389.505V466.645H391.505ZM437.637 466.645V960H441.637V466.645H437.637ZM439.637 958H378.87V962H439.637V958ZM380.845 959.682L335.119 675.702L331.17 676.338L376.896 960.318L380.845 959.682ZM333.144 674.02H330.136V678.02H333.144V674.02ZM328.136 676.02V960H332.136V676.02H328.136ZM330.136 958H282.004V962H330.136V958ZM284.004 960V466.645H280.004V960H284.004ZM282.004 468.645H342.771V464.645H282.004V468.645ZM340.794 466.947L386.52 765.968L390.474 765.364L344.748 466.342L340.794 466.947ZM388.497 767.666H391.505V763.666H388.497V767.666ZM393.505 765.666V466.645H389.505V765.666H393.505ZM391.505 468.645H439.637V464.645H391.505V468.645ZM525.26 854.109L523.284 853.796L522.918 856.109H525.26V854.109ZM584.823 854.109H586.823V852.109H584.823V854.109ZM584.823 960V962H586.823V960H584.823ZM454.866 960L452.891 959.687L452.525 962H454.866V960ZM516.235 572.536L518.21 572.848L518.577 570.536H516.235V572.536ZM457.273 572.536H455.273V574.536H457.273V572.536ZM457.273 466.645V464.645H455.273V466.645H457.273ZM586.628 466.645L588.604 466.957L588.97 464.645H586.628V466.645ZM525.26 856.109H584.823V852.109H525.26V856.109ZM582.823 854.109V960H586.823V854.109H582.823ZM584.823 958H454.866V962H584.823V958ZM456.842 960.313L518.21 572.848L514.26 572.223L452.891 959.687L456.842 960.313ZM516.235 570.536H457.273V574.536H516.235V570.536ZM459.273 572.536V466.645H455.273V572.536H459.273ZM457.273 468.645H586.628V464.645H457.273V468.645ZM584.653 466.332L523.284 853.796L527.235 854.422L588.604 466.957L584.653 466.332ZM716.839 466.645H718.839V464.645H716.839V466.645ZM716.839 570.129V572.129H718.839V570.129H716.839ZM653.064 570.129V568.129H651.064V570.129H653.064ZM653.064 656.767H651.064V658.767H653.064V656.767ZM712.628 656.767H714.628V654.767H712.628V656.767ZM712.628 757.845V759.845H714.628V757.845H712.628ZM653.064 757.845V755.845H651.064V757.845H653.064ZM653.064 856.516H651.064V858.516H653.064V856.516ZM717.441 856.516H719.441V854.516H717.441V856.516ZM717.441 960V962H719.441V960H717.441ZM602.525 960H600.525V962H602.525V960ZM602.525 466.645V464.645H600.525V466.645H602.525ZM714.839 466.645V570.129H718.839V466.645H714.839ZM716.839 568.129H653.064V572.129H716.839V568.129ZM651.064 570.129V656.767H655.064V570.129H651.064ZM653.064 658.767H712.628V654.767H653.064V658.767ZM710.628 656.767V757.845H714.628V656.767H710.628ZM712.628 755.845H653.064V759.845H712.628V755.845ZM651.064 757.845V856.516H655.064V757.845H651.064ZM653.064 858.516H717.441V854.516H653.064V858.516ZM715.441 856.516V960H719.441V856.516H715.441ZM717.441 958H602.525V962H717.441V958ZM604.525 960V466.645H600.525V960H604.525ZM602.525 468.645H716.839V464.645H602.525V468.645Z" fill="black" mask="url(#path-1-outside-1_438_140)"/>
<mask id="path-3-outside-2_438_140" maskUnits="userSpaceOnUse" x="5" y="999" width="426" height="498" fill="black">
<rect fill="white" x="5" y="999" width="426" height="498"/>
<path d="M34.9124 1001.64V1397.53H68.0033V1495H7.83802V1001.64H34.9124ZM74.41 1495L95.4678 1001.64H143.6L164.056 1495H137.584L133.372 1400.54H106.298L102.688 1495H74.41ZM128.559 1303.07L120.136 1121.98H118.932L111.111 1303.07H128.559ZM274.897 1001.64V1495H232.781L202.097 1185.15H200.893V1495H174.421V1001.64H215.935L246.619 1334.96H248.424V1001.64H274.897ZM324.166 1397.53H359.062V1495H285.059L319.353 1099.11H285.661V1001.64H358.461L324.166 1397.53ZM427.552 1001.64V1098.51H396.868V1194.17H427.552V1290.44H396.868V1398.13H428.154V1495H369.793V1001.64H427.552Z"/>
</mask>
<path d="M34.9124 1001.64H36.9124V999.645H34.9124V1001.64ZM34.9124 1397.53H32.9124V1399.53H34.9124V1397.53ZM68.0033 1397.53H70.0033V1395.53H68.0033V1397.53ZM68.0033 1495V1497H70.0033V1495H68.0033ZM7.83802 1495H5.83802V1497H7.83802V1495ZM7.83802 1001.64V999.645H5.83802V1001.64H7.83802ZM32.9124 1001.64V1397.53H36.9124V1001.64H32.9124ZM34.9124 1399.53H68.0033V1395.53H34.9124V1399.53ZM66.0033 1397.53V1495H70.0033V1397.53H66.0033ZM68.0033 1493H7.83802V1497H68.0033V1493ZM9.83802 1495V1001.64H5.83802V1495H9.83802ZM7.83802 1003.64H34.9124V999.645H7.83802V1003.64ZM74.41 1495L72.4118 1494.91L72.3228 1497H74.41V1495ZM95.4678 1001.64V999.645H93.5514L93.4696 1001.56L95.4678 1001.64ZM143.6 1001.64L145.598 1001.56L145.519 999.645H143.6V1001.64ZM164.056 1495V1497H166.141L166.055 1494.92L164.056 1495ZM137.584 1495L135.586 1495.09L135.671 1497H137.584V1495ZM133.372 1400.54L135.37 1400.45L135.285 1398.54H133.372V1400.54ZM106.298 1400.54V1398.54H104.373L104.299 1400.46L106.298 1400.54ZM102.688 1495V1497H104.613L104.686 1495.08L102.688 1495ZM128.559 1303.07V1305.07H130.654L130.557 1302.98L128.559 1303.07ZM120.136 1121.98L122.133 1121.88L122.045 1119.98H120.136V1121.98ZM118.932 1121.98V1119.98H117.017L116.934 1121.89L118.932 1121.98ZM111.111 1303.07L109.113 1302.99L109.023 1305.07H111.111V1303.07ZM76.4081 1495.09L97.466 1001.73L93.4696 1001.56L72.4118 1494.91L76.4081 1495.09ZM95.4678 1003.64H143.6V999.645H95.4678V1003.64ZM141.602 1001.73L162.058 1495.08L166.055 1494.92L145.598 1001.56L141.602 1001.73ZM164.056 1493H137.584V1497H164.056V1493ZM139.582 1494.91L135.37 1400.45L131.374 1400.63L135.586 1495.09L139.582 1494.91ZM133.372 1398.54H106.298V1402.54H133.372V1398.54ZM104.299 1400.46L100.689 1494.92L104.686 1495.08L108.296 1400.62L104.299 1400.46ZM102.688 1493H74.41V1497H102.688V1493ZM130.557 1302.98L122.133 1121.88L118.138 1122.07L126.561 1303.17L130.557 1302.98ZM120.136 1119.98H118.932V1123.98H120.136V1119.98ZM116.934 1121.89L109.113 1302.99L113.109 1303.16L120.93 1122.06L116.934 1121.89ZM111.111 1305.07H128.559V1301.07H111.111V1305.07ZM274.897 1001.64H276.897V999.645H274.897V1001.64ZM274.897 1495V1497H276.897V1495H274.897ZM232.781 1495L230.791 1495.2L230.969 1497H232.781V1495ZM202.097 1185.15L204.087 1184.95L203.908 1183.15H202.097V1185.15ZM200.893 1185.15V1183.15H198.893V1185.15H200.893ZM200.893 1495V1497H202.893V1495H200.893ZM174.421 1495H172.421V1497H174.421V1495ZM174.421 1001.64V999.645H172.421V1001.64H174.421ZM215.935 1001.64L217.926 1001.46L217.759 999.645H215.935V1001.64ZM246.619 1334.96L244.627 1335.14L244.795 1336.96H246.619V1334.96ZM248.424 1334.96V1336.96H250.424V1334.96H248.424ZM248.424 1001.64V999.645H246.424V1001.64H248.424ZM272.897 1001.64V1495H276.897V1001.64H272.897ZM274.897 1493H232.781V1497H274.897V1493ZM234.771 1494.8L204.087 1184.95L200.106 1185.35L230.791 1495.2L234.771 1494.8ZM202.097 1183.15H200.893V1187.15H202.097V1183.15ZM198.893 1185.15V1495H202.893V1185.15H198.893ZM200.893 1493H174.421V1497H200.893V1493ZM176.421 1495V1001.64H172.421V1495H176.421ZM174.421 1003.64H215.935V999.645H174.421V1003.64ZM213.943 1001.83L244.627 1335.14L248.611 1334.78L217.926 1001.46L213.943 1001.83ZM246.619 1336.96H248.424V1332.96H246.619V1336.96ZM250.424 1334.96V1001.64H246.424V1334.96H250.424ZM248.424 1003.64H274.897V999.645H248.424V1003.64ZM324.166 1397.53L322.174 1397.36L321.986 1399.53H324.166V1397.53ZM359.062 1397.53H361.062V1395.53H359.062V1397.53ZM359.062 1495V1497H361.062V1495H359.062ZM285.059 1495L283.066 1494.83L282.878 1497H285.059V1495ZM319.353 1099.11L321.346 1099.28L321.534 1097.11H319.353V1099.11ZM285.661 1099.11H283.661V1101.11H285.661V1099.11ZM285.661 1001.64V999.645H283.661V1001.64H285.661ZM358.461 1001.64L360.453 1001.82L360.641 999.645H358.461V1001.64ZM324.166 1399.53H359.062V1395.53H324.166V1399.53ZM357.062 1397.53V1495H361.062V1397.53H357.062ZM359.062 1493H285.059V1497H359.062V1493ZM287.052 1495.17L321.346 1099.28L317.361 1098.94L283.066 1494.83L287.052 1495.17ZM319.353 1097.11H285.661V1101.11H319.353V1097.11ZM287.661 1099.11V1001.64H283.661V1099.11H287.661ZM285.661 1003.64H358.461V999.645H285.661V1003.64ZM356.468 1001.47L322.174 1397.36L326.159 1397.7L360.453 1001.82L356.468 1001.47ZM427.552 1001.64H429.552V999.645H427.552V1001.64ZM427.552 1098.51V1100.51H429.552V1098.51H427.552ZM396.868 1098.51V1096.51H394.868V1098.51H396.868ZM396.868 1194.17H394.868V1196.17H396.868V1194.17ZM427.552 1194.17H429.552V1192.17H427.552V1194.17ZM427.552 1290.44V1292.44H429.552V1290.44H427.552ZM396.868 1290.44V1288.44H394.868V1290.44H396.868ZM396.868 1398.13H394.868V1400.13H396.868V1398.13ZM428.154 1398.13H430.154V1396.13H428.154V1398.13ZM428.154 1495V1497H430.154V1495H428.154ZM369.793 1495H367.793V1497H369.793V1495ZM369.793 1001.64V999.645H367.793V1001.64H369.793ZM425.552 1001.64V1098.51H429.552V1001.64H425.552ZM427.552 1096.51H396.868V1100.51H427.552V1096.51ZM394.868 1098.51V1194.17H398.868V1098.51H394.868ZM396.868 1196.17H427.552V1192.17H396.868V1196.17ZM425.552 1194.17V1290.44H429.552V1194.17H425.552ZM427.552 1288.44H396.868V1292.44H427.552V1288.44ZM394.868 1290.44V1398.13H398.868V1290.44H394.868ZM396.868 1400.13H428.154V1396.13H396.868V1400.13ZM426.154 1398.13V1495H430.154V1398.13H426.154ZM428.154 1493H369.793V1497H428.154V1493ZM371.793 1495V1001.64H367.793V1495H371.793ZM369.793 1003.64H427.552V999.645H369.793V1003.64Z" fill="black" mask="url(#path-3-outside-2_438_140)"/>
<path d="M795.673 466.645V935.934H825.756V960H771.607V466.645H795.673ZM831.73 960L852.186 466.645H893.098L913.555 960H889.489L884.074 815.603H861.211L855.796 960H831.73ZM883.472 791.537L873.244 514.777H872.041L861.812 791.537H883.472ZM1016.77 466.645V960H975.859L946.979 538.843H945.776V960H922.913V466.645H963.826L992.705 887.802H993.908V466.645H1016.77ZM1052.39 935.934H1093.9V960H1026.51L1068.03 490.711H1026.51V466.645H1093.9L1052.39 935.934ZM1154.74 466.645V490.711H1127.66V695.273H1155.34V719.339H1127.66V935.934H1155.34V960H1103.6V466.645H1154.74Z" fill="white"/>
<mask id="path-6-outside-3_438_140" maskUnits="userSpaceOnUse" x="492" y="999" width="659" height="498" fill="black">
<rect fill="white" x="492" y="999" width="659" height="498"/>
<path d="M543.58 1001.64V1454.09H595.322V1495H494.846V1001.64H543.58ZM603.078 1495L631.957 1001.64H713.18L742.661 1495H693.326L687.309 1367.45H654.82L648.804 1495H603.078ZM684.903 1326.54L672.268 1072.64H669.861L657.227 1326.54H684.903ZM900.407 1001.64V1495H840.242L805.346 1134.61H802.338V1495H756.612V1001.64H816.778L851.673 1362.03H854.682V1001.64H900.407ZM971.957 1454.09H1031.52V1495H914.198L975.567 1042.56H916.003V1001.64H1033.33L971.957 1454.09ZM1147.64 1001.64V1042.56H1095.9V1221.85H1144.64V1262.76H1095.9V1454.09H1148.25V1495H1047.17V1001.64H1147.64Z"/>
</mask>
<path d="M543.58 1001.64H545.58V999.645H543.58V1001.64ZM543.58 1454.09H541.58V1456.09H543.58V1454.09ZM595.322 1454.09H597.322V1452.09H595.322V1454.09ZM595.322 1495V1497H597.322V1495H595.322ZM494.846 1495H492.846V1497H494.846V1495ZM494.846 1001.64V999.645H492.846V1001.64H494.846ZM541.58 1001.64V1454.09H545.58V1001.64H541.58ZM543.58 1456.09H595.322V1452.09H543.58V1456.09ZM593.322 1454.09V1495H597.322V1454.09H593.322ZM595.322 1493H494.846V1497H595.322V1493ZM496.846 1495V1001.64H492.846V1495H496.846ZM494.846 1003.64H543.58V999.645H494.846V1003.64ZM603.078 1495L601.081 1494.88L600.958 1497H603.078V1495ZM631.957 1001.64V999.645H630.071L629.961 1001.53L631.957 1001.64ZM713.18 1001.64L715.177 1001.53L715.065 999.645H713.18V1001.64ZM742.661 1495V1497H744.785L744.658 1494.88L742.661 1495ZM693.326 1495L691.328 1495.09L691.418 1497H693.326V1495ZM687.309 1367.45L689.307 1367.36L689.217 1365.45H687.309V1367.45ZM654.82 1367.45V1365.45H652.912L652.822 1367.36L654.82 1367.45ZM648.804 1495V1497H650.712L650.801 1495.09L648.804 1495ZM684.903 1326.54V1328.54H687.005L686.9 1326.44L684.903 1326.54ZM672.268 1072.64L674.266 1072.54L674.171 1070.64H672.268V1072.64ZM669.861 1072.64V1070.64H667.959L667.864 1072.54L669.861 1072.64ZM657.227 1326.54L655.229 1326.44L655.125 1328.54H657.227V1326.54ZM605.075 1495.12L633.954 1001.76L629.961 1001.53L601.081 1494.88L605.075 1495.12ZM631.957 1003.64H713.18V999.645H631.957V1003.64ZM711.184 1001.76L740.665 1495.12L744.658 1494.88L715.177 1001.53L711.184 1001.76ZM742.661 1493H693.326V1497H742.661V1493ZM695.324 1494.91L689.307 1367.36L685.312 1367.54L691.328 1495.09L695.324 1494.91ZM687.309 1365.45H654.82V1369.45H687.309V1365.45ZM652.822 1367.36L646.806 1494.91L650.801 1495.09L656.818 1367.54L652.822 1367.36ZM648.804 1493H603.078V1497H648.804V1493ZM686.9 1326.44L674.266 1072.54L670.271 1072.74L682.905 1326.64L686.9 1326.44ZM672.268 1070.64H669.861V1074.64H672.268V1070.64ZM667.864 1072.54L655.229 1326.44L659.224 1326.64L671.859 1072.74L667.864 1072.54ZM657.227 1328.54H684.903V1324.54H657.227V1328.54ZM900.407 1001.64H902.407V999.645H900.407V1001.64ZM900.407 1495V1497H902.407V1495H900.407ZM840.242 1495L838.251 1495.19L838.426 1497H840.242V1495ZM805.346 1134.61L807.337 1134.42L807.162 1132.61H805.346V1134.61ZM802.338 1134.61V1132.61H800.338V1134.61H802.338ZM802.338 1495V1497H804.338V1495H802.338ZM756.612 1495H754.612V1497H756.612V1495ZM756.612 1001.64V999.645H754.612V1001.64H756.612ZM816.778 1001.64L818.768 1001.45L818.593 999.645H816.778V1001.64ZM851.673 1362.03L849.683 1362.23L849.858 1364.03H851.673V1362.03ZM854.682 1362.03V1364.03H856.682V1362.03H854.682ZM854.682 1001.64V999.645H852.682V1001.64H854.682ZM898.407 1001.64V1495H902.407V1001.64H898.407ZM900.407 1493H840.242V1497H900.407V1493ZM842.233 1494.81L807.337 1134.42L803.356 1134.8L838.251 1495.19L842.233 1494.81ZM805.346 1132.61H802.338V1136.61H805.346V1132.61ZM800.338 1134.61V1495H804.338V1134.61H800.338ZM802.338 1493H756.612V1497H802.338V1493ZM758.612 1495V1001.64H754.612V1495H758.612ZM756.612 1003.64H816.778V999.645H756.612V1003.64ZM814.787 1001.84L849.683 1362.23L853.664 1361.84L818.768 1001.45L814.787 1001.84ZM851.673 1364.03H854.682V1360.03H851.673V1364.03ZM856.682 1362.03V1001.64H852.682V1362.03H856.682ZM854.682 1003.64H900.407V999.645H854.682V1003.64ZM971.957 1454.09L969.975 1453.82L969.667 1456.09H971.957V1454.09ZM1031.52 1454.09H1033.52V1452.09H1031.52V1454.09ZM1031.52 1495V1497H1033.52V1495H1031.52ZM914.198 1495L912.217 1494.73L911.909 1497H914.198V1495ZM975.567 1042.56L977.549 1042.83L977.857 1040.56H975.567V1042.56ZM916.003 1042.56H914.003V1044.56H916.003V1042.56ZM916.003 1001.64V999.645H914.003V1001.64H916.003ZM1033.33 1001.64L1035.31 1001.91L1035.62 999.645H1033.33V1001.64ZM971.957 1456.09H1031.52V1452.09H971.957V1456.09ZM1029.52 1454.09V1495H1033.52V1454.09H1029.52ZM1031.52 1493H914.198V1497H1031.52V1493ZM916.18 1495.27L977.549 1042.83L973.585 1042.29L912.217 1494.73L916.18 1495.27ZM975.567 1040.56H916.003V1044.56H975.567V1040.56ZM918.003 1042.56V1001.64H914.003V1042.56H918.003ZM916.003 1003.64H1033.33V999.645H916.003V1003.64ZM1031.34 1001.38L969.975 1453.82L973.939 1454.36L1035.31 1001.91L1031.34 1001.38ZM1147.64 1001.64H1149.64V999.645H1147.64V1001.64ZM1147.64 1042.56V1044.56H1149.64V1042.56H1147.64ZM1095.9 1042.56V1040.56H1093.9V1042.56H1095.9ZM1095.9 1221.85H1093.9V1223.85H1095.9V1221.85ZM1144.64 1221.85H1146.64V1219.85H1144.64V1221.85ZM1144.64 1262.76V1264.76H1146.64V1262.76H1144.64ZM1095.9 1262.76V1260.76H1093.9V1262.76H1095.9ZM1095.9 1454.09H1093.9V1456.09H1095.9V1454.09ZM1148.25 1454.09H1150.25V1452.09H1148.25V1454.09ZM1148.25 1495V1497H1150.25V1495H1148.25ZM1047.17 1495H1045.17V1497H1047.17V1495ZM1047.17 1001.64V999.645H1045.17V1001.64H1047.17ZM1145.64 1001.64V1042.56H1149.64V1001.64H1145.64ZM1147.64 1040.56H1095.9V1044.56H1147.64V1040.56ZM1093.9 1042.56V1221.85H1097.9V1042.56H1093.9ZM1095.9 1223.85H1144.64V1219.85H1095.9V1223.85ZM1142.64 1221.85V1262.76H1146.64V1221.85H1142.64ZM1144.64 1260.76H1095.9V1264.76H1144.64V1260.76ZM1093.9 1262.76V1454.09H1097.9V1262.76H1093.9ZM1095.9 1456.09H1148.25V1452.09H1095.9V1456.09ZM1146.25 1454.09V1495H1150.25V1454.09H1146.25ZM1148.25 1493H1047.17V1497H1148.25V1493ZM1049.17 1495V1001.64H1045.17V1495H1049.17ZM1047.17 1003.64H1147.64V999.645H1047.17V1003.64Z" fill="black" mask="url(#path-6-outside-3_438_140)"/>
<mask id="path-8-outside-4_438_140" maskUnits="userSpaceOnUse" x="1637" y="999" width="842" height="498" fill="black">
<rect fill="white" x="1637" y="999" width="842" height="498"/>
<path d="M1698.21 1001.64V1386.1H1771.62V1495H1639.25V1001.64H1698.21ZM1780.35 1495L1817.65 1001.64H1921.13L1959.04 1495H1901.88L1896.46 1417.99H1848.33L1843.52 1495H1780.35ZM1888.04 1309.09L1874.2 1121.98H1870.59L1856.76 1309.09H1888.04ZM2153.13 1001.64V1495H2086.34L2035.2 1220.65H2031.59V1495H1975.64V1001.64H2042.42L2093.56 1288.03H2097.17V1001.64H2153.13ZM2252.02 1386.1H2321.21V1495H2170.2L2241.79 1110.54H2173.21V1001.64H2323.62L2252.02 1386.1ZM2476.17 1001.64V1107.54H2400.36V1191.17H2470.15V1293.45H2400.36V1389.11H2476.17V1495H2341.4V1001.64H2476.17Z"/>
</mask>
<path d="M1698.21 1001.64H1700.21V999.645H1698.21V1001.64ZM1698.21 1386.1H1696.21V1388.1H1698.21V1386.1ZM1771.62 1386.1H1773.62V1384.1H1771.62V1386.1ZM1771.62 1495V1497H1773.62V1495H1771.62ZM1639.25 1495H1637.25V1497H1639.25V1495ZM1639.25 1001.64V999.645H1637.25V1001.64H1639.25ZM1696.21 1001.64V1386.1H1700.21V1001.64H1696.21ZM1698.21 1388.1H1771.62V1384.1H1698.21V1388.1ZM1769.62 1386.1V1495H1773.62V1386.1H1769.62ZM1771.62 1493H1639.25V1497H1771.62V1493ZM1641.25 1495V1001.64H1637.25V1495H1641.25ZM1639.25 1003.64H1698.21V999.645H1639.25V1003.64ZM1780.35 1495L1778.35 1494.85L1778.19 1497H1780.35V1495ZM1817.65 1001.64V999.645H1815.79L1815.65 1001.49L1817.65 1001.64ZM1921.13 1001.64L1923.13 1001.49L1922.98 999.645H1921.13V1001.64ZM1959.04 1495V1497H1961.2L1961.03 1494.85L1959.04 1495ZM1901.88 1495L1899.88 1495.14L1900.01 1497H1901.88V1495ZM1896.46 1417.99L1898.46 1417.85L1898.33 1415.99H1896.46V1417.99ZM1848.33 1417.99V1415.99H1846.45L1846.34 1417.86L1848.33 1417.99ZM1843.52 1495V1497H1845.4L1845.51 1495.12L1843.52 1495ZM1888.04 1309.09V1311.09H1890.19L1890.04 1308.94L1888.04 1309.09ZM1874.2 1121.98L1876.2 1121.83L1876.06 1119.98H1874.2V1121.98ZM1870.59 1121.98V1119.98H1868.74L1868.6 1121.83L1870.59 1121.98ZM1856.76 1309.09L1854.76 1308.94L1854.6 1311.09H1856.76V1309.09ZM1782.34 1495.15L1819.64 1001.8L1815.65 1001.49L1778.35 1494.85L1782.34 1495.15ZM1817.65 1003.64H1921.13V999.645H1817.65V1003.64ZM1919.14 1001.8L1957.04 1495.15L1961.03 1494.85L1923.13 1001.49L1919.14 1001.8ZM1959.04 1493H1901.88V1497H1959.04V1493ZM1903.87 1494.86L1898.46 1417.85L1894.47 1418.13L1899.88 1495.14L1903.87 1494.86ZM1896.46 1415.99H1848.33V1419.99H1896.46V1415.99ZM1846.34 1417.86L1841.52 1494.88L1845.51 1495.12L1850.33 1418.11L1846.34 1417.86ZM1843.52 1493H1780.35V1497H1843.52V1493ZM1890.04 1308.94L1876.2 1121.83L1872.21 1122.12L1886.05 1309.24L1890.04 1308.94ZM1874.2 1119.98H1870.59V1123.98H1874.2V1119.98ZM1868.6 1121.83L1854.76 1308.94L1858.75 1309.24L1872.59 1122.12L1868.6 1121.83ZM1856.76 1311.09H1888.04V1307.09H1856.76V1311.09ZM2153.13 1001.64H2155.13V999.645H2153.13V1001.64ZM2153.13 1495V1497H2155.13V1495H2153.13ZM2086.34 1495L2084.38 1495.37L2084.68 1497H2086.34V1495ZM2035.2 1220.65L2037.17 1220.28L2036.86 1218.65H2035.2V1220.65ZM2031.59 1220.65V1218.65H2029.59V1220.65H2031.59ZM2031.59 1495V1497H2033.59V1495H2031.59ZM1975.64 1495H1973.64V1497H1975.64V1495ZM1975.64 1001.64V999.645H1973.64V1001.64H1975.64ZM2042.42 1001.64L2044.39 1001.29L2044.1 999.645H2042.42V1001.64ZM2093.56 1288.03L2091.59 1288.38L2091.89 1290.03H2093.56V1288.03ZM2097.17 1288.03V1290.03H2099.17V1288.03H2097.17ZM2097.17 1001.64V999.645H2095.17V1001.64H2097.17ZM2151.13 1001.64V1495H2155.13V1001.64H2151.13ZM2153.13 1493H2086.34V1497H2153.13V1493ZM2088.31 1494.63L2037.17 1220.28L2033.24 1221.01L2084.38 1495.37L2088.31 1494.63ZM2035.2 1218.65H2031.59V1222.65H2035.2V1218.65ZM2029.59 1220.65V1495H2033.59V1220.65H2029.59ZM2031.59 1493H1975.64V1497H2031.59V1493ZM1977.64 1495V1001.64H1973.64V1495H1977.64ZM1975.64 1003.64H2042.42V999.645H1975.64V1003.64ZM2040.45 1002L2091.59 1288.38L2095.53 1287.68L2044.39 1001.29L2040.45 1002ZM2093.56 1290.03H2097.17V1286.03H2093.56V1290.03ZM2099.17 1288.03V1001.64H2095.17V1288.03H2099.17ZM2097.17 1003.64H2153.13V999.645H2097.17V1003.64ZM2252.02 1386.1L2250.06 1385.73L2249.62 1388.1H2252.02V1386.1ZM2321.21 1386.1H2323.21V1384.1H2321.21V1386.1ZM2321.21 1495V1497H2323.21V1495H2321.21ZM2170.2 1495L2168.23 1494.63L2167.79 1497H2170.2V1495ZM2241.79 1110.54L2243.76 1110.91L2244.2 1108.54H2241.79V1110.54ZM2173.21 1110.54H2171.21V1112.54H2173.21V1110.54ZM2173.21 1001.64V999.645H2171.21V1001.64H2173.21ZM2323.62 1001.64L2325.59 1002.01L2326.03 999.645H2323.62V1001.64ZM2252.02 1388.1H2321.21V1384.1H2252.02V1388.1ZM2319.21 1386.1V1495H2323.21V1386.1H2319.21ZM2321.21 1493H2170.2V1497H2321.21V1493ZM2172.16 1495.37L2243.76 1110.91L2239.83 1110.18L2168.23 1494.63L2172.16 1495.37ZM2241.79 1108.54H2173.21V1112.54H2241.79V1108.54ZM2175.21 1110.54V1001.64H2171.21V1110.54H2175.21ZM2173.21 1003.64H2323.62V999.645H2173.21V1003.64ZM2321.65 1001.28L2250.06 1385.73L2253.99 1386.47L2325.59 1002.01L2321.65 1001.28ZM2476.17 1001.64H2478.17V999.645H2476.17V1001.64ZM2476.17 1107.54V1109.54H2478.17V1107.54H2476.17ZM2400.36 1107.54V1105.54H2398.36V1107.54H2400.36ZM2400.36 1191.17H2398.36V1193.17H2400.36V1191.17ZM2470.15 1191.17H2472.15V1189.17H2470.15V1191.17ZM2470.15 1293.45V1295.45H2472.15V1293.45H2470.15ZM2400.36 1293.45V1291.45H2398.36V1293.45H2400.36ZM2400.36 1389.11H2398.36V1391.11H2400.36V1389.11ZM2476.17 1389.11H2478.17V1387.11H2476.17V1389.11ZM2476.17 1495V1497H2478.17V1495H2476.17ZM2341.4 1495H2339.4V1497H2341.4V1495ZM2341.4 1001.64V999.645H2339.4V1001.64H2341.4ZM2474.17 1001.64V1107.54H2478.17V1001.64H2474.17ZM2476.17 1105.54H2400.36V1109.54H2476.17V1105.54ZM2398.36 1107.54V1191.17H2402.36V1107.54H2398.36ZM2400.36 1193.17H2470.15V1189.17H2400.36V1193.17ZM2468.15 1191.17V1293.45H2472.15V1191.17H2468.15ZM2470.15 1291.45H2400.36V1295.45H2470.15V1291.45ZM2398.36 1293.45V1389.11H2402.36V1293.45H2398.36ZM2400.36 1391.11H2476.17V1387.11H2400.36V1391.11ZM2474.17 1389.11V1495H2478.17V1389.11H2474.17ZM2476.17 1493H2341.4V1497H2476.17V1493ZM2343.4 1495V1001.64H2339.4V1495H2343.4ZM2341.4 1003.64H2476.17V999.645H2341.4V1003.64Z" fill="black" mask="url(#path-8-outside-4_438_140)"/>
<mask id="path-10-outside-5_438_140" maskUnits="userSpaceOnUse" x="1204" y="464" width="1244" height="498" fill="black">
<rect fill="white" x="1204" y="464" width="1244" height="498"/>
<path d="M1296.31 466.645V839.669H1408.22V960H1206.07V466.645H1296.31ZM1419.33 960L1473.48 466.645H1629.91L1684.06 960H1597.42L1591.4 899.835H1522.81L1516.8 960H1419.33ZM1579.37 779.504L1560.12 586.975H1554.1L1534.85 779.504H1579.37ZM1959.07 466.645V960H1867.62L1796.63 719.339H1790.61V960H1706.38V466.645H1797.83L1868.82 707.306H1874.84V466.645H1959.07ZM2105.27 839.669H2206.95V960H1981.94L2089.63 586.975H1987.95V466.645H2212.97L2105.27 839.669ZM2445.44 466.645V580.959H2326.32V653.157H2433.41V761.455H2326.32V845.686H2445.44V960H2236.07V466.645H2445.44Z"/>
</mask>
<path d="M1296.31 466.645H1298.31V464.645H1296.31V466.645ZM1296.31 839.669H1294.31V841.669H1296.31V839.669ZM1408.22 839.669H1410.22V837.669H1408.22V839.669ZM1408.22 960V962H1410.22V960H1408.22ZM1206.07 960H1204.07V962H1206.07V960ZM1206.07 466.645V464.645H1204.07V466.645H1206.07ZM1294.31 466.645V839.669H1298.31V466.645H1294.31ZM1296.31 841.669H1408.22V837.669H1296.31V841.669ZM1406.22 839.669V960H1410.22V839.669H1406.22ZM1408.22 958H1206.07V962H1408.22V958ZM1208.07 960V466.645H1204.07V960H1208.07ZM1206.07 468.645H1296.31V464.645H1206.07V468.645ZM1419.33 960L1417.34 959.782L1417.1 962H1419.33V960ZM1473.48 466.645V464.645H1471.68L1471.49 466.426L1473.48 466.645ZM1629.91 466.645L1631.9 466.426L1631.7 464.645H1629.91V466.645ZM1684.06 960V962H1686.29L1686.04 959.782L1684.06 960ZM1597.42 960L1595.43 960.199L1595.61 962H1597.42V960ZM1591.4 899.835L1593.39 899.636L1593.21 897.835H1591.4V899.835ZM1522.81 899.835V897.835H1521L1520.82 899.636L1522.81 899.835ZM1516.8 960V962H1518.61L1518.79 960.199L1516.8 960ZM1579.37 779.504V781.504H1581.58L1581.36 779.305L1579.37 779.504ZM1560.12 586.975L1562.11 586.776L1561.93 584.975H1560.12V586.975ZM1554.1 586.975V584.975H1552.29L1552.11 586.776L1554.1 586.975ZM1534.85 779.504L1532.86 779.305L1532.64 781.504H1534.85V779.504ZM1421.32 960.218L1475.47 466.863L1471.49 466.426L1417.34 959.782L1421.32 960.218ZM1473.48 468.645H1629.91V464.645H1473.48V468.645ZM1627.92 466.863L1682.07 960.218L1686.04 959.782L1631.9 466.426L1627.92 466.863ZM1684.06 958H1597.42V962H1684.06V958ZM1599.41 959.801L1593.39 899.636L1589.41 900.034L1595.43 960.199L1599.41 959.801ZM1591.4 897.835H1522.81V901.835H1591.4V897.835ZM1520.82 899.636L1514.81 959.801L1518.79 960.199L1524.8 900.034L1520.82 899.636ZM1516.8 958H1419.33V962H1516.8V958ZM1581.36 779.305L1562.11 586.776L1558.13 587.174L1577.38 779.703L1581.36 779.305ZM1560.12 584.975H1554.1V588.975H1560.12V584.975ZM1552.11 586.776L1532.86 779.305L1536.84 779.703L1556.09 587.174L1552.11 586.776ZM1534.85 781.504H1579.37V777.504H1534.85V781.504ZM1959.07 466.645H1961.07V464.645H1959.07V466.645ZM1959.07 960V962H1961.07V960H1959.07ZM1867.62 960L1865.7 960.566L1866.13 962H1867.62V960ZM1796.63 719.339L1798.54 718.773L1798.12 717.339H1796.63V719.339ZM1790.61 719.339V717.339H1788.61V719.339H1790.61ZM1790.61 960V962H1792.61V960H1790.61ZM1706.38 960H1704.38V962H1706.38V960ZM1706.38 466.645V464.645H1704.38V466.645H1706.38ZM1797.83 466.645L1799.75 466.079L1799.32 464.645H1797.83V466.645ZM1868.82 707.306L1866.91 707.872L1867.33 709.306H1868.82V707.306ZM1874.84 707.306V709.306H1876.84V707.306H1874.84ZM1874.84 466.645V464.645H1872.84V466.645H1874.84ZM1957.07 466.645V960H1961.07V466.645H1957.07ZM1959.07 958H1867.62V962H1959.07V958ZM1869.54 959.434L1798.54 718.773L1794.71 719.905L1865.7 960.566L1869.54 959.434ZM1796.63 717.339H1790.61V721.339H1796.63V717.339ZM1788.61 719.339V960H1792.61V719.339H1788.61ZM1790.61 958H1706.38V962H1790.61V958ZM1708.38 960V466.645H1704.38V960H1708.38ZM1706.38 468.645H1797.83V464.645H1706.38V468.645ZM1795.91 467.21L1866.91 707.872L1870.74 706.74L1799.75 466.079L1795.91 467.21ZM1868.82 709.306H1874.84V705.306H1868.82V709.306ZM1876.84 707.306V466.645H1872.84V707.306H1876.84ZM1874.84 468.645H1959.07V464.645H1874.84V468.645ZM2105.27 839.669L2103.35 839.115L2102.61 841.669H2105.27V839.669ZM2206.95 839.669H2208.95V837.669H2206.95V839.669ZM2206.95 960V962H2208.95V960H2206.95ZM1981.94 960L1980.01 959.445L1979.28 962H1981.94V960ZM2089.63 586.975L2091.55 587.53L2092.29 584.975H2089.63V586.975ZM1987.95 586.975H1985.95V588.975H1987.95V586.975ZM1987.95 466.645V464.645H1985.95V466.645H1987.95ZM2212.97 466.645L2214.89 467.199L2215.63 464.645H2212.97V466.645ZM2105.27 841.669H2206.95V837.669H2105.27V841.669ZM2204.95 839.669V960H2208.95V839.669H2204.95ZM2206.95 958H1981.94V962H2206.95V958ZM1983.86 960.555L2091.55 587.53L2087.71 586.42L1980.01 959.445L1983.86 960.555ZM2089.63 584.975H1987.95V588.975H2089.63V584.975ZM1989.95 586.975V466.645H1985.95V586.975H1989.95ZM1987.95 468.645H2212.97V464.645H1987.95V468.645ZM2211.05 466.09L2103.35 839.115L2107.2 840.224L2214.89 467.199L2211.05 466.09ZM2445.44 466.645H2447.44V464.645H2445.44V466.645ZM2445.44 580.959V582.959H2447.44V580.959H2445.44ZM2326.32 580.959V578.959H2324.32V580.959H2326.32ZM2326.32 653.157H2324.32V655.157H2326.32V653.157ZM2433.41 653.157H2435.41V651.157H2433.41V653.157ZM2433.41 761.455V763.455H2435.41V761.455H2433.41ZM2326.32 761.455V759.455H2324.32V761.455H2326.32ZM2326.32 845.686H2324.32V847.686H2326.32V845.686ZM2445.44 845.686H2447.44V843.686H2445.44V845.686ZM2445.44 960V962H2447.44V960H2445.44ZM2236.07 960H2234.07V962H2236.07V960ZM2236.07 466.645V464.645H2234.07V466.645H2236.07ZM2443.44 466.645V580.959H2447.44V466.645H2443.44ZM2445.44 578.959H2326.32V582.959H2445.44V578.959ZM2324.32 580.959V653.157H2328.32V580.959H2324.32ZM2326.32 655.157H2433.41V651.157H2326.32V655.157ZM2431.41 653.157V761.455H2435.41V653.157H2431.41ZM2433.41 759.455H2326.32V763.455H2433.41V759.455ZM2324.32 761.455V845.686H2328.32V761.455H2324.32ZM2326.32 847.686H2445.44V843.686H2326.32V847.686ZM2443.44 845.686V960H2447.44V845.686H2443.44ZM2445.44 958H2236.07V962H2445.44V958ZM2238.07 960V466.645H2234.07V960H2238.07ZM2236.07 468.645H2445.44V464.645H2236.07V468.645Z" fill="black" mask="url(#path-10-outside-5_438_140)"/>
<mask id="path-12-outside-6_438_140" maskUnits="userSpaceOnUse" x="1203" y="999" width="388" height="498" fill="black">
<rect fill="white" x="1203" y="999" width="388" height="498"/>
<path d="M1229.3 1001.64V1398.74H1259.39V1495H1205.24V1001.64H1229.3ZM1265.36 1495L1284.61 1001.64H1327.93L1347.18 1495H1323.12L1318.91 1398.74H1294.24L1290.63 1495H1265.36ZM1314.69 1302.47L1306.87 1121.98H1305.67L1298.45 1302.47H1314.69ZM1450.4 1001.64V1495H1410.69L1381.81 1182.14H1380.61V1495H1356.54V1001.64H1396.25L1425.13 1339.17H1426.33V1001.64H1450.4ZM1495.64 1398.74H1527.53V1495H1460.14L1490.83 1097.91H1460.14V1001.64H1526.33L1495.64 1398.74ZM1588.37 1001.64V1097.91H1561.29V1194.17H1588.97V1290.44H1561.29V1398.74H1588.97V1495H1537.23V1001.64H1588.37Z"/>
</mask>
<path d="M1229.3 1001.64H1231.3V999.645H1229.3V1001.64ZM1229.3 1398.74H1227.3V1400.74H1229.3V1398.74ZM1259.39 1398.74H1261.39V1396.74H1259.39V1398.74ZM1259.39 1495V1497H1261.39V1495H1259.39ZM1205.24 1495H1203.24V1497H1205.24V1495ZM1205.24 1001.64V999.645H1203.24V1001.64H1205.24ZM1227.3 1001.64V1398.74H1231.3V1001.64H1227.3ZM1229.3 1400.74H1259.39V1396.74H1229.3V1400.74ZM1257.39 1398.74V1495H1261.39V1398.74H1257.39ZM1259.39 1493H1205.24V1497H1259.39V1493ZM1207.24 1495V1001.64H1203.24V1495H1207.24ZM1205.24 1003.64H1229.3V999.645H1205.24V1003.64ZM1265.36 1495L1263.36 1494.92L1263.28 1497H1265.36V1495ZM1284.61 1001.64V999.645H1282.69L1282.61 1001.57L1284.61 1001.64ZM1327.93 1001.64L1329.93 1001.57L1329.85 999.645H1327.93V1001.64ZM1347.18 1495V1497H1349.26L1349.18 1494.92L1347.18 1495ZM1323.12 1495L1321.12 1495.09L1321.2 1497H1323.12V1495ZM1318.91 1398.74L1320.9 1398.65L1320.82 1396.74H1318.91V1398.74ZM1294.24 1398.74V1396.74H1292.31L1292.24 1398.66L1294.24 1398.74ZM1290.63 1495V1497H1292.56L1292.63 1495.07L1290.63 1495ZM1314.69 1302.47V1304.47H1316.78L1316.69 1302.38L1314.69 1302.47ZM1306.87 1121.98L1308.87 1121.89L1308.79 1119.98H1306.87V1121.98ZM1305.67 1121.98V1119.98H1303.75L1303.67 1121.9L1305.67 1121.98ZM1298.45 1302.47L1296.45 1302.39L1296.37 1304.47H1298.45V1302.47ZM1267.36 1495.08L1286.61 1001.72L1282.61 1001.57L1263.36 1494.92L1267.36 1495.08ZM1284.61 1003.64H1327.93V999.645H1284.61V1003.64ZM1325.93 1001.72L1345.19 1495.08L1349.18 1494.92L1329.93 1001.57L1325.93 1001.72ZM1347.18 1493H1323.12V1497H1347.18V1493ZM1325.12 1494.91L1320.9 1398.65L1316.91 1398.82L1321.12 1495.09L1325.12 1494.91ZM1318.91 1396.74H1294.24V1400.74H1318.91V1396.74ZM1292.24 1398.66L1288.63 1494.93L1292.63 1495.07L1296.24 1398.81L1292.24 1398.66ZM1290.63 1493H1265.36V1497H1290.63V1493ZM1316.69 1302.38L1308.87 1121.89L1304.88 1122.06L1312.7 1302.56L1316.69 1302.38ZM1306.87 1119.98H1305.67V1123.98H1306.87V1119.98ZM1303.67 1121.9L1296.45 1302.39L1300.45 1302.55L1307.67 1122.06L1303.67 1121.9ZM1298.45 1304.47H1314.69V1300.47H1298.45V1304.47ZM1450.4 1001.64H1452.4V999.645H1450.4V1001.64ZM1450.4 1495V1497H1452.4V1495H1450.4ZM1410.69 1495L1408.7 1495.18L1408.87 1497H1410.69V1495ZM1381.81 1182.14L1383.8 1181.96L1383.64 1180.14H1381.81V1182.14ZM1380.61 1182.14V1180.14H1378.61V1182.14H1380.61ZM1380.61 1495V1497H1382.61V1495H1380.61ZM1356.54 1495H1354.54V1497H1356.54V1495ZM1356.54 1001.64V999.645H1354.54V1001.64H1356.54ZM1396.25 1001.64L1398.24 1001.47L1398.09 999.645H1396.25V1001.64ZM1425.13 1339.17L1423.14 1339.34L1423.29 1341.17H1425.13V1339.17ZM1426.33 1339.17V1341.17H1428.33V1339.17H1426.33ZM1426.33 1001.64V999.645H1424.33V1001.64H1426.33ZM1448.4 1001.64V1495H1452.4V1001.64H1448.4ZM1450.4 1493H1410.69V1497H1450.4V1493ZM1412.68 1494.82L1383.8 1181.96L1379.82 1182.32L1408.7 1495.18L1412.68 1494.82ZM1381.81 1180.14H1380.61V1184.14H1381.81V1180.14ZM1378.61 1182.14V1495H1382.61V1182.14H1378.61ZM1380.61 1493H1356.54V1497H1380.61V1493ZM1358.54 1495V1001.64H1354.54V1495H1358.54ZM1356.54 1003.64H1396.25V999.645H1356.54V1003.64ZM1394.26 1001.82L1423.14 1339.34L1427.12 1339L1398.24 1001.47L1394.26 1001.82ZM1425.13 1341.17H1426.33V1337.17H1425.13V1341.17ZM1428.33 1339.17V1001.64H1424.33V1339.17H1428.33ZM1426.33 1003.64H1450.4V999.645H1426.33V1003.64ZM1495.64 1398.74L1493.65 1398.58L1493.48 1400.74H1495.64V1398.74ZM1527.53 1398.74H1529.53V1396.74H1527.53V1398.74ZM1527.53 1495V1497H1529.53V1495H1527.53ZM1460.14 1495L1458.15 1494.85L1457.98 1497H1460.14V1495ZM1490.83 1097.91L1492.82 1098.06L1492.99 1095.91H1490.83V1097.91ZM1460.14 1097.91H1458.14V1099.91H1460.14V1097.91ZM1460.14 1001.64V999.645H1458.14V1001.64H1460.14ZM1526.33 1001.64L1528.32 1001.8L1528.49 999.645H1526.33V1001.64ZM1495.64 1400.74H1527.53V1396.74H1495.64V1400.74ZM1525.53 1398.74V1495H1529.53V1398.74H1525.53ZM1527.53 1493H1460.14V1497H1527.53V1493ZM1462.14 1495.15L1492.82 1098.06L1488.83 1097.75L1458.15 1494.85L1462.14 1495.15ZM1490.83 1095.91H1460.14V1099.91H1490.83V1095.91ZM1462.14 1097.91V1001.64H1458.14V1097.91H1462.14ZM1460.14 1003.64H1526.33V999.645H1460.14V1003.64ZM1524.33 1001.49L1493.65 1398.58L1497.64 1398.89L1528.32 1001.8L1524.33 1001.49ZM1588.37 1001.64H1590.37V999.645H1588.37V1001.64ZM1588.37 1097.91V1099.91H1590.37V1097.91H1588.37ZM1561.29 1097.91V1095.91H1559.29V1097.91H1561.29ZM1561.29 1194.17H1559.29V1196.17H1561.29V1194.17ZM1588.97 1194.17H1590.97V1192.17H1588.97V1194.17ZM1588.97 1290.44V1292.44H1590.97V1290.44H1588.97ZM1561.29 1290.44V1288.44H1559.29V1290.44H1561.29ZM1561.29 1398.74H1559.29V1400.74H1561.29V1398.74ZM1588.97 1398.74H1590.97V1396.74H1588.97V1398.74ZM1588.97 1495V1497H1590.97V1495H1588.97ZM1537.23 1495H1535.23V1497H1537.23V1495ZM1537.23 1001.64V999.645H1535.23V1001.64H1537.23ZM1586.37 1001.64V1097.91H1590.37V1001.64H1586.37ZM1588.37 1095.91H1561.29V1099.91H1588.37V1095.91ZM1559.29 1097.91V1194.17H1563.29V1097.91H1559.29ZM1561.29 1196.17H1588.97V1192.17H1561.29V1196.17ZM1586.97 1194.17V1290.44H1590.97V1194.17H1586.97ZM1588.97 1288.44H1561.29V1292.44H1588.97V1288.44ZM1559.29 1290.44V1398.74H1563.29V1290.44H1559.29ZM1561.29 1400.74H1588.97V1396.74H1561.29V1400.74ZM1586.97 1398.74V1495H1590.97V1398.74H1586.97ZM1588.97 1493H1537.23V1497H1588.97V1493ZM1539.23 1495V1001.64H1535.23V1495H1539.23ZM1537.23 1003.64H1588.37V999.645H1537.23V1003.64Z" fill="black" mask="url(#path-12-outside-6_438_140)"/>
<mask id="path-14-outside-7_438_140" maskUnits="userSpaceOnUse" x="876" y="-71" width="665" height="498" fill="black">
<rect fill="white" x="876" y="-71" width="665" height="498"/>
<path d="M926.979 -68.3554V370.25H980.526V425H878.846V-68.3554H926.979ZM988.253 425L1017.73 -68.3554H1099.56L1129.04 425H1080.31L1074.89 307.076H1040.6L1035.18 425H988.253ZM1071.28 252.326L1059.25 13.4694H1056.24L1044.21 252.326H1071.28ZM1287.96 -68.3554V425H1228.4L1191.7 80.8545H1188.69V425H1142.96V-68.3554H1202.53L1239.23 279.4H1242.24V-68.3554H1287.96ZM1361.29 370.25H1420.25V425H1301.72L1362.49 -13.605H1304.13V-68.3554H1422.05L1361.29 370.25ZM1538.15 -68.3554V-13.605H1484V145.231H1534.54V199.38H1484V370.25H1538.15V425H1435.87V-68.3554H1538.15Z"/>
</mask>
<path d="M926.979 -68.3554H928.979V-70.3554H926.979V-68.3554ZM926.979 370.25H924.979V372.25H926.979V370.25ZM980.526 370.25H982.526V368.25H980.526V370.25ZM980.526 425V427H982.526V425H980.526ZM878.846 425H876.846V427H878.846V425ZM878.846 -68.3554V-70.3554H876.846V-68.3554H878.846ZM924.979 -68.3554V370.25H928.979V-68.3554H924.979ZM926.979 372.25H980.526V368.25H926.979V372.25ZM978.526 370.25V425H982.526V370.25H978.526ZM980.526 423H878.846V427H980.526V423ZM880.846 425V-68.3554H876.846V425H880.846ZM878.846 -66.3554H926.979V-70.3554H878.846V-66.3554ZM988.253 425L986.257 424.881L986.13 427H988.253V425ZM1017.73 -68.3554V-70.3554H1015.85L1015.74 -68.4747L1017.73 -68.3554ZM1099.56 -68.3554L1101.56 -68.4747L1101.44 -70.3554H1099.56V-68.3554ZM1129.04 425V427H1131.16L1131.04 424.881L1129.04 425ZM1080.31 425L1078.31 425.092L1078.4 427H1080.31V425ZM1074.89 307.076L1076.89 306.984L1076.8 305.076H1074.89V307.076ZM1040.6 307.076V305.076H1038.69L1038.6 306.984L1040.6 307.076ZM1035.18 425V427H1037.09L1037.18 425.092L1035.18 425ZM1071.28 252.326V254.326H1073.38L1073.28 252.225L1071.28 252.326ZM1059.25 13.4694L1061.25 13.3688L1061.15 11.4694H1059.25V13.4694ZM1056.24 13.4694V11.4694H1054.34L1054.24 13.3688L1056.24 13.4694ZM1044.21 252.326L1042.21 252.225L1042.1 254.326H1044.21V252.326ZM990.25 425.119L1019.73 -68.2361L1015.74 -68.4747L986.257 424.881L990.25 425.119ZM1017.73 -66.3554H1099.56V-70.3554H1017.73V-66.3554ZM1097.56 -68.2361L1127.04 425.119L1131.04 424.881L1101.56 -68.4747L1097.56 -68.2361ZM1129.04 423H1080.31V427H1129.04V423ZM1082.3 424.908L1076.89 306.984L1072.89 307.168L1078.31 425.092L1082.3 424.908ZM1074.89 305.076H1040.6V309.076H1074.89V305.076ZM1038.6 306.984L1033.18 424.908L1037.18 425.092L1042.59 307.168L1038.6 306.984ZM1035.18 423H988.253V427H1035.18V423ZM1073.28 252.225L1061.25 13.3688L1057.25 13.57L1069.28 252.426L1073.28 252.225ZM1059.25 11.4694H1056.24V15.4694H1059.25V11.4694ZM1054.24 13.3688L1042.21 252.225L1046.2 252.426L1058.24 13.57L1054.24 13.3688ZM1044.21 254.326H1071.28V250.326H1044.21V254.326ZM1287.96 -68.3554H1289.96V-70.3554H1287.96V-68.3554ZM1287.96 425V427H1289.96V425H1287.96ZM1228.4 425L1226.41 425.212L1226.6 427H1228.4V425ZM1191.7 80.8545L1193.69 80.6424L1193.49 78.8545H1191.7V80.8545ZM1188.69 80.8545V78.8545H1186.69V80.8545H1188.69ZM1188.69 425V427H1190.69V425H1188.69ZM1142.96 425H1140.96V427H1142.96V425ZM1142.96 -68.3554V-70.3554H1140.96V-68.3554H1142.96ZM1202.53 -68.3554L1204.52 -68.5653L1204.33 -70.3554H1202.53V-68.3554ZM1239.23 279.4L1237.24 279.61L1237.43 281.4H1239.23V279.4ZM1242.24 279.4V281.4H1244.24V279.4H1242.24ZM1242.24 -68.3554V-70.3554H1240.24V-68.3554H1242.24ZM1285.96 -68.3554V425H1289.96V-68.3554H1285.96ZM1287.96 423H1228.4V427H1287.96V423ZM1230.39 424.788L1193.69 80.6424L1189.71 81.0666L1226.41 425.212L1230.39 424.788ZM1191.7 78.8545H1188.69V82.8545H1191.7V78.8545ZM1186.69 80.8545V425H1190.69V80.8545H1186.69ZM1188.69 423H1142.96V427H1188.69V423ZM1144.96 425V-68.3554H1140.96V425H1144.96ZM1142.96 -66.3554H1202.53V-70.3554H1142.96V-66.3554ZM1200.54 -68.1455L1237.24 279.61L1241.22 279.19L1204.52 -68.5653L1200.54 -68.1455ZM1239.23 281.4H1242.24V277.4H1239.23V281.4ZM1244.24 279.4V-68.3554H1240.24V279.4H1244.24ZM1242.24 -66.3554H1287.96V-70.3554H1242.24V-66.3554ZM1361.29 370.25L1359.31 369.975L1358.99 372.25H1361.29V370.25ZM1420.25 370.25H1422.25V368.25H1420.25V370.25ZM1420.25 425V427H1422.25V425H1420.25ZM1301.72 425L1299.74 424.726L1299.43 427H1301.72V425ZM1362.49 -13.605L1364.47 -13.3305L1364.79 -15.605H1362.49V-13.605ZM1304.13 -13.605H1302.13V-11.605H1304.13V-13.605ZM1304.13 -68.3554V-70.3554H1302.13V-68.3554H1304.13ZM1422.05 -68.3554L1424.04 -68.0809L1424.35 -70.3554H1422.05V-68.3554ZM1361.29 372.25H1420.25V368.25H1361.29V372.25ZM1418.25 370.25V425H1422.25V370.25H1418.25ZM1420.25 423H1301.72V427H1420.25V423ZM1303.7 425.274L1364.47 -13.3305L1360.51 -13.8794L1299.74 424.726L1303.7 425.274ZM1362.49 -15.605H1304.13V-11.605H1362.49V-15.605ZM1306.13 -13.605V-68.3554H1302.13V-13.605H1306.13ZM1304.13 -66.3554H1422.05V-70.3554H1304.13V-66.3554ZM1420.07 -68.6299L1359.31 369.975L1363.27 370.524L1424.04 -68.0809L1420.07 -68.6299ZM1538.15 -68.3554H1540.15V-70.3554H1538.15V-68.3554ZM1538.15 -13.605V-11.605H1540.15V-13.605H1538.15ZM1484 -13.605V-15.605H1482V-13.605H1484ZM1484 145.231H1482V147.231H1484V145.231ZM1534.54 145.231H1536.54V143.231H1534.54V145.231ZM1534.54 199.38V201.38H1536.54V199.38H1534.54ZM1484 199.38V197.38H1482V199.38H1484ZM1484 370.25H1482V372.25H1484V370.25ZM1538.15 370.25H1540.15V368.25H1538.15V370.25ZM1538.15 425V427H1540.15V425H1538.15ZM1435.87 425H1433.87V427H1435.87V425ZM1435.87 -68.3554V-70.3554H1433.87V-68.3554H1435.87ZM1536.15 -68.3554V-13.605H1540.15V-68.3554H1536.15ZM1538.15 -15.605H1484V-11.605H1538.15V-15.605ZM1482 -13.605V145.231H1486V-13.605H1482ZM1484 147.231H1534.54V143.231H1484V147.231ZM1532.54 145.231V199.38H1536.54V145.231H1532.54ZM1534.54 197.38H1484V201.38H1534.54V197.38ZM1482 199.38V370.25H1486V199.38H1482ZM1484 372.25H1538.15V368.25H1484V372.25ZM1536.15 370.25V425H1540.15V370.25H1536.15ZM1538.15 423H1435.87V427H1538.15V423ZM1437.87 425V-68.3554H1433.87V425H1437.87ZM1435.87 -66.3554H1538.15V-70.3554H1435.87V-66.3554Z" fill="black" mask="url(#path-14-outside-7_438_140)"/>
<mask id="path-16-outside-8_438_140" maskUnits="userSpaceOnUse" x="-415" y="-71" width="1244" height="498" fill="black">
<rect fill="white" x="-415" y="-71" width="1244" height="498"/>
<path d="M-320.279 -68.3554V313.093H-210.779V425H-412.934V-68.3554H-320.279ZM-199.671 425L-146.726 -68.3554H12.1104L65.0559 425H-25.1921L-31.2086 358.818H-96.7888L-103.407 425H-199.671ZM-42.0384 246.911L-61.2912 51.9752H-67.3078L-85.959 246.911H-42.0384ZM340.072 -68.3554V425H246.214L180.033 186.745H174.016V425H87.3781V-68.3554H181.236L247.418 169.899H253.434V-68.3554H340.072ZM486.876 313.093H587.953V425H362.935L470.029 43.5521H368.952V-68.3554H593.97L486.876 313.093ZM826.443 -68.3554V38.7388H709.722V121.165H814.41V223.446H709.722V317.906H826.443V425H617.068V-68.3554H826.443Z"/>
</mask>
<path d="M-320.279 -68.3554H-318.279V-70.3554H-320.279V-68.3554ZM-320.279 313.093H-322.279V315.093H-320.279V313.093ZM-210.779 313.093H-208.779V311.093H-210.779V313.093ZM-210.779 425V427H-208.779V425H-210.779ZM-412.934 425H-414.934V427H-412.934V425ZM-412.934 -68.3554V-70.3554H-414.934V-68.3554H-412.934ZM-322.279 -68.3554V313.093H-318.279V-68.3554H-322.279ZM-320.279 315.093H-210.779V311.093H-320.279V315.093ZM-212.779 313.093V425H-208.779V313.093H-212.779ZM-210.779 423H-412.934V427H-210.779V423ZM-410.934 425V-68.3554H-414.934V425H-410.934ZM-412.934 -66.3554H-320.279V-70.3554H-412.934V-66.3554ZM-199.671 425L-201.66 424.787L-201.898 427H-199.671V425ZM-146.726 -68.3554V-70.3554H-148.523L-148.715 -68.5688L-146.726 -68.3554ZM12.1104 -68.3554L14.099 -68.5688L13.9073 -70.3554H12.1104V-68.3554ZM65.0559 425V427H67.282L67.0444 424.787L65.0559 425ZM-25.1921 425L-27.1839 425.181L-27.0185 427H-25.1921V425ZM-31.2086 358.818L-29.2168 358.637L-29.3822 356.818H-31.2086V358.818ZM-96.7888 358.818V356.818H-98.5988L-98.7789 358.619L-96.7888 358.818ZM-103.407 425V427H-101.597L-101.417 425.199L-103.407 425ZM-42.0384 246.911V248.911H-39.8311L-40.048 246.714L-42.0384 246.911ZM-61.2912 51.9752L-59.3009 51.7786L-59.479 49.9752H-61.2912V51.9752ZM-67.3078 51.9752V49.9752H-69.1256L-69.2987 51.7847L-67.3078 51.9752ZM-85.959 246.911L-87.9499 246.72L-88.1595 248.911H-85.959V246.911ZM-197.683 425.213L-144.737 -68.142L-148.715 -68.5688L-201.66 424.787L-197.683 425.213ZM-146.726 -66.3554H12.1104V-70.3554H-146.726V-66.3554ZM10.1218 -68.142L63.0673 425.213L67.0444 424.787L14.099 -68.5688L10.1218 -68.142ZM65.0559 423H-25.1921V427H65.0559V423ZM-23.2003 424.819L-29.2168 358.637L-33.2004 358.999L-27.1839 425.181L-23.2003 424.819ZM-31.2086 356.818H-96.7888V360.818H-31.2086V356.818ZM-98.7789 358.619L-105.397 424.801L-101.417 425.199L-94.7987 359.017L-98.7789 358.619ZM-103.407 423H-199.671V427H-103.407V423ZM-40.048 246.714L-59.3009 51.7786L-63.2816 52.1718L-44.0287 247.107L-40.048 246.714ZM-61.2912 49.9752H-67.3078V53.9752H-61.2912V49.9752ZM-69.2987 51.7847L-87.9499 246.72L-83.9681 247.101L-65.3169 52.1657L-69.2987 51.7847ZM-85.959 248.911H-42.0384V244.911H-85.959V248.911ZM340.072 -68.3554H342.072V-70.3554H340.072V-68.3554ZM340.072 425V427H342.072V425H340.072ZM246.214 425L244.287 425.535L244.694 427H246.214V425ZM180.033 186.745L181.96 186.21L181.553 184.745H180.033V186.745ZM174.016 186.745V184.745H172.016V186.745H174.016ZM174.016 425V427H176.016V425H174.016ZM87.3781 425H85.3781V427H87.3781V425ZM87.3781 -68.3554V-70.3554H85.3781V-68.3554H87.3781ZM181.236 -68.3554L183.163 -68.8907L182.756 -70.3554H181.236V-68.3554ZM247.418 169.899L245.491 170.434L245.898 171.899H247.418V169.899ZM253.434 169.899V171.899H255.434V169.899H253.434ZM253.434 -68.3554V-70.3554H251.434V-68.3554H253.434ZM338.072 -68.3554V425H342.072V-68.3554H338.072ZM340.072 423H246.214V427H340.072V423ZM248.142 424.465L181.96 186.21L178.106 187.281L244.287 425.535L248.142 424.465ZM180.033 184.745H174.016V188.745H180.033V184.745ZM172.016 186.745V425H176.016V186.745H172.016ZM174.016 423H87.3781V427H174.016V423ZM89.3781 425V-68.3554H85.3781V425H89.3781ZM87.3781 -66.3554H181.236V-70.3554H87.3781V-66.3554ZM179.309 -67.8201L245.491 170.434L249.345 169.364L183.163 -68.8907L179.309 -67.8201ZM247.418 171.899H253.434V167.899H247.418V171.899ZM255.434 169.899V-68.3554H251.434V169.899H255.434ZM253.434 -66.3554H340.072V-70.3554H253.434V-66.3554ZM486.876 313.093L484.95 312.552L484.237 315.093H486.876V313.093ZM587.953 313.093H589.953V311.093H587.953V313.093ZM587.953 425V427H589.953V425H587.953ZM362.935 425L361.01 424.459L360.296 427H362.935V425ZM470.029 43.5521L471.955 44.0927L472.668 41.5521H470.029V43.5521ZM368.952 43.5521H366.952V45.5521H368.952V43.5521ZM368.952 -68.3554V-70.3554H366.952V-68.3554H368.952ZM593.97 -68.3554L595.895 -67.8148L596.609 -70.3554H593.97V-68.3554ZM486.876 315.093H587.953V311.093H486.876V315.093ZM585.953 313.093V425H589.953V313.093H585.953ZM587.953 423H362.935V427H587.953V423ZM364.861 425.541L471.955 44.0927L468.104 43.0115L361.01 424.459L364.861 425.541ZM470.029 41.5521H368.952V45.5521H470.029V41.5521ZM370.952 43.5521V-68.3554H366.952V43.5521H370.952ZM368.952 -66.3554H593.97V-70.3554H368.952V-66.3554ZM592.044 -68.896L484.95 312.552L488.801 313.633L595.895 -67.8148L592.044 -68.896ZM826.443 -68.3554H828.443V-70.3554H826.443V-68.3554ZM826.443 38.7388V40.7388H828.443V38.7388H826.443ZM709.722 38.7388V36.7388H707.722V38.7388H709.722ZM709.722 121.165H707.722V123.165H709.722V121.165ZM814.41 121.165H816.41V119.165H814.41V121.165ZM814.41 223.446V225.446H816.41V223.446H814.41ZM709.722 223.446V221.446H707.722V223.446H709.722ZM709.722 317.906H707.722V319.906H709.722V317.906ZM826.443 317.906H828.443V315.906H826.443V317.906ZM826.443 425V427H828.443V425H826.443ZM617.068 425H615.068V427H617.068V425ZM617.068 -68.3554V-70.3554H615.068V-68.3554H617.068ZM824.443 -68.3554V38.7388H828.443V-68.3554H824.443ZM826.443 36.7388H709.722V40.7388H826.443V36.7388ZM707.722 38.7388V121.165H711.722V38.7388H707.722ZM709.722 123.165H814.41V119.165H709.722V123.165ZM812.41 121.165V223.446H816.41V121.165H812.41ZM814.41 221.446H709.722V225.446H814.41V221.446ZM707.722 223.446V317.906H711.722V223.446H707.722ZM709.722 319.906H826.443V315.906H709.722V319.906ZM824.443 317.906V425H828.443V317.906H824.443ZM826.443 423H617.068V427H826.443V423ZM619.068 425V-68.3554H615.068V425H619.068ZM617.068 -66.3554H826.443V-70.3554H617.068V-66.3554Z" fill="black" mask="url(#path-16-outside-8_438_140)"/>
<mask id="path-18-outside-9_438_140" maskUnits="userSpaceOnUse" x="1572" y="-71" width="483" height="498" fill="black">
<rect fill="white" x="1572" y="-71" width="483" height="498"/>
<path d="M1606.93 -68.3554V394.917H1644.83V425H1574.44V-68.3554H1606.93ZM1650.99 425L1674.45 -68.3554H1729.8L1753.27 425H1720.18L1714.76 286.62H1688.29L1682.87 425H1650.99ZM1713.56 256.537L1702.73 -12.4017H1700.92L1689.49 256.537H1713.56ZM1875.24 -68.3554V425H1827.71L1796.43 24.9008H1794.62V425H1763.94V-68.3554H1811.47L1842.75 331.744H1844.56V-68.3554H1875.24ZM1923.61 394.917H1971.15V425H1886.31L1935.05 -38.2728H1887.52V-68.3554H1971.75L1923.61 394.917ZM2051.4 -68.3554V-38.2728H2015.3V157.264H2050.8V187.347H2015.3V394.917H2052V425H1982.81V-68.3554H2051.4Z"/>
</mask>
<path d="M1606.93 -68.3554H1608.93V-70.3554H1606.93V-68.3554ZM1606.93 394.917H1604.93V396.917H1606.93V394.917ZM1644.83 394.917H1646.83V392.917H1644.83V394.917ZM1644.83 425V427H1646.83V425H1644.83ZM1574.44 425H1572.44V427H1574.44V425ZM1574.44 -68.3554V-70.3554H1572.44V-68.3554H1574.44ZM1604.93 -68.3554V394.917H1608.93V-68.3554H1604.93ZM1606.93 396.917H1644.83V392.917H1606.93V396.917ZM1642.83 394.917V425H1646.83V394.917H1642.83ZM1644.83 423H1574.44V427H1644.83V423ZM1576.44 425V-68.3554H1572.44V425H1576.44ZM1574.44 -66.3554H1606.93V-70.3554H1574.44V-66.3554ZM1650.99 425L1648.99 424.905L1648.89 427H1650.99V425ZM1674.45 -68.3554V-70.3554H1672.54L1672.45 -68.4504L1674.45 -68.3554ZM1729.8 -68.3554L1731.8 -68.4504L1731.71 -70.3554H1729.8V-68.3554ZM1753.27 425V427H1755.36L1755.26 424.905L1753.27 425ZM1720.18 425L1718.18 425.078L1718.25 427H1720.18V425ZM1714.76 286.62L1716.76 286.542L1716.68 284.62H1714.76V286.62ZM1688.29 286.62V284.62H1686.37L1686.29 286.542L1688.29 286.62ZM1682.87 425V427H1684.8L1684.87 425.078L1682.87 425ZM1713.56 256.537V258.537H1715.64L1715.56 256.457L1713.56 256.537ZM1702.73 -12.4017L1704.73 -12.4822L1704.65 -14.4017H1702.73V-12.4017ZM1700.92 -12.4017V-14.4017H1699.01L1698.92 -12.4866L1700.92 -12.4017ZM1689.49 256.537L1687.49 256.452L1687.4 258.537H1689.49V256.537ZM1652.98 425.095L1676.45 -68.2604L1672.45 -68.4504L1648.99 424.905L1652.98 425.095ZM1674.45 -66.3554H1729.8V-70.3554H1674.45V-66.3554ZM1727.8 -68.2604L1751.27 425.095L1755.26 424.905L1731.8 -68.4504L1727.8 -68.2604ZM1753.27 423H1720.18V427H1753.27V423ZM1722.17 424.922L1716.76 286.542L1712.76 286.698L1718.18 425.078L1722.17 424.922ZM1714.76 284.62H1688.29V288.62H1714.76V284.62ZM1686.29 286.542L1680.88 424.922L1684.87 425.078L1690.29 286.698L1686.29 286.542ZM1682.87 423H1650.99V427H1682.87V423ZM1715.56 256.457L1704.73 -12.4822L1700.73 -12.3212L1711.56 256.618L1715.56 256.457ZM1702.73 -14.4017H1700.92V-10.4017H1702.73V-14.4017ZM1698.92 -12.4866L1687.49 256.452L1691.49 256.622L1702.92 -12.3168L1698.92 -12.4866ZM1689.49 258.537H1713.56V254.537H1689.49V258.537ZM1875.24 -68.3554H1877.24V-70.3554H1875.24V-68.3554ZM1875.24 425V427H1877.24V425H1875.24ZM1827.71 425L1825.72 425.156L1825.86 427H1827.71V425ZM1796.43 24.9008L1798.42 24.7449L1798.28 22.9008H1796.43V24.9008ZM1794.62 24.9008V22.9008H1792.62V24.9008H1794.62ZM1794.62 425V427H1796.62V425H1794.62ZM1763.94 425H1761.94V427H1763.94V425ZM1763.94 -68.3554V-70.3554H1761.94V-68.3554H1763.94ZM1811.47 -68.3554L1813.46 -68.5113L1813.32 -70.3554H1811.47V-68.3554ZM1842.75 331.744L1840.76 331.9L1840.9 333.744H1842.75V331.744ZM1844.56 331.744V333.744H1846.56V331.744H1844.56ZM1844.56 -68.3554V-70.3554H1842.56V-68.3554H1844.56ZM1873.24 -68.3554V425H1877.24V-68.3554H1873.24ZM1875.24 423H1827.71V427H1875.24V423ZM1829.71 424.844L1798.42 24.7449L1794.43 25.0567L1825.72 425.156L1829.71 424.844ZM1796.43 22.9008H1794.62V26.9008H1796.43V22.9008ZM1792.62 24.9008V425H1796.62V24.9008H1792.62ZM1794.62 423H1763.94V427H1794.62V423ZM1765.94 425V-68.3554H1761.94V425H1765.94ZM1763.94 -66.3554H1811.47V-70.3554H1763.94V-66.3554ZM1809.47 -68.1995L1840.76 331.9L1844.75 331.588L1813.46 -68.5113L1809.47 -68.1995ZM1842.75 333.744H1844.56V329.744H1842.75V333.744ZM1846.56 331.744V-68.3554H1842.56V331.744H1846.56ZM1844.56 -66.3554H1875.24V-70.3554H1844.56V-66.3554ZM1923.61 394.917L1921.63 394.711L1921.4 396.917H1923.61V394.917ZM1971.15 394.917H1973.15V392.917H1971.15V394.917ZM1971.15 425V427H1973.15V425H1971.15ZM1886.31 425L1884.32 424.791L1884.09 427H1886.31V425ZM1935.05 -38.2728L1937.04 -38.0635L1937.27 -40.2728H1935.05V-38.2728ZM1887.52 -38.2728H1885.52V-36.2728H1887.52V-38.2728ZM1887.52 -68.3554V-70.3554H1885.52V-68.3554H1887.52ZM1971.75 -68.3554L1973.74 -68.1487L1973.97 -70.3554H1971.75V-68.3554ZM1923.61 396.917H1971.15V392.917H1923.61V396.917ZM1969.15 394.917V425H1973.15V394.917H1969.15ZM1971.15 423H1886.31V427H1971.15V423ZM1888.3 425.209L1937.04 -38.0635L1933.06 -38.482L1884.32 424.791L1888.3 425.209ZM1935.05 -40.2728H1887.52V-36.2728H1935.05V-40.2728ZM1889.52 -38.2728V-68.3554H1885.52V-38.2728H1889.52ZM1887.52 -66.3554H1971.75V-70.3554H1887.52V-66.3554ZM1969.76 -68.5621L1921.63 394.711L1925.6 395.124L1973.74 -68.1487L1969.76 -68.5621ZM2051.4 -68.3554H2053.4V-70.3554H2051.4V-68.3554ZM2051.4 -38.2728V-36.2728H2053.4V-38.2728H2051.4ZM2015.3 -38.2728V-40.2728H2013.3V-38.2728H2015.3ZM2015.3 157.264H2013.3V159.264H2015.3V157.264ZM2050.8 157.264H2052.8V155.264H2050.8V157.264ZM2050.8 187.347V189.347H2052.8V187.347H2050.8ZM2015.3 187.347V185.347H2013.3V187.347H2015.3ZM2015.3 394.917H2013.3V396.917H2015.3V394.917ZM2052 394.917H2054V392.917H2052V394.917ZM2052 425V427H2054V425H2052ZM1982.81 425H1980.81V427H1982.81V425ZM1982.81 -68.3554V-70.3554H1980.81V-68.3554H1982.81ZM2049.4 -68.3554V-38.2728H2053.4V-68.3554H2049.4ZM2051.4 -40.2728H2015.3V-36.2728H2051.4V-40.2728ZM2013.3 -38.2728V157.264H2017.3V-38.2728H2013.3ZM2015.3 159.264H2050.8V155.264H2015.3V159.264ZM2048.8 157.264V187.347H2052.8V157.264H2048.8ZM2050.8 185.347H2015.3V189.347H2050.8V185.347ZM2013.3 187.347V394.917H2017.3V187.347H2013.3ZM2015.3 396.917H2052V392.917H2015.3V396.917ZM2050 394.917V425H2054V394.917H2050ZM2052 423H1982.81V427H2052V423ZM1984.81 425V-68.3554H1980.81V425H1984.81ZM1982.81 -66.3554H2051.4V-70.3554H1982.81V-66.3554Z" fill="black" mask="url(#path-18-outside-9_438_140)"/>
</g>
<defs>
<clipPath id="clip0_438_140">
<rect width="1920" height="1480" fill="white"/>
</clipPath>
</defs>
</svg>
