<svg width="326" height="146" viewBox="0 0 326 146" fill="none" xmlns="http://www.w3.org/2000/svg">
<path d="M25.461 0V124.99H51.1V146H0V0H25.461Z" fill="white"/>
<path d="M58.4507 146L71.2702 0H113.29L126.109 146H100.47L98.3336 116.8H84.0897L81.9531 146H58.4507ZM96.7312 95.7902L91.9239 31.6927H90.4995L85.6921 95.7902H96.7312Z" fill="white"/>
<path d="M198.982 0V146H172.453L158.921 67.1244H157.497V146H133.46V0H159.989L173.521 78.8756H174.945V0H198.982Z" fill="white"/>
<path d="M237.847 124.99H263.664V146H206.332L233.574 21.0098H207.757V0H265.088L237.847 124.99Z" fill="white"/>
<path d="M324.963 0V20.8317H297.9V60.8927H322.293V81.5463H297.9V125.168H325.142V146H272.439V0H324.963Z" fill="white"/>
</svg>
