<svg width="850" height="133" viewBox="0 0 850 133" fill="none" xmlns="http://www.w3.org/2000/svg">
<path d="M809.419 93.5987C810.658 93.7894 811.659 94.3614 812.422 95.3147C813.28 96.2681 813.708 97.3644 813.708 98.6037C813.708 100.129 813.136 101.368 811.992 102.322C810.848 103.275 809.562 103.704 808.132 103.609C798.98 102.465 792.211 98.5561 787.826 91.8827C783.536 85.1141 781.391 76.6771 781.391 66.5717C781.391 56.4664 783.536 48.0771 787.826 41.4037C792.211 34.6351 798.98 30.6787 808.132 29.5347C809.562 29.3441 810.848 29.7731 811.992 30.8217C813.136 31.8704 813.708 33.1097 813.708 34.5397C813.708 35.8744 813.28 37.0184 812.422 37.9717C811.659 38.8297 810.658 39.3541 809.419 39.5447C798.36 41.1654 792.831 50.1744 792.831 66.5717C792.831 82.9691 798.36 91.9781 809.419 93.5987ZM819.857 39.5447C818.618 39.3541 817.569 38.7821 816.711 37.8287C815.949 36.8754 815.568 35.7791 815.568 34.5397C815.568 33.0144 816.14 31.7751 817.284 30.8217C818.428 29.8684 819.715 29.4394 821.145 29.5347C830.297 30.6787 837.017 34.6351 841.307 41.4037C845.693 48.0771 847.885 56.4664 847.885 66.5717C847.885 76.6771 845.693 85.1141 841.307 91.8827C837.017 98.5561 830.297 102.465 821.145 103.609C819.715 103.799 818.428 103.37 817.284 102.322C816.14 101.273 815.568 100.034 815.568 98.6037C815.568 97.2691 815.949 96.1727 816.711 95.3147C817.569 94.3614 818.618 93.7894 819.857 93.5987C830.916 91.9781 836.445 82.9691 836.445 66.5717C836.445 50.1744 830.916 41.1654 819.857 39.5447Z" fill="white"/>
<path d="M708.373 30.9644C709.708 30.9644 710.852 31.4887 711.805 32.5374C712.854 33.4907 713.378 34.6347 713.378 35.9694C713.378 37.3041 712.854 38.4957 711.805 39.5444C710.852 40.4977 709.708 40.9744 708.373 40.9744H692.643C691.309 40.9744 690.117 40.4977 689.068 39.5444C688.115 38.4957 687.638 37.3041 687.638 35.9694C687.638 34.6347 688.115 33.4907 689.068 32.5374C690.117 31.4887 691.309 30.9644 692.643 30.9644H708.373ZM756.421 85.0184C756.421 86.5437 755.849 87.8784 754.705 89.0224C753.657 90.1664 752.322 90.7384 750.701 90.7384C749.176 90.7384 747.841 90.1664 746.697 89.0224C745.553 87.8784 744.981 86.5437 744.981 85.0184V49.5544C744.981 42.4997 742.693 38.9724 738.117 38.9724C736.401 38.9724 734.828 39.2107 733.398 39.6874C731.968 40.1641 730.109 41.0221 727.821 42.2614L720.957 46.2654C720.099 46.8374 719.146 47.1234 718.097 47.1234C716.667 47.1234 715.428 46.5991 714.379 45.5504C713.426 44.5017 712.949 43.3101 712.949 41.9754C712.949 40.0687 713.712 38.6387 715.237 37.6854L722.101 33.6814C727.535 30.5354 732.874 28.9624 738.117 28.9624C743.742 28.9624 748.175 30.8214 751.416 34.5394C754.753 38.1621 756.421 43.1671 756.421 49.5544V85.0184ZM761.426 92.1684C762.761 92.1684 763.905 92.6927 764.858 93.7414C765.907 94.6947 766.431 95.8387 766.431 97.1734C766.431 98.5081 765.907 99.6997 764.858 100.748C763.905 101.702 762.761 102.178 761.426 102.178H739.976C738.642 102.178 737.45 101.702 736.401 100.748C735.448 99.6997 734.971 98.5081 734.971 97.1734C734.971 95.8387 735.448 94.6947 736.401 93.7414C737.45 92.6927 738.642 92.1684 739.976 92.1684H761.426ZM718.097 92.3114C719.432 92.3114 720.576 92.8357 721.529 93.8844C722.578 94.8377 723.102 95.9817 723.102 97.3164C723.102 98.6511 722.578 99.8427 721.529 100.891C720.576 101.845 719.432 102.321 718.097 102.321H696.647C695.313 102.321 694.121 101.845 693.072 100.891C692.119 99.8427 691.642 98.6511 691.642 97.3164C691.642 95.9817 692.119 94.8377 693.072 93.8844C694.121 92.8357 695.313 92.3114 696.647 92.3114H718.097ZM713.235 85.1614C713.235 86.6867 712.663 88.0214 711.519 89.1654C710.471 90.3094 709.136 90.8814 707.515 90.8814C705.99 90.8814 704.655 90.3094 703.511 89.1654C702.367 88.0214 701.795 86.6867 701.795 85.1614V47.9814C701.795 46.3607 702.367 45.0261 703.511 43.9774C704.655 42.8334 705.99 42.2614 707.515 42.2614C709.136 42.2614 710.471 42.8334 711.519 43.9774C712.663 45.0261 713.235 46.3607 713.235 47.9814V85.1614Z" fill="white"/>
<path d="M637.93 93.5987C639.17 93.7894 640.171 94.3614 640.933 95.3147C641.791 96.2681 642.22 97.3644 642.22 98.6037C642.22 100.129 641.648 101.368 640.504 102.322C639.36 103.275 638.073 103.704 636.643 103.609C627.491 102.465 620.723 98.5561 616.337 91.8827C612.047 85.1141 609.902 76.6771 609.902 66.5717C609.902 56.4664 612.047 48.0771 616.337 41.4037C620.723 34.6351 627.491 30.6787 636.643 29.5347C638.073 29.3441 639.36 29.7731 640.504 30.8217C641.648 31.8704 642.22 33.1097 642.22 34.5397C642.22 35.8744 641.791 37.0184 640.933 37.9717C640.171 38.8297 639.17 39.3541 637.93 39.5447C626.872 41.1654 621.342 50.1744 621.342 66.5717C621.342 82.9691 626.872 91.9781 637.93 93.5987ZM648.369 39.5447C647.13 39.3541 646.081 38.7821 645.223 37.8287C644.461 36.8754 644.079 35.7791 644.079 34.5397C644.079 33.0144 644.651 31.7751 645.795 30.8217C646.939 29.8684 648.226 29.4394 649.656 29.5347C658.808 30.6787 665.529 34.6351 669.819 41.4037C674.205 48.0771 676.397 56.4664 676.397 66.5717C676.397 76.6771 674.205 85.1141 669.819 91.8827C665.529 98.5561 658.808 102.465 649.656 103.609C648.226 103.799 646.939 103.37 645.795 102.322C644.651 101.273 644.079 100.034 644.079 98.6037C644.079 97.2691 644.461 96.1727 645.223 95.3147C646.081 94.3614 647.13 93.7894 648.369 93.5987C659.428 91.9781 664.957 82.9691 664.957 66.5717C664.957 50.1744 659.428 41.1654 648.369 39.5447Z" fill="white"/>
<path d="M542.462 92.3114C543.797 92.3114 544.941 92.8358 545.894 93.8844C546.943 94.8378 547.467 95.9818 547.467 97.3164C547.467 98.6511 546.943 99.8428 545.894 100.891C544.941 101.845 543.797 102.321 542.462 102.321H521.012C519.677 102.321 518.486 101.845 517.437 100.891C516.484 99.8428 516.007 98.6511 516.007 97.3164C516.007 95.9818 516.484 94.8378 517.437 93.8844C518.486 92.8358 519.677 92.3114 521.012 92.3114H542.462ZM593.942 92.3114C595.277 92.3114 596.421 92.8358 597.374 93.8844C598.423 94.8378 598.947 95.9818 598.947 97.3164C598.947 98.6511 598.423 99.8428 597.374 100.891C596.421 101.845 595.277 102.321 593.942 102.321H572.492C571.157 102.321 569.966 101.845 568.917 100.891C567.964 99.8428 567.487 98.6511 567.487 97.3164C567.487 95.9818 567.964 94.8378 568.917 93.8844C569.966 92.8358 571.157 92.3114 572.492 92.3114H593.942ZM537.457 85.1614C537.457 86.6868 536.885 88.0214 535.741 89.1654C534.692 90.3094 533.358 90.8814 531.737 90.8814C530.212 90.8814 528.877 90.3094 527.733 89.1654C526.589 88.0214 526.017 86.6868 526.017 85.1614V19.3814C526.017 17.7608 526.589 16.4261 527.733 15.3774C528.877 14.2334 530.212 13.6614 531.737 13.6614C533.358 13.6614 534.692 14.2334 535.741 15.3774C536.885 16.4261 537.457 17.7608 537.457 19.3814V85.1614ZM588.937 85.1614C588.937 86.6868 588.365 88.0214 587.221 89.1654C586.172 90.3094 584.838 90.8814 583.217 90.8814C581.692 90.8814 580.357 90.3094 579.213 89.1654C578.069 88.0214 577.497 86.6868 577.497 85.1614V19.3814C577.497 17.7608 578.069 16.4261 579.213 15.3774C580.357 14.2334 581.692 13.6614 583.217 13.6614C584.838 13.6614 586.172 14.2334 587.221 15.3774C588.365 16.4261 588.937 17.7608 588.937 19.3814V85.1614ZM593.799 2.22144C595.134 2.22144 596.278 2.74577 597.231 3.79444C598.28 4.74777 598.804 5.89177 598.804 7.22644C598.804 8.56111 598.28 9.75277 597.231 10.8014C596.278 11.7548 595.134 12.2314 593.799 12.2314H584.79C582.025 12.2314 579.928 12.8034 578.498 13.9474C577.163 14.9961 576.353 16.6168 576.067 18.8094L569.775 59.7074C569.298 63.0441 567.964 65.6658 565.771 67.5724C563.674 69.4791 560.909 70.4324 557.477 70.4324C554.045 70.4324 551.233 69.4791 549.04 67.5724C546.943 65.5704 545.656 62.9488 545.179 59.7074L538.887 18.8094C538.506 16.4261 537.6 14.7578 536.17 13.8044C534.835 12.7558 532.833 12.2314 530.164 12.2314H521.155C519.82 12.2314 518.629 11.7548 517.58 10.8014C516.627 9.75277 516.15 8.56111 516.15 7.22644C516.15 5.89177 516.627 4.74777 517.58 3.79444C518.629 2.74577 519.82 2.22144 521.155 2.22144H530.164C535.312 2.22144 539.745 3.46077 543.463 5.93944C547.181 8.32277 549.469 12.1361 550.327 17.3794L556.619 58.2774C556.714 59.0401 556.81 59.6121 556.905 59.9934C557 60.2794 557.191 60.4224 557.477 60.4224C557.763 60.4224 557.954 60.2794 558.049 59.9934C558.144 59.6121 558.24 59.0401 558.335 58.2774L564.627 17.3794C565.39 12.8034 567.487 9.1331 570.919 6.36844C574.446 3.60377 579.07 2.22144 584.79 2.22144H593.799Z" fill="white"/>
<path d="M411.729 50.9843C411.729 52.5096 411.157 53.8443 410.013 54.9883C408.964 56.1323 407.629 56.7043 406.009 56.7043C404.483 56.7043 403.149 56.1323 402.005 54.9883C400.861 53.8443 400.289 52.5096 400.289 50.9843C400.289 47.5523 399.431 45.0736 397.715 43.5483C395.999 41.9276 393.091 41.1173 388.992 41.1173H378.696C377.266 41.1173 376.026 40.6406 374.978 39.6873C374.024 38.6386 373.548 37.3993 373.548 35.9693C373.548 34.5393 374.024 33.3476 374.978 32.3943C376.026 31.3456 377.266 30.8213 378.696 30.8213H388.992C396.332 30.8213 401.957 32.6803 405.866 36.3983C409.774 40.021 411.729 44.883 411.729 50.9843ZM364.396 59.1353C360.868 59.1353 358.056 58.1343 355.959 56.1323C353.957 54.035 352.956 51.2226 352.956 47.6953C352.956 44.1679 353.957 41.4033 355.959 39.4013C358.056 37.304 360.868 36.2553 364.396 36.2553C367.923 36.2553 370.688 37.304 372.69 39.4013C374.787 41.4033 375.836 44.1679 375.836 47.6953C375.836 51.2226 374.787 54.035 372.69 56.1323C370.688 58.1343 367.923 59.1353 364.396 59.1353ZM424.885 92.3113C426.219 92.3113 427.363 92.8356 428.317 93.8843C429.365 94.8376 429.89 95.9816 429.89 97.3163C429.89 98.651 429.365 99.8426 428.317 100.891C427.363 101.845 426.219 102.321 424.885 102.321H417.878C412.539 102.321 408.344 100.844 405.294 97.8883C402.243 94.933 400.718 90.9289 400.718 85.8763V63.7113C400.718 62.0906 401.29 60.756 402.434 59.7073C403.578 58.5633 404.912 57.9913 406.438 57.9913C408.058 57.9913 409.393 58.5633 410.442 59.7073C411.586 60.756 412.158 62.0906 412.158 63.7113V85.8763C412.158 88.2596 412.587 89.928 413.445 90.8813C414.303 91.8346 415.78 92.3113 417.878 92.3113H424.885ZM391.566 84.8753C392.519 84.3033 393.472 84.0173 394.426 84.0173C395.856 84.0173 397.095 84.5416 398.144 85.5903C399.192 86.639 399.717 87.8783 399.717 89.3083C399.717 90.2616 399.478 91.1196 399.002 91.8823C398.62 92.645 398.048 93.2646 397.286 93.7413L387.991 99.0323C382.08 102.369 376.217 104.037 370.402 104.037C365.254 104.037 361.107 102.512 357.961 99.4613C354.815 96.4106 353.242 92.4066 353.242 87.4493C353.242 82.6826 354.529 78.7739 357.103 75.7233C359.677 72.6726 363.776 69.5743 369.401 66.4283L392.71 53.1293C393.663 52.5573 394.616 52.2713 395.57 52.2713C397 52.2713 398.239 52.7956 399.288 53.8443C400.336 54.893 400.861 56.1323 400.861 57.5623C400.861 59.469 400.05 60.9466 398.43 61.9953L375.121 75.2943C371.021 77.6776 368.257 79.6796 366.827 81.3003C365.397 82.921 364.682 84.9706 364.682 87.4493C364.682 89.642 365.111 91.2626 365.969 92.3113C366.922 93.2646 368.4 93.7413 370.402 93.7413C372.499 93.7413 374.453 93.4553 376.265 92.8833C378.076 92.3113 380.078 91.4056 382.271 90.1663L391.566 84.8753Z" fill="white"/>
<path d="M305.822 30.8216C306.203 30.4403 306.727 30.1066 307.395 29.8206C308.157 29.5346 308.872 29.3916 309.54 29.3916C311.065 29.3916 312.304 29.9159 313.258 30.9646C314.306 32.0133 314.831 33.2526 314.831 34.6826C314.831 35.3499 314.688 36.0649 314.402 36.8276C314.116 37.4949 313.734 38.0669 313.258 38.5436L300.102 49.6976C298.481 51.0323 297.385 52.3193 296.813 53.5586C296.241 54.7026 295.955 56.1803 295.955 57.9916V85.1616C295.955 86.6869 295.383 88.0216 294.239 89.1656C293.19 90.3096 291.855 90.8816 290.235 90.8816C288.709 90.8816 287.375 90.3096 286.231 89.1656C285.087 88.0216 284.515 86.6869 284.515 85.1616V57.9916C284.515 54.8456 285.134 52.0333 286.374 49.5546C287.613 47.0759 289.71 44.5496 292.666 41.9756L305.822 30.8216ZM310.827 92.3116C312.161 92.3116 313.305 92.8359 314.259 93.8846C315.307 94.8379 315.832 95.9819 315.832 97.3166C315.832 98.6513 315.307 99.843 314.259 100.892C313.305 101.845 312.161 102.322 310.827 102.322H269.357C268.022 102.322 266.83 101.845 265.782 100.892C264.828 99.843 264.352 98.6513 264.352 97.3166C264.352 95.9819 264.828 94.8379 265.782 93.8846C266.83 92.8359 268.022 92.3116 269.357 92.3116H310.827ZM326.557 52.5576C323.029 52.5576 320.217 51.5566 318.12 49.5546C316.118 47.4573 315.117 44.6449 315.117 41.1176C315.117 37.5903 316.118 34.8256 318.12 32.8236C320.217 30.7263 323.029 29.6776 326.557 29.6776C330.084 29.6776 332.849 30.7263 334.851 32.8236C336.948 34.8256 337.997 37.5903 337.997 41.1176C337.997 44.6449 336.948 47.4573 334.851 49.5546C332.849 51.5566 330.084 52.5576 326.557 52.5576ZM289.377 30.8216C290.711 30.8216 291.855 31.3459 292.809 32.3946C293.857 33.3479 294.382 34.4919 294.382 35.8266C294.382 37.1613 293.857 38.3529 292.809 39.4016C291.855 40.3549 290.711 40.8316 289.377 40.8316H267.927C266.592 40.8316 265.4 40.3549 264.352 39.4016C263.398 38.3529 262.922 37.1613 262.922 35.8266C262.922 34.4919 263.398 33.3479 264.352 32.3946C265.4 31.3459 266.592 30.8216 267.927 30.8216H289.377Z" fill="white"/>
<path d="M242.529 30.8216C243.863 30.8216 245.007 31.346 245.96 32.3946C247.009 33.3479 247.533 34.4919 247.533 35.8266C247.533 37.1613 247.009 38.3529 245.96 39.4016C245.007 40.3549 243.863 40.8316 242.529 40.8316H220.792C219.458 40.8316 218.266 40.3549 217.217 39.4016C216.264 38.3529 215.787 37.1613 215.787 35.8266C215.787 34.4919 216.264 33.3479 217.217 32.3946C218.266 31.346 219.458 30.8216 220.792 30.8216H242.529ZM182.468 40.8316C181.134 40.8316 179.942 40.3549 178.893 39.4016C177.94 38.3529 177.464 37.1613 177.464 35.8266C177.464 34.4919 177.94 33.3479 178.893 32.3946C179.942 31.346 181.134 30.8216 182.468 30.8216C188.57 30.8216 193.193 30.0113 196.339 28.3906C199.581 26.7699 201.773 24.2436 202.917 20.8116C204.157 17.3796 204.776 12.5176 204.776 6.22561C204.776 4.60495 205.348 3.27028 206.492 2.22161C207.636 1.07761 208.971 0.505615 210.496 0.505615C212.117 0.505615 213.452 1.07761 214.501 2.22161C215.645 3.27028 216.216 4.60495 216.216 6.22561C216.216 17.6656 213.738 26.2933 208.781 32.1086C203.823 37.9239 195.052 40.8316 182.468 40.8316ZM237.094 73.8646C237.571 72.9113 238.238 72.1963 239.096 71.7196C239.954 71.1476 240.908 70.8616 241.956 70.8616C243.482 70.8616 244.769 71.4336 245.818 72.5776C246.962 73.6263 247.533 74.9133 247.533 76.4386C247.533 77.392 247.295 78.2499 246.818 79.0126L241.385 88.0216C239.097 91.8349 237.142 94.7903 235.521 96.8876C233.901 98.9849 231.803 100.749 229.229 102.179C226.655 103.609 223.557 104.324 219.934 104.324C214.214 104.324 210.115 102.465 207.636 98.7466C205.253 95.0286 204.061 89.2609 204.061 81.4436L203.919 42.2616C203.919 40.6409 204.49 39.3063 205.634 38.2576C206.778 37.1136 208.113 36.5416 209.638 36.5416C211.164 36.5416 212.499 37.1136 213.643 38.2576C214.787 39.3063 215.359 40.6409 215.359 42.2616L215.501 81.4436C215.501 85.0663 215.597 87.7833 215.787 89.5946C216.073 91.3106 216.502 92.5499 217.074 93.3126C217.742 93.9799 218.695 94.3136 219.934 94.3136C221.555 94.3136 222.985 93.8846 224.225 93.0266C225.464 92.1686 226.656 90.834 227.799 89.0226C229.039 87.116 230.326 85.0663 231.66 82.8736L237.094 73.8646Z" fill="white"/>
<path d="M100.586 125.201C97.0582 125.201 94.2458 124.153 92.1485 122.055C90.1465 120.053 89.1455 117.289 89.1455 113.761C89.1455 110.234 90.1465 107.422 92.1485 105.324C94.2458 103.322 97.0582 102.321 100.586 102.321C104.113 102.321 106.878 103.322 108.88 105.324C110.977 107.422 112.026 110.234 112.026 113.761C112.026 117.289 110.977 120.053 108.88 122.055C106.878 124.153 104.113 125.201 100.586 125.201ZM112.741 132.494C111.406 132.494 110.214 131.97 109.166 130.921C108.212 129.968 107.736 128.824 107.736 127.489C107.736 126.155 108.212 124.963 109.166 123.914C110.214 122.961 111.406 122.484 112.741 122.484C115.982 122.484 118.604 121.388 120.606 119.195C122.608 117.098 123.609 113.666 123.609 108.899C123.609 107.374 124.181 106.039 125.325 104.895C126.469 103.751 127.803 103.179 129.329 103.179C130.949 103.179 132.284 103.751 133.333 104.895C134.477 106.039 135.049 107.374 135.049 108.899C135.049 116.717 132.856 122.58 128.471 126.488C124.181 130.492 118.937 132.494 112.741 132.494ZM116.459 30.8213C117.793 30.8213 118.937 31.3456 119.891 32.3943C120.939 33.3476 121.464 34.4916 121.464 35.8263C121.464 37.161 120.939 38.3526 119.891 39.4013C118.937 40.3546 117.793 40.8313 116.459 40.8313H95.0085C93.6738 40.8313 92.4822 40.3546 91.4335 39.4013C90.4802 38.3526 90.0035 37.161 90.0035 35.8263C90.0035 34.4916 90.4802 33.3476 91.4335 32.3943C92.4822 31.3456 93.6738 30.8213 95.0085 30.8213H116.459ZM162.219 30.8213C163.553 30.8213 164.697 31.3456 165.651 32.3943C166.699 33.3476 167.224 34.4916 167.224 35.8263C167.224 37.161 166.699 38.3526 165.651 39.4013C164.697 40.3546 163.553 40.8313 162.219 40.8313H140.769C139.434 40.8313 138.242 40.3546 137.194 39.4013C136.24 38.3526 135.764 37.161 135.764 35.8263C135.764 34.4916 136.24 33.3476 137.194 32.3943C138.242 31.3456 139.434 30.8213 140.769 30.8213H162.219ZM141.341 99.7473C141.055 100.891 140.387 101.892 139.339 102.75C138.29 103.608 137.146 104.037 135.907 104.037C134.381 104.037 133.047 103.465 131.903 102.321C130.854 101.273 130.33 99.9856 130.33 98.4603C130.33 97.7929 130.377 97.2686 130.473 96.8873L144.773 46.5513C145.059 45.4073 145.726 44.4063 146.775 43.5483C147.823 42.6903 148.967 42.2613 150.207 42.2613C151.732 42.2613 153.019 42.8333 154.068 43.9773C155.212 45.026 155.784 46.313 155.784 47.8383C155.784 48.5056 155.736 49.03 155.641 49.4113L141.341 99.7473ZM102.588 49.4113C102.492 49.03 102.445 48.5056 102.445 47.8383C102.445 46.313 102.969 45.026 104.018 43.9773C105.162 42.8333 106.496 42.2613 108.022 42.2613C109.261 42.2613 110.405 42.6903 111.454 43.5483C112.502 44.311 113.17 45.312 113.456 46.5513L128.471 96.8873C128.566 97.2686 128.614 97.7929 128.614 98.4603C128.614 99.9856 128.042 101.273 126.898 102.321C125.849 103.465 124.562 104.037 123.037 104.037C121.797 104.037 120.653 103.608 119.605 102.75C118.556 101.988 117.889 100.987 117.603 99.7473L102.588 49.4113Z" fill="white"/>
<path d="M28.5693 92.3114C29.9039 92.3114 31.0479 92.8358 32.0013 93.8844C33.0499 94.8378 33.5743 95.9818 33.5743 97.3164C33.5743 98.6511 33.0499 99.8428 32.0013 100.891C31.0479 101.845 29.9039 102.321 28.5693 102.321H7.11926C5.78459 102.321 4.59292 101.845 3.54426 100.891C2.59092 99.8428 2.11426 98.6511 2.11426 97.3164C2.11426 95.9818 2.59092 94.8378 3.54426 93.8844C4.59292 92.8358 5.78459 92.3114 7.11926 92.3114H28.5693ZM12.1243 19.3814C12.1243 17.7608 12.6963 16.4261 13.8403 15.3774C14.9843 14.2334 16.3189 13.6614 17.8443 13.6614C19.4649 13.6614 20.7996 14.2334 21.8483 15.3774C22.9923 16.4261 23.5643 17.7608 23.5643 19.3814V85.1614C23.5643 86.6868 22.9923 88.0214 21.8483 89.1654C20.7996 90.3094 19.4649 90.8814 17.8443 90.8814C16.3189 90.8814 14.9843 90.3094 13.8403 89.1654C12.6963 88.0214 12.1243 86.6868 12.1243 85.1614V19.3814ZM78.7623 2.22144C80.0969 2.22144 81.2409 2.74577 82.1943 3.79444C83.2429 4.74777 83.7673 5.89177 83.7673 7.22644C83.7673 8.56111 83.2429 9.75277 82.1943 10.8014C81.2409 11.7548 80.0969 12.2314 78.7623 12.2314H57.3123C55.9776 12.2314 54.7859 11.7548 53.7373 10.8014C52.7839 9.75277 52.3073 8.56111 52.3073 7.22644C52.3073 5.89177 52.7839 4.74777 53.7373 3.79444C54.7859 2.74577 55.9776 2.22144 57.3123 2.22144H78.7623ZM73.7573 98.1744C73.7573 99.6998 73.1853 101.034 72.0413 102.178C70.9926 103.322 69.6579 103.894 68.0373 103.894C66.5119 103.894 65.1773 103.322 64.0333 102.178C62.8893 101.034 62.3173 99.6998 62.3173 98.1744V19.3814C62.3173 17.7608 62.8893 16.4261 64.0333 15.3774C65.1773 14.2334 66.5119 13.6614 68.0373 13.6614C69.6579 13.6614 70.9926 14.2334 72.0413 15.3774C73.1853 16.4261 73.7573 17.7608 73.7573 19.3814V98.1744ZM8.69226 12.2314C7.35759 12.2314 6.16592 11.7548 5.11726 10.8014C4.16392 9.75277 3.68726 8.56111 3.68726 7.22644C3.68726 5.89177 4.16392 4.74777 5.11726 3.79444C6.16592 2.74577 7.35759 2.22144 8.69226 2.22144H18.9883C23.0876 2.22144 26.6626 3.36544 29.7133 5.65343C32.7639 7.8461 34.9089 10.9444 36.1483 14.9484L60.6013 96.8874C60.6966 97.2688 60.7443 97.7931 60.7443 98.4604C60.7443 99.9858 60.1723 101.273 59.0283 102.321C57.9796 103.465 56.6926 104.037 55.1673 104.037C53.9279 104.037 52.7839 103.608 51.7353 102.75C50.6866 101.988 50.0193 100.987 49.7333 99.7474L25.2803 17.8084C24.7083 15.7111 23.8979 14.2811 22.8493 13.5184C21.8959 12.6604 20.6089 12.2314 18.9883 12.2314H8.69226Z" fill="white"/>
</svg>
