<svg width="526" height="146" viewBox="0 0 526 146" fill="none" xmlns="http://www.w3.org/2000/svg">
<path d="M493.308 124.842C495.092 124.842 496.367 124.269 497.132 123.122C498.024 121.847 498.47 119.935 498.47 117.386C498.47 113.817 497.004 108.401 494.073 101.136H523.324C524.726 106.489 525.427 111.268 525.427 115.474C525.427 125.543 522.623 133.127 517.015 138.225C511.534 143.323 503.632 145.872 493.308 145.872C481.582 145.872 471.067 141.794 461.763 133.637C452.459 125.479 445.258 115.729 440.16 104.386C435.061 92.9149 432.512 82.7823 432.512 73.9879C432.512 63.919 435.253 56.4629 440.733 51.6197C446.341 46.6489 454.243 44.1636 464.44 44.1636C475.018 44.1636 484.641 47.6048 493.308 54.4874C501.975 61.3699 509.176 70.0368 514.912 80.4881H482.984C475.974 70.2917 469.793 65.1935 464.44 65.1935C462.783 65.1935 461.508 65.9583 460.616 67.4877C459.724 68.8897 459.278 70.6741 459.278 72.8408C459.278 76.7919 461.126 83.1009 464.822 91.7678C468.646 100.307 473.17 107.954 478.396 114.71C483.749 121.465 488.72 124.842 493.308 124.842Z" fill="white"/>
<path d="M426.525 142.623H399.759V47.0324H426.525V142.623ZM413.142 41.8705C406.642 41.8705 401.543 40.0224 397.847 36.3262C394.151 32.63 392.303 27.5318 392.303 21.0317C392.303 14.5315 394.151 9.43332 397.847 5.73714C401.543 2.04096 406.642 0.192871 413.142 0.192871C419.642 0.192871 424.74 2.04096 428.436 5.73714C432.132 9.43332 433.981 14.5315 433.981 21.0317C433.981 27.5318 432.132 32.63 428.436 36.3262C424.74 40.0224 419.642 41.8705 413.142 41.8705Z" fill="white"/>
<path d="M402.241 47.0307V72.2666H368.02L335.328 142.621H306.651L339.343 72.2666H304.165V47.0307H327.872C324.176 38.4912 322.328 31.0351 322.328 24.6624C322.328 16.8877 324.749 10.8336 329.592 6.50018C334.563 2.16673 341.509 0 350.431 0C358.461 0 365.407 0.955911 371.27 2.86773C377.133 4.65209 382.55 7.90218 387.52 12.618C392.619 17.3338 397.589 24.0252 402.433 32.692H370.696C368.657 29.2508 366.554 26.7654 364.387 25.236C362.221 23.7065 359.863 22.9418 357.314 22.9418C353.872 22.9418 352.152 24.6624 352.152 28.1037C352.152 31.4175 353.872 36.7069 357.314 43.9718L358.652 47.0307H379.873H402.241Z" fill="white"/>
<path d="M298.56 142.623H271.794V47.0324H298.56V142.623ZM285.177 41.8705C278.677 41.8705 273.579 40.0224 269.882 36.3262C266.186 32.63 264.338 27.5318 264.338 21.0317C264.338 14.5315 266.186 9.43332 269.882 5.73714C273.579 2.04096 278.677 0.192871 285.177 0.192871C291.677 0.192871 296.775 2.04096 300.471 5.73714C304.168 9.43332 306.016 14.5315 306.016 21.0317C306.016 27.5318 304.168 32.63 300.471 36.3262C296.775 40.0224 291.677 41.8705 285.177 41.8705Z" fill="white"/>
<path d="M233.779 124.842C235.564 124.842 236.838 124.269 237.603 123.122C238.495 121.847 238.941 119.935 238.941 117.386C238.941 113.817 237.475 108.401 234.544 101.136H263.795C265.197 106.489 265.898 111.268 265.898 115.474C265.898 125.543 263.094 133.127 257.486 138.225C252.005 143.323 244.103 145.872 233.779 145.872C222.053 145.872 211.538 141.794 202.234 133.637C192.93 125.479 185.729 115.729 180.631 104.386C175.532 92.9149 172.983 82.7823 172.983 73.9879C172.983 63.919 175.724 56.4629 181.204 51.6197C186.812 46.6489 194.714 44.1636 204.911 44.1636C215.489 44.1636 225.112 47.6048 233.779 54.4874C242.446 61.3699 249.647 70.0368 255.383 80.4881H223.455C216.445 70.2917 210.264 65.1935 204.911 65.1935C203.254 65.1935 201.979 65.9583 201.087 67.4877C200.195 68.8897 199.749 70.6741 199.749 72.8408C199.749 76.7919 201.597 83.1009 205.293 91.7678C209.117 100.307 213.641 107.954 218.867 114.71C224.22 121.465 229.191 124.842 233.779 124.842Z" fill="white"/>
<path d="M123.2 145.679C110.964 145.679 101.596 141.473 95.0962 133.061C88.596 124.649 85.3459 111.904 85.3459 94.825C85.3459 77.7461 88.596 65.0007 95.0962 56.5887C101.596 48.1767 110.964 43.9707 123.2 43.9707C133.906 43.9707 142.446 47.2208 148.818 53.721C155.191 60.2211 159.078 70.0989 160.48 83.3541L188.202 142.62H161.436L154.554 127.899C148.308 139.753 137.857 145.679 123.2 145.679ZM123.2 124.649C130.592 124.649 134.288 114.708 134.288 94.825C134.288 74.9421 130.592 65.0007 123.2 65.0007C115.808 65.0007 112.111 74.9421 112.111 94.825C112.111 114.708 115.808 124.649 123.2 124.649Z" fill="white"/>
<path d="M13.5739 3.06055H26.7654H31.545C47.9866 3.06055 60.3496 7.71263 68.6342 17.0168C76.9187 26.321 81.061 39.8311 81.061 57.5473V57.7385C81.061 75.4546 76.9187 88.9648 68.6342 98.269C60.3496 107.573 47.9866 112.225 31.545 112.225H26.7654V142.623H0V95.0189V50.6647V3.06055H13.5739ZM31.545 89.2834C39.8295 89.2834 45.6924 86.9255 49.1337 82.2097C52.5749 77.4939 54.2956 69.2731 54.2956 57.5473C54.2956 45.9489 52.5749 37.7919 49.1337 33.0761C45.6924 28.3602 39.8295 26.0023 31.545 26.0023H26.7654V50.6647V89.2834H31.545Z" fill="white"/>
</svg>
