<svg width="1038" height="61" viewBox="0 0 1038 61" fill="none" xmlns="http://www.w3.org/2000/svg">
<path d="M28.1725 31.9512C28.1725 33.5833 27.9005 34.9198 27.3564 35.9606C26.8124 37.0014 25.9372 37.782 24.7308 38.3024C23.5481 38.7992 21.975 39.0475 20.0117 39.0475H11.4961C9.53277 39.0475 7.94792 38.7992 6.74154 38.3024C5.55881 37.782 4.69542 37.0014 4.15137 35.9606C3.60731 34.9198 3.33529 33.5833 3.33529 31.9512V28.403C3.33529 26.7708 3.60731 25.4344 4.15137 24.3936C4.69542 23.3528 5.55881 22.584 6.74154 22.0872C7.94792 21.5668 9.53277 21.3066 11.4961 21.3066H20.0117C21.975 21.3066 23.5481 21.5668 24.7308 22.0872C25.9372 22.584 26.8124 23.3528 27.3564 24.3936C27.9005 25.4344 28.1725 26.7708 28.1725 28.403V31.9512ZM110.1 31.9512C110.1 33.5833 109.828 34.9198 109.284 35.9606C108.74 37.0014 107.865 37.782 106.658 38.3024C105.475 38.7992 103.902 39.0475 101.939 39.0475H93.4235C91.4602 39.0475 89.8753 38.7992 88.6689 38.3024C87.4862 37.782 86.6228 37.0014 86.0788 35.9606C85.5347 34.9198 85.2627 33.5833 85.2627 31.9512V28.403C85.2627 26.7708 85.5347 25.4344 86.0788 24.3936C86.6228 23.3528 87.4862 22.584 88.6689 22.0872C89.8753 21.5668 91.4602 21.3066 93.4235 21.3066H101.939C103.902 21.3066 105.475 21.5668 106.658 22.0872C107.865 22.584 108.74 23.3528 109.284 24.3936C109.828 25.4344 110.1 26.7708 110.1 28.403V31.9512ZM98.0006 21.3066V39.0475H13.8734V21.3066H98.0006ZM120.461 24.9258C120.461 26.5579 120.189 27.8944 119.645 28.9352C119.1 29.976 118.225 30.7566 117.019 31.277C115.836 31.7738 114.263 32.0221 112.3 32.0221H103.784C101.821 32.0221 100.236 31.7738 99.0296 31.277C97.8469 30.7566 96.9835 29.976 96.4395 28.9352C95.8954 27.8944 95.6234 26.5579 95.6234 24.9258V21.3776C95.6234 19.7454 95.8954 18.409 96.4395 17.3682C96.9835 16.3274 97.8469 15.5586 99.0296 15.0618C100.236 14.5414 101.821 14.2812 103.784 14.2812H112.3C114.263 14.2812 115.836 14.5414 117.019 15.0618C118.225 15.5586 119.1 16.3274 119.645 17.3682C120.189 18.409 120.461 19.7454 120.461 21.3776V24.9258ZM120.461 17.7939C120.461 19.4261 120.189 20.7626 119.645 21.8034C119.1 22.8442 118.225 23.6248 117.019 24.1452C115.836 24.6419 114.263 24.8903 112.3 24.8903H103.784C101.821 24.8903 100.236 24.6419 99.0296 24.1452C97.8469 23.6248 96.9835 22.8442 96.4395 21.8034C95.8954 20.7626 95.6234 19.4261 95.6234 17.7939V14.2458C95.6234 12.6136 95.8954 11.2771 96.4395 10.2363C96.9835 9.19553 97.8469 8.42676 99.0296 7.93001C100.236 7.40961 101.821 7.14941 103.784 7.14941H112.3C114.263 7.14941 115.836 7.40961 117.019 7.93001C118.225 8.42676 119.1 9.19553 119.645 10.2363C120.189 11.2771 120.461 12.6136 120.461 14.2458V17.7939ZM28.1725 10.6621C28.1725 12.2943 27.9005 13.6307 27.3564 14.6715C26.8124 15.7123 25.9372 16.4929 24.7308 17.0133C23.5481 17.5101 21.975 17.7585 20.0117 17.7585H11.4961C9.53277 17.7585 7.94792 17.5101 6.74154 17.0133C5.55881 16.4929 4.69542 15.7123 4.15137 14.6715C3.60731 13.6307 3.33529 12.2943 3.33529 10.6621V7.11393C3.33529 5.48177 3.60731 4.14529 4.15137 3.10449C4.69542 2.06369 5.55881 1.29492 6.74154 0.798176C7.94792 0.277777 9.53277 0.0175781 11.4961 0.0175781H20.0117C21.975 0.0175781 23.5481 0.277777 24.7308 0.798176C25.9372 1.29492 26.8124 2.06369 27.3564 3.10449C27.9005 4.14529 28.1725 5.48177 28.1725 7.11393V10.6621ZM110.1 10.6621C110.1 12.2943 109.828 13.6307 109.284 14.6715C108.74 15.7123 107.865 16.4929 106.658 17.0133C105.475 17.5101 103.902 17.7585 101.939 17.7585H93.4235C91.4602 17.7585 89.8753 17.5101 88.6689 17.0133C87.4862 16.4929 86.6228 15.7123 86.0788 14.6715C85.5347 13.6307 85.2627 12.2943 85.2627 10.6621V7.11393C85.2627 5.48177 85.5347 4.14529 86.0788 3.10449C86.6228 2.06369 87.4862 1.29492 88.6689 0.798176C89.8753 0.277777 91.4602 0.0175781 93.4235 0.0175781H101.939C103.902 0.0175781 105.475 0.277777 106.658 0.798176C107.865 1.29492 108.74 2.06369 109.284 3.10449C109.828 4.14529 110.1 5.48177 110.1 7.11393V10.6621ZM98.0006 0.0175781V17.7585H13.8734V0.0175781H98.0006ZM24.8372 21.2712C24.8372 22.9033 24.5652 24.2398 24.0212 25.2806C23.4771 26.3214 22.6019 27.102 21.3955 27.6224C20.2128 28.1191 18.6398 28.3675 16.6764 28.3675H8.16081C6.19748 28.3675 4.61263 28.1191 3.40625 27.6224C2.22352 27.102 1.36013 26.3214 0.81608 25.2806C0.272026 24.2398 0 22.9033 0 21.2712V17.723C0 16.0908 0.272026 14.7543 0.81608 13.7135C1.36013 12.6727 2.22352 11.904 3.40625 11.4072C4.61263 10.8868 6.19748 10.6266 8.16081 10.6266H16.6764C18.6398 10.6266 20.2128 10.8868 21.3955 11.4072C22.6019 11.904 23.4771 12.6727 24.0212 13.7135C24.5652 14.7543 24.8372 16.0908 24.8372 17.723V21.2712ZM24.8372 10.6621C24.8372 12.2943 24.5652 13.6307 24.0212 14.6715C23.4771 15.7123 22.6019 16.4929 21.3955 17.0133C20.2128 17.5101 18.6398 17.7585 16.6764 17.7585H8.16081C6.19748 17.7585 4.61263 17.5101 3.40625 17.0133C2.22352 16.4929 1.36013 15.7123 0.81608 14.6715C0.272026 13.6307 0 12.2943 0 10.6621V7.11393C0 5.48177 0.272026 4.14529 0.81608 3.10449C1.36013 2.06369 2.22352 1.29492 3.40625 0.798176C4.61263 0.277777 6.19748 0.0175781 8.16081 0.0175781H16.6764C18.6398 0.0175781 20.2128 0.277777 21.3955 0.798176C22.6019 1.29492 23.4771 2.06369 24.0212 3.10449C24.5652 4.14529 24.8372 5.48177 24.8372 7.11393V10.6621ZM24.8372 42.6667C24.8372 44.2988 24.5652 45.6353 24.0212 46.6761C23.4771 47.7169 22.6019 48.4975 21.3955 49.0179C20.2128 49.5146 18.6398 49.763 16.6764 49.763H8.16081C6.19748 49.763 4.61263 49.5146 3.40625 49.0179C2.22352 48.4975 1.36013 47.7169 0.81608 46.6761C0.272026 45.6353 0 44.2988 0 42.6667V39.1185C0 37.4863 0.272026 36.1498 0.81608 35.109C1.36013 34.0682 2.22352 33.2995 3.40625 32.8027C4.61263 32.2823 6.19748 32.0221 8.16081 32.0221H16.6764C18.6398 32.0221 20.2128 32.2823 21.3955 32.8027C22.6019 33.2995 23.4771 34.0682 24.0212 35.109C24.5652 36.1498 24.8372 37.4863 24.8372 39.1185V42.6667ZM24.8372 53.2402C24.8372 54.8724 24.5652 56.2089 24.0212 57.2497C23.4771 58.2905 22.6019 59.0711 21.3955 59.5915C20.2128 60.0882 18.6398 60.3366 16.6764 60.3366H8.16081C6.19748 60.3366 4.61263 60.0882 3.40625 59.5915C2.22352 59.0711 1.36013 58.2905 0.81608 57.2497C0.272026 56.2089 0 54.8724 0 53.2402V49.6921C0 48.0599 0.272026 46.7234 0.81608 45.6826C1.36013 44.6418 2.22352 43.873 3.40625 43.3763C4.61263 42.8559 6.19748 42.5957 8.16081 42.5957H16.6764C18.6398 42.5957 20.2128 42.8559 21.3955 43.3763C22.6019 43.873 23.4771 44.6418 24.0212 45.6826C24.5652 46.7234 24.8372 48.0599 24.8372 49.6921V53.2402ZM24.8372 31.9867C24.8372 33.6188 24.5652 34.9553 24.0212 35.9961C23.4771 37.0369 22.6019 37.8175 21.3955 38.3379C20.2128 38.8346 18.6398 39.083 16.6764 39.083H8.16081C6.19748 39.083 4.61263 38.8346 3.40625 38.3379C2.22352 37.8175 1.36013 37.0369 0.81608 35.9961C0.272026 34.9553 0 33.6188 0 31.9867V28.4385C0 26.8063 0.272026 25.4698 0.81608 24.429C1.36013 23.3882 2.22352 22.6195 3.40625 22.1227C4.61263 21.6023 6.19748 21.3421 8.16081 21.3421H16.6764C18.6398 21.3421 20.2128 21.6023 21.3955 22.1227C22.6019 22.6195 23.4771 23.3882 24.0212 24.429C24.5652 25.4698 24.8372 26.8063 24.8372 28.4385V31.9867Z" fill="white"/>
<path d="M156.298 39.0475C156.298 40.6797 156.026 42.0162 155.482 43.057C154.938 44.0978 154.063 44.8784 152.856 45.3988C151.673 45.8955 150.1 46.1439 148.137 46.1439H139.622C137.658 46.1439 136.073 45.8955 134.867 45.3988C133.684 44.8784 132.821 44.0978 132.277 43.057C131.733 42.0162 131.461 40.6797 131.461 39.0475V35.4993C131.461 33.8672 131.733 32.5307 132.277 31.4899C132.821 30.4491 133.684 29.6803 134.867 29.1836C136.073 28.6632 137.658 28.403 139.622 28.403H148.137C150.1 28.403 151.673 28.6632 152.856 29.1836C154.063 29.6803 154.938 30.4491 155.482 31.4899C156.026 32.5307 156.298 33.8672 156.298 35.4993V39.0475ZM156.298 24.7484C156.298 26.3805 156.026 27.717 155.482 28.7578C154.938 29.7986 154.063 30.5792 152.856 31.0996C151.673 31.5964 150.1 31.8447 148.137 31.8447H139.622C137.658 31.8447 136.073 31.5964 134.867 31.0996C133.684 30.5792 132.821 29.7986 132.277 28.7578C131.733 27.717 131.461 26.3805 131.461 24.7484V21.2002C131.461 19.568 131.733 18.2316 132.277 17.1908C132.821 16.15 133.684 15.3812 134.867 14.8844C136.073 14.364 137.658 14.1038 139.622 14.1038H148.137C150.1 14.1038 151.673 14.364 152.856 14.8844C154.063 15.3812 154.938 16.15 155.482 17.1908C156.026 18.2316 156.298 19.568 156.298 21.2002V24.7484ZM163.394 46.1439C163.394 47.776 163.122 49.1125 162.578 50.1533C162.034 51.1941 161.159 51.9747 159.953 52.4951C158.77 52.9919 157.197 53.2402 155.233 53.2402H146.718C144.755 53.2402 143.17 52.9919 141.963 52.4951C140.781 51.9747 139.917 51.1941 139.373 50.1533C138.829 49.1125 138.557 47.776 138.557 46.1439V42.5957C138.557 40.9635 138.829 39.6271 139.373 38.5863C139.917 37.5455 140.781 36.7767 141.963 36.2799C143.17 35.7595 144.755 35.4993 146.718 35.4993H155.233C157.197 35.4993 158.77 35.7595 159.953 36.2799C161.159 36.7767 162.034 37.5455 162.578 38.5863C163.122 39.6271 163.394 40.9635 163.394 42.5957V46.1439ZM156.298 10.6621C156.298 12.2943 156.026 13.6308 155.482 14.6716C154.938 15.7123 154.063 16.4929 152.856 17.0133C151.673 17.5101 150.1 17.7585 148.137 17.7585H139.622C137.658 17.7585 136.073 17.5101 134.867 17.0133C133.684 16.4929 132.821 15.7123 132.277 14.6716C131.733 13.6308 131.461 12.2943 131.461 10.6621V7.11393C131.461 5.48177 131.733 4.14529 132.277 3.10449C132.821 2.06369 133.684 1.29492 134.867 0.798178C136.073 0.277778 137.658 0.0175781 139.622 0.0175781H148.137C150.1 0.0175781 151.673 0.277778 152.856 0.798178C154.063 1.29492 154.938 2.06369 155.482 3.10449C156.026 4.14529 156.298 5.48177 156.298 7.11393V10.6621ZM177.729 53.2402C177.729 54.8724 177.457 56.2089 176.913 57.2497C176.369 58.2905 175.494 59.0711 174.287 59.5915C173.104 60.0882 171.531 60.3366 169.568 60.3366H161.052C159.089 60.3366 157.504 60.0882 156.298 59.5915C155.115 59.0711 154.252 58.2905 153.708 57.2497C153.164 56.2089 152.892 54.8724 152.892 53.2402V49.6921C152.892 48.0599 153.164 46.7234 153.708 45.6826C154.252 44.6418 155.115 43.873 156.298 43.3763C157.504 42.8559 159.089 42.5957 161.052 42.5957H169.568C171.531 42.5957 173.104 42.8559 174.287 43.3763C175.494 43.873 176.369 44.6418 176.913 45.6826C177.457 46.7234 177.729 48.0599 177.729 49.6921V53.2402ZM213.282 53.2402C213.282 54.8724 213.01 56.2089 212.466 57.2497C211.922 58.2905 211.046 59.0711 209.84 59.5915C208.657 60.0882 207.084 60.3366 205.121 60.3366H196.605C194.642 60.3366 193.057 60.0882 191.851 59.5915C190.668 59.0711 189.805 58.2905 189.26 57.2497C188.716 56.2089 188.444 54.8724 188.444 53.2402V49.6921C188.444 48.0599 188.716 46.7234 189.26 45.6826C189.805 44.6418 190.668 43.873 191.851 43.3763C193.057 42.8559 194.642 42.5957 196.605 42.5957H205.121C207.084 42.5957 208.657 42.8559 209.84 43.3763C211.046 43.873 211.922 44.6418 212.466 45.6826C213.01 46.7234 213.282 48.0599 213.282 49.6921V53.2402ZM199.763 42.5957V60.3366H165.417V42.5957H199.763ZM225.771 35.4993C225.771 33.8672 226.043 32.5307 226.587 31.4899C227.131 30.4491 227.995 29.6803 229.177 29.1836C230.384 28.6632 231.969 28.403 233.932 28.403H242.448C244.411 28.403 245.984 28.6632 247.167 29.1836C248.373 29.6803 249.248 30.4491 249.792 31.4899C250.336 32.5307 250.608 33.8672 250.608 35.4993V39.0475C250.608 40.6797 250.336 42.0162 249.792 43.057C249.248 44.0978 248.373 44.8784 247.167 45.3988C245.984 45.8955 244.411 46.1439 242.448 46.1439H233.932C231.969 46.1439 230.384 45.8955 229.177 45.3988C227.995 44.8784 227.131 44.0978 226.587 43.057C226.043 42.0162 225.771 40.6797 225.771 39.0475V35.4993ZM225.771 21.2002C225.771 19.568 226.043 18.2316 226.587 17.1908C227.131 16.15 227.995 15.3812 229.177 14.8844C230.384 14.364 231.969 14.1038 233.932 14.1038H242.448C244.411 14.1038 245.984 14.364 247.167 14.8844C248.373 15.3812 249.248 16.15 249.792 17.1908C250.336 18.2316 250.608 19.568 250.608 21.2002V24.7484C250.608 26.3805 250.336 27.717 249.792 28.7578C249.248 29.7986 248.373 30.5792 247.167 31.0996C245.984 31.5964 244.411 31.8447 242.448 31.8447H233.932C231.969 31.8447 230.384 31.5964 229.177 31.0996C227.995 30.5792 227.131 29.7986 226.587 28.7578C226.043 27.717 225.771 26.3805 225.771 24.7484V21.2002ZM218.675 42.5957C218.675 40.9635 218.947 39.6271 219.491 38.5863C220.035 37.5455 220.898 36.7767 222.081 36.2799C223.288 35.7595 224.872 35.4993 226.836 35.4993H235.351C237.315 35.4993 238.888 35.7595 240.07 36.2799C241.277 36.7767 242.152 37.5455 242.696 38.5863C243.24 39.6271 243.512 40.9635 243.512 42.5957V46.1439C243.512 47.776 243.24 49.1125 242.696 50.1533C242.152 51.1941 241.277 51.9747 240.07 52.4951C238.888 52.9919 237.315 53.2402 235.351 53.2402H226.836C224.872 53.2402 223.288 52.9919 222.081 52.4951C220.898 51.9747 220.035 51.1941 219.491 50.1533C218.947 49.1125 218.675 47.776 218.675 46.1439V42.5957ZM225.771 7.11393C225.771 5.48177 226.043 4.14529 226.587 3.10449C227.131 2.06369 227.995 1.29492 229.177 0.798178C230.384 0.277778 231.969 0.0175781 233.932 0.0175781H242.448C244.411 0.0175781 245.984 0.277778 247.167 0.798178C248.373 1.29492 249.248 2.06369 249.792 3.10449C250.336 4.14529 250.608 5.48177 250.608 7.11393V10.6621C250.608 12.2943 250.336 13.6308 249.792 14.6716C249.248 15.7123 248.373 16.4929 247.167 17.0133C245.984 17.5101 244.411 17.7585 242.448 17.7585H233.932C231.969 17.7585 230.384 17.5101 229.177 17.0133C227.995 16.4929 227.131 15.7123 226.587 14.6716C226.043 13.6308 225.771 12.2943 225.771 10.6621V7.11393ZM204.34 49.6921C204.34 48.0599 204.612 46.7234 205.156 45.6826C205.7 44.6418 206.564 43.873 207.746 43.3763C208.953 42.8559 210.538 42.5957 212.501 42.5957H221.017C222.98 42.5957 224.553 42.8559 225.736 43.3763C226.942 43.873 227.817 44.6418 228.361 45.6826C228.905 46.7234 229.177 48.0599 229.177 49.6921V53.2402C229.177 54.8724 228.905 56.2089 228.361 57.2497C227.817 58.2905 226.942 59.0711 225.736 59.5915C224.553 60.0882 222.98 60.3366 221.017 60.3366H212.501C210.538 60.3366 208.953 60.0882 207.746 59.5915C206.564 59.0711 205.7 58.2905 205.156 57.2497C204.612 56.2089 204.34 54.8724 204.34 53.2402V49.6921ZM168.788 49.6921C168.788 48.0599 169.06 46.7234 169.604 45.6826C170.148 44.6418 171.011 43.873 172.194 43.3763C173.4 42.8559 174.985 42.5957 176.948 42.5957H185.464C187.427 42.5957 189 42.8559 190.183 43.3763C191.389 43.873 192.265 44.6418 192.809 45.6826C193.353 46.7234 193.625 48.0599 193.625 49.6921V53.2402C193.625 54.8724 193.353 56.2089 192.809 57.2497C192.265 58.2905 191.389 59.0711 190.183 59.5915C189 60.0882 187.427 60.3366 185.464 60.3366H176.948C174.985 60.3366 173.4 60.0882 172.194 59.5915C171.011 59.0711 170.148 58.2905 169.604 57.2497C169.06 56.2089 168.788 54.8724 168.788 53.2402V49.6921ZM216.652 60.3366H182.306V42.5957H216.652V60.3366Z" fill="white"/>
<path d="M292.868 10.6445C292.868 12.2767 292.596 13.6132 292.052 14.654C291.508 15.6948 290.632 16.4754 289.426 16.9958C288.243 17.4925 286.67 17.7409 284.707 17.7409H276.191C274.228 17.7409 272.643 17.4925 271.437 16.9958C270.254 16.4754 269.391 15.6948 268.847 14.654C268.303 13.6132 268.031 12.2767 268.031 10.6445V7.09635C268.031 5.46419 268.303 4.12771 268.847 3.08691C269.391 2.04612 270.254 1.27734 271.437 0.7806C272.643 0.2602 274.228 0 276.191 0H284.707C286.67 0 288.243 0.2602 289.426 0.7806C290.632 1.27734 291.508 2.04612 292.052 3.08691C292.596 4.12771 292.868 5.46419 292.868 7.09635V10.6445ZM374.795 10.6445C374.795 12.2767 374.523 13.6132 373.979 14.654C373.435 15.6948 372.56 16.4754 371.354 16.9958C370.171 17.4925 368.598 17.7409 366.634 17.7409H358.119C356.155 17.7409 354.571 17.4925 353.364 16.9958C352.182 16.4754 351.318 15.6948 350.774 14.654C350.23 13.6132 349.958 12.2767 349.958 10.6445V7.09635C349.958 5.46419 350.23 4.12771 350.774 3.08691C351.318 2.04612 352.182 1.27734 353.364 0.7806C354.571 0.2602 356.155 0 358.119 0H366.634C368.598 0 370.171 0.2602 371.354 0.7806C372.56 1.27734 373.435 2.04612 373.979 3.08691C374.523 4.12771 374.795 5.46419 374.795 7.09635V10.6445ZM362.696 0V17.7409H278.569V0H362.696ZM360.815 31.9336C360.815 33.5658 360.543 34.9022 359.999 35.943C359.455 36.9838 358.58 37.7644 357.374 38.2848C356.191 38.7816 354.618 39.0299 352.655 39.0299H344.139C342.176 39.0299 340.591 38.7816 339.384 38.2848C338.202 37.7644 337.338 36.9838 336.794 35.943C336.25 34.9022 335.978 33.5658 335.978 31.9336V28.3854C335.978 26.7533 336.25 25.4168 336.794 24.376C337.338 23.3352 338.202 22.5664 339.384 22.0697C340.591 21.5493 342.176 21.2891 344.139 21.2891H352.655C354.618 21.2891 356.191 21.5493 357.374 22.0697C358.58 22.5664 359.455 23.3352 359.999 24.376C360.543 25.4168 360.815 26.7533 360.815 28.3854V31.9336ZM348.716 21.3245V39.0299H272.501V21.3245H348.716ZM286.446 21.2891C286.446 22.9212 286.174 24.2577 285.63 25.2985C285.085 26.3393 284.21 27.1199 283.004 27.6403C281.821 28.137 280.248 28.3854 278.285 28.3854H269.769C267.806 28.3854 266.221 28.137 265.015 27.6403C263.832 27.1199 262.969 26.3393 262.424 25.2985C261.88 24.2577 261.608 22.9212 261.608 21.2891V17.7409C261.608 16.1087 261.88 14.7722 262.424 13.7314C262.969 12.6906 263.832 11.9219 265.015 11.4251C266.221 10.9047 267.806 10.6445 269.769 10.6445H278.285C280.248 10.6445 281.821 10.9047 283.004 11.4251C284.21 11.9219 285.085 12.6906 285.63 13.7314C286.174 14.7722 286.446 16.1087 286.446 17.7409V21.2891ZM286.446 10.68C286.446 12.3122 286.174 13.6487 285.63 14.6895C285.085 15.7302 284.21 16.5108 283.004 17.0312C281.821 17.528 280.248 17.7764 278.285 17.7764H269.769C267.806 17.7764 266.221 17.528 265.015 17.0312C263.832 16.5108 262.969 15.7302 262.424 14.6895C261.88 13.6487 261.608 12.3122 261.608 10.68V7.13183C261.608 5.49967 261.88 4.1632 262.424 3.1224C262.969 2.0816 263.832 1.31282 265.015 0.81608C266.221 0.295681 267.806 0.0354824 269.769 0.0354824H278.285C280.248 0.0354824 281.821 0.295681 283.004 0.81608C284.21 1.31282 285.085 2.0816 285.63 3.1224C286.174 4.1632 286.446 5.49967 286.446 7.13183V10.68ZM286.446 42.6846C286.446 44.3167 286.174 45.6532 285.63 46.694C285.085 47.7348 284.21 48.5154 283.004 49.0358C281.821 49.5325 280.248 49.7809 278.285 49.7809H269.769C267.806 49.7809 266.221 49.5325 265.015 49.0358C263.832 48.5154 262.969 47.7348 262.424 46.694C261.88 45.6532 261.608 44.3167 261.608 42.6846V39.1364C261.608 37.5042 261.88 36.1678 262.424 35.127C262.969 34.0862 263.832 33.3174 265.015 32.8206C266.221 32.3002 267.806 32.04 269.769 32.04H278.285C280.248 32.04 281.821 32.3002 283.004 32.8206C284.21 33.3174 285.085 34.0862 285.63 35.127C286.174 36.1678 286.446 37.5042 286.446 39.1364V42.6846ZM286.446 53.2581C286.446 54.8903 286.174 56.2268 285.63 57.2676C285.085 58.3084 284.21 59.089 283.004 59.6094C281.821 60.1061 280.248 60.3545 278.285 60.3545H269.769C267.806 60.3545 266.221 60.1061 265.015 59.6094C263.832 59.089 262.969 58.3084 262.424 57.2676C261.88 56.2268 261.608 54.8903 261.608 53.2581V49.71C261.608 48.0778 261.88 46.7413 262.424 45.7005C262.969 44.6597 263.832 43.8909 265.015 43.3942C266.221 42.8738 267.806 42.6136 269.769 42.6136H278.285C280.248 42.6136 281.821 42.8738 283.004 43.3942C284.21 43.8909 285.085 44.6597 285.63 45.7005C286.174 46.7413 286.446 48.0778 286.446 49.71V53.2581ZM286.446 32.0046C286.446 33.6367 286.174 34.9732 285.63 36.014C285.085 37.0548 284.21 37.8354 283.004 38.3558C281.821 38.8525 280.248 39.1009 278.285 39.1009H269.769C267.806 39.1009 266.221 38.8525 265.015 38.3558C263.832 37.8354 262.969 37.0548 262.424 36.014C261.88 34.9732 261.608 33.6367 261.608 32.0046V28.4564C261.608 26.8242 261.88 25.4877 262.424 24.4469C262.969 23.4061 263.832 22.6374 265.015 22.1406C266.221 21.6202 267.806 21.36 269.769 21.36H278.285C280.248 21.36 281.821 21.6202 283.004 22.1406C284.21 22.6374 285.085 23.4061 285.63 24.4469C286.174 25.4877 286.446 26.8242 286.446 28.4564V32.0046Z" fill="white"/>
<path d="M417.055 10.6445C417.055 12.2767 416.783 13.6132 416.239 14.654C415.695 15.6948 414.819 16.4754 413.613 16.9958C412.43 17.4925 410.857 17.7409 408.894 17.7409H400.378C398.415 17.7409 396.83 17.4925 395.624 16.9958C394.441 16.4754 393.578 15.6948 393.034 14.654C392.49 13.6132 392.217 12.2767 392.217 10.6445V7.09635C392.217 5.46419 392.49 4.12771 393.034 3.08691C393.578 2.04612 394.441 1.27734 395.624 0.7806C396.83 0.2602 398.415 0 400.378 0H408.894C410.857 0 412.43 0.2602 413.613 0.7806C414.819 1.27734 415.695 2.04612 416.239 3.08691C416.783 4.12771 417.055 5.46419 417.055 7.09635V10.6445ZM498.982 10.6445C498.982 12.2767 498.71 13.6132 498.166 14.654C497.622 15.6948 496.747 16.4754 495.54 16.9958C494.358 17.4925 492.785 17.7409 490.821 17.7409H482.306C480.342 17.7409 478.758 17.4925 477.551 16.9958C476.368 16.4754 475.505 15.6948 474.961 14.654C474.417 13.6132 474.145 12.2767 474.145 10.6445V7.09635C474.145 5.46419 474.417 4.12771 474.961 3.08691C475.505 2.04612 476.368 1.27734 477.551 0.7806C478.758 0.2602 480.342 0 482.306 0H490.821C492.785 0 494.358 0.2602 495.54 0.7806C496.747 1.27734 497.622 2.04612 498.166 3.08691C498.71 4.12771 498.982 5.46419 498.982 7.09635V10.6445ZM486.883 0V17.7409H402.756V0H486.883ZM485.002 31.9336C485.002 33.5658 484.73 34.9022 484.186 35.943C483.642 36.9838 482.767 37.7644 481.561 38.2848C480.378 38.7816 478.805 39.0299 476.842 39.0299H468.326C466.363 39.0299 464.778 38.7816 463.571 38.2848C462.389 37.7644 461.525 36.9838 460.981 35.943C460.437 34.9022 460.165 33.5658 460.165 31.9336V28.3854C460.165 26.7533 460.437 25.4168 460.981 24.376C461.525 23.3352 462.389 22.5664 463.571 22.0697C464.778 21.5493 466.363 21.2891 468.326 21.2891H476.842C478.805 21.2891 480.378 21.5493 481.561 22.0697C482.767 22.5664 483.642 23.3352 484.186 24.376C484.73 25.4168 485.002 26.7533 485.002 28.3854V31.9336ZM472.903 21.3245V39.0299H396.688V21.3245H472.903ZM410.633 21.2891C410.633 22.9212 410.36 24.2577 409.816 25.2985C409.272 26.3393 408.397 27.1199 407.191 27.6403C406.008 28.137 404.435 28.3854 402.472 28.3854H393.956C391.993 28.3854 390.408 28.137 389.202 27.6403C388.019 27.1199 387.155 26.3393 386.611 25.2985C386.067 24.2577 385.795 22.9212 385.795 21.2891V17.7409C385.795 16.1087 386.067 14.7722 386.611 13.7314C387.155 12.6906 388.019 11.9219 389.202 11.4251C390.408 10.9047 391.993 10.6445 393.956 10.6445H402.472C404.435 10.6445 406.008 10.9047 407.191 11.4251C408.397 11.9219 409.272 12.6906 409.816 13.7314C410.36 14.7722 410.633 16.1087 410.633 17.7409V21.2891ZM410.633 10.68C410.633 12.3122 410.36 13.6487 409.816 14.6895C409.272 15.7302 408.397 16.5108 407.191 17.0312C406.008 17.528 404.435 17.7764 402.472 17.7764H393.956C391.993 17.7764 390.408 17.528 389.202 17.0312C388.019 16.5108 387.155 15.7302 386.611 14.6895C386.067 13.6487 385.795 12.3122 385.795 10.68V7.13183C385.795 5.49967 386.067 4.1632 386.611 3.1224C387.155 2.0816 388.019 1.31282 389.202 0.81608C390.408 0.295681 391.993 0.0354824 393.956 0.0354824H402.472C404.435 0.0354824 406.008 0.295681 407.191 0.81608C408.397 1.31282 409.272 2.0816 409.816 3.1224C410.36 4.1632 410.633 5.49967 410.633 7.13183V10.68ZM410.633 42.6846C410.633 44.3167 410.36 45.6532 409.816 46.694C409.272 47.7348 408.397 48.5154 407.191 49.0358C406.008 49.5325 404.435 49.7809 402.472 49.7809H393.956C391.993 49.7809 390.408 49.5325 389.202 49.0358C388.019 48.5154 387.155 47.7348 386.611 46.694C386.067 45.6532 385.795 44.3167 385.795 42.6846V39.1364C385.795 37.5042 386.067 36.1678 386.611 35.127C387.155 34.0862 388.019 33.3174 389.202 32.8206C390.408 32.3002 391.993 32.04 393.956 32.04H402.472C404.435 32.04 406.008 32.3002 407.191 32.8206C408.397 33.3174 409.272 34.0862 409.816 35.127C410.36 36.1678 410.633 37.5042 410.633 39.1364V42.6846ZM410.633 53.2581C410.633 54.8903 410.36 56.2268 409.816 57.2676C409.272 58.3084 408.397 59.089 407.191 59.6094C406.008 60.1061 404.435 60.3545 402.472 60.3545H393.956C391.993 60.3545 390.408 60.1061 389.202 59.6094C388.019 59.089 387.155 58.3084 386.611 57.2676C386.067 56.2268 385.795 54.8903 385.795 53.2581V49.71C385.795 48.0778 386.067 46.7413 386.611 45.7005C387.155 44.6597 388.019 43.8909 389.202 43.3942C390.408 42.8738 391.993 42.6136 393.956 42.6136H402.472C404.435 42.6136 406.008 42.8738 407.191 43.3942C408.397 43.8909 409.272 44.6597 409.816 45.7005C410.36 46.7413 410.633 48.0778 410.633 49.71V53.2581ZM410.633 32.0046C410.633 33.6367 410.36 34.9732 409.816 36.014C409.272 37.0548 408.397 37.8354 407.191 38.3558C406.008 38.8525 404.435 39.1009 402.472 39.1009H393.956C391.993 39.1009 390.408 38.8525 389.202 38.3558C388.019 37.8354 387.155 37.0548 386.611 36.014C386.067 34.9732 385.795 33.6367 385.795 32.0046V28.4564C385.795 26.8242 386.067 25.4877 386.611 24.4469C387.155 23.4061 388.019 22.6374 389.202 22.1406C390.408 21.6202 391.993 21.36 393.956 21.36H402.472C404.435 21.36 406.008 21.6202 407.191 22.1406C408.397 22.6374 409.272 23.4061 409.816 24.4469C410.36 25.4877 410.633 26.8242 410.633 28.4564V32.0046Z" fill="white"/>
<path d="M537.126 31.9157C537.126 33.5952 536.854 34.9553 536.31 35.9961C535.789 37.0132 534.879 37.782 533.578 38.3024C532.3 38.8228 530.526 39.083 528.255 39.083H524.707C522.436 39.083 520.65 38.8228 519.349 38.3024C518.072 37.782 517.161 37.0132 516.617 35.9961C516.097 34.9553 515.837 33.5952 515.837 31.9157V28.4385C515.837 26.7827 516.097 25.4462 516.617 24.429C517.161 23.3882 518.072 22.6195 519.349 22.1227C520.65 21.6023 522.436 21.3421 524.707 21.3421H528.255C530.526 21.3421 532.3 21.6023 533.578 22.1227C534.879 22.6195 535.789 23.3882 536.31 24.429C536.854 25.4462 537.126 26.7827 537.126 28.4385V31.9157ZM534.145 21.3066C534.145 22.9861 533.873 24.3462 533.329 25.387C532.809 26.4042 531.898 27.173 530.597 27.6934C529.32 28.2138 527.546 28.474 525.275 28.474H521.727C519.456 28.474 517.67 28.2138 516.369 27.6934C515.092 27.173 514.181 26.4042 513.637 25.387C513.116 24.3462 512.856 22.9861 512.856 21.3066V17.8294C512.856 16.1736 513.116 14.8371 513.637 13.82C514.181 12.7792 515.092 12.0104 516.369 11.5137C517.67 10.9933 519.456 10.7331 521.727 10.7331H525.275C527.546 10.7331 529.32 10.9933 530.597 11.5137C531.898 12.0104 532.809 12.7792 533.329 13.82C533.873 14.8371 534.145 16.1736 534.145 17.8294V21.3066ZM531.271 10.5911C531.271 12.2706 530.999 13.6307 530.455 14.6715C529.935 15.6887 529.024 16.4575 527.723 16.9779C526.446 17.4983 524.672 17.7585 522.401 17.7585H518.853C516.582 17.7585 514.796 17.4983 513.495 16.9779C512.218 16.4575 511.307 15.6887 510.763 14.6715C510.242 13.6307 509.982 12.2706 509.982 10.5911V7.11393C509.982 5.45811 510.242 4.12164 510.763 3.10449C511.307 2.06369 512.218 1.29492 513.495 0.798176C514.796 0.277777 516.582 0.0175781 518.853 0.0175781H522.401C524.672 0.0175781 526.446 0.277777 527.723 0.798176C529.024 1.29492 529.935 2.06369 530.455 3.10449C530.999 4.12164 531.271 5.45811 531.271 7.11393V10.5911ZM540.39 42.5957C540.39 44.2752 540.118 45.6353 539.574 46.6761C539.054 47.6932 538.143 48.462 536.842 48.9824C535.565 49.5028 533.79 49.763 531.52 49.763H527.971C525.701 49.763 523.915 49.5028 522.614 48.9824C521.336 48.462 520.426 47.6932 519.882 46.6761C519.361 45.6353 519.101 44.2752 519.101 42.5957V39.1185C519.101 37.4627 519.361 36.1262 519.882 35.109C520.426 34.0682 521.336 33.2995 522.614 32.8027C523.915 32.2823 525.701 32.0221 527.971 32.0221H531.52C533.79 32.0221 535.565 32.2823 536.842 32.8027C538.143 33.2995 539.054 34.0682 539.574 35.109C540.118 36.1262 540.39 37.4627 540.39 39.1185V42.5957ZM545.996 53.1693C545.996 54.8487 545.724 56.2089 545.18 57.2497C544.66 58.2668 543.749 59.0356 542.448 59.556C541.171 60.0764 539.397 60.3366 537.126 60.3366H533.578C531.307 60.3366 529.521 60.0764 528.22 59.556C526.942 59.0356 526.032 58.2668 525.488 57.2497C524.967 56.2089 524.707 54.8487 524.707 53.1693V49.6921C524.707 48.0362 524.967 46.6998 525.488 45.6826C526.032 44.6418 526.942 43.873 528.22 43.3763C529.521 42.8559 531.307 42.5957 533.578 42.5957H537.126C539.397 42.5957 541.171 42.8559 542.448 43.3763C543.749 43.873 544.66 44.6418 545.18 45.6826C545.724 46.6998 545.996 48.0362 545.996 49.6921V53.1693ZM545.996 42.5957V60.3366H535.316V42.5957H545.996ZM546.848 28.4385C546.848 26.7827 547.108 25.4462 547.628 24.429C548.172 23.3882 549.083 22.6195 550.36 22.1227C551.661 21.6023 553.447 21.3421 555.718 21.3421H559.266C561.537 21.3421 563.311 21.6023 564.589 22.1227C565.89 22.6195 566.8 23.3882 567.321 24.429C567.865 25.4462 568.137 26.7827 568.137 28.4385V31.9157C568.137 33.5952 567.865 34.9553 567.321 35.9961C566.8 37.0132 565.89 37.782 564.589 38.3024C563.311 38.8228 561.537 39.083 559.266 39.083H555.718C553.447 39.083 551.661 38.8228 550.36 38.3024C549.083 37.782 548.172 37.0132 547.628 35.9961C547.108 34.9553 546.848 33.5952 546.848 31.9157V28.4385ZM549.828 17.8294C549.828 16.1736 550.088 14.8371 550.609 13.82C551.153 12.7792 552.064 12.0104 553.341 11.5137C554.642 10.9933 556.428 10.7331 558.699 10.7331H562.247C564.518 10.7331 566.292 10.9933 567.569 11.5137C568.87 12.0104 569.781 12.7792 570.301 13.82C570.845 14.8371 571.117 16.1736 571.117 17.8294V21.3066C571.117 22.9861 570.845 24.3462 570.301 25.387C569.781 26.4042 568.87 27.173 567.569 27.6934C566.292 28.2138 564.518 28.474 562.247 28.474H558.699C556.428 28.474 554.642 28.2138 553.341 27.6934C552.064 27.173 551.153 26.4042 550.609 25.387C550.088 24.3462 549.828 22.9861 549.828 21.3066V17.8294ZM552.702 7.11393C552.702 5.45811 552.962 4.12164 553.483 3.10449C554.027 2.06369 554.938 1.29492 556.215 0.798176C557.516 0.277777 559.302 0.0175781 561.573 0.0175781H565.121C567.392 0.0175781 569.166 0.277777 570.443 0.798176C571.744 1.29492 572.655 2.06369 573.175 3.10449C573.719 4.12164 573.991 5.45811 573.991 7.11393V10.5911C573.991 12.2706 573.719 13.6307 573.175 14.6715C572.655 15.6887 571.744 16.4575 570.443 16.9779C569.166 17.4983 567.392 17.7585 565.121 17.7585H561.573C559.302 17.7585 557.516 17.4983 556.215 16.9779C554.938 16.4575 554.027 15.6887 553.483 14.6715C552.962 13.6307 552.702 12.2706 552.702 10.5911V7.11393ZM543.583 39.1185C543.583 37.4627 543.844 36.1262 544.364 35.109C544.908 34.0682 545.819 33.2995 547.096 32.8027C548.397 32.2823 550.183 32.0221 552.454 32.0221H556.002C558.273 32.0221 560.047 32.2823 561.324 32.8027C562.625 33.2995 563.536 34.0682 564.056 35.109C564.6 36.1262 564.872 37.4627 564.872 39.1185V42.5957C564.872 44.2752 564.6 45.6353 564.056 46.6761C563.536 47.6932 562.625 48.462 561.324 48.9824C560.047 49.5028 558.273 49.763 556.002 49.763H552.454C550.183 49.763 548.397 49.5028 547.096 48.9824C545.819 48.462 544.908 47.6932 544.364 46.6761C543.844 45.6353 543.583 44.2752 543.583 42.5957V39.1185ZM537.977 49.6921C537.977 48.0362 538.237 46.6998 538.758 45.6826C539.302 44.6418 540.213 43.873 541.49 43.3763C542.791 42.8559 544.577 42.5957 546.848 42.5957H550.396C552.667 42.5957 554.441 42.8559 555.718 43.3763C557.019 43.873 557.93 44.6418 558.45 45.6826C558.994 46.6998 559.266 48.0362 559.266 49.6921V53.1693C559.266 54.8487 558.994 56.2089 558.45 57.2497C557.93 58.2668 557.019 59.0356 555.718 59.556C554.441 60.0764 552.667 60.3366 550.396 60.3366H546.848C544.577 60.3366 542.791 60.0764 541.49 59.556C540.213 59.0356 539.302 58.2668 538.758 57.2497C538.237 56.2089 537.977 54.8487 537.977 53.1693V49.6921ZM548.657 60.3366H537.977V42.5957H548.657V60.3366Z" fill="white"/>
<path d="M612.135 31.9157C612.135 33.5715 611.863 34.9198 611.319 35.9606C610.798 36.9778 609.888 37.7465 608.587 38.2669C607.309 38.7637 605.535 39.012 603.264 39.012H599.716C597.445 39.012 595.659 38.7637 594.358 38.2669C593.081 37.7465 592.17 36.9778 591.626 35.9606C591.106 34.9198 590.846 33.5715 590.846 31.9157V28.4385C590.846 26.759 591.106 25.4107 591.626 24.3936C592.17 23.3528 593.081 22.5722 594.358 22.0518C595.659 21.5314 597.445 21.2712 599.716 21.2712H603.264C605.535 21.2712 607.309 21.5314 608.587 22.0518C609.888 22.5722 610.798 23.3528 611.319 24.3936C611.863 25.4107 612.135 26.759 612.135 28.4385V31.9157ZM609.154 42.5247C609.154 44.1806 608.882 45.5289 608.338 46.5697C607.818 47.5868 606.907 48.3556 605.606 48.876C604.329 49.3727 602.555 49.6211 600.284 49.6211H596.736C594.465 49.6211 592.679 49.3727 591.378 48.876C590.101 48.3556 589.19 47.5868 588.646 46.5697C588.125 45.5289 587.865 44.1806 587.865 42.5247V39.0475C587.865 37.3681 588.125 36.0197 588.646 35.0026C589.19 33.9618 590.101 33.1812 591.378 32.6608C592.679 32.1404 594.465 31.8802 596.736 31.8802H600.284C602.555 31.8802 604.329 32.1404 605.606 32.6608C606.907 33.1812 607.818 33.9618 608.338 35.0026C608.882 36.0197 609.154 37.3681 609.154 39.0475V42.5247ZM606.28 53.2402C606.28 54.8961 606.008 56.2444 605.464 57.2852C604.944 58.3023 604.033 59.0711 602.732 59.5915C601.455 60.0882 599.681 60.3366 597.41 60.3366H593.862C591.591 60.3366 589.805 60.0882 588.504 59.5915C587.227 59.0711 586.316 58.3023 585.772 57.2852C585.251 56.2444 584.991 54.8961 584.991 53.2402V49.763C584.991 48.0835 585.251 46.7352 585.772 45.7181C586.316 44.6773 587.227 43.8967 588.504 43.3763C589.805 42.8559 591.591 42.5957 593.862 42.5957H597.41C599.681 42.5957 601.455 42.8559 602.732 43.3763C604.033 43.8967 604.944 44.6773 605.464 45.7181C606.008 46.7352 606.28 48.0835 606.28 49.763V53.2402ZM615.399 21.2357C615.399 22.8915 615.127 24.2398 614.583 25.2806C614.063 26.2977 613.152 27.0665 611.851 27.5869C610.574 28.0837 608.799 28.332 606.529 28.332H602.98C600.71 28.332 598.924 28.0837 597.623 27.5869C596.345 27.0665 595.435 26.2977 594.891 25.2806C594.37 24.2398 594.11 22.8915 594.11 21.2357V17.7585C594.11 16.079 594.37 14.7307 594.891 13.7135C595.435 12.6727 596.345 11.8921 597.623 11.3717C598.924 10.8513 600.71 10.5911 602.98 10.5911H606.529C608.799 10.5911 610.574 10.8513 611.851 11.3717C613.152 11.8921 614.063 12.6727 614.583 13.7135C615.127 14.7307 615.399 16.079 615.399 17.7585V21.2357ZM621.005 10.6621C621.005 12.3179 620.733 13.6662 620.189 14.707C619.669 15.7242 618.758 16.4929 617.457 17.0133C616.18 17.5101 614.406 17.7585 612.135 17.7585H608.587C606.316 17.7585 604.53 17.5101 603.229 17.0133C601.951 16.4929 601.041 15.7242 600.497 14.707C599.976 13.6662 599.716 12.3179 599.716 10.6621V7.18489C599.716 5.50542 599.976 4.15712 600.497 3.13997C601.041 2.09917 601.951 1.31858 603.229 0.798176C604.53 0.277777 606.316 0.0175781 608.587 0.0175781H612.135C614.406 0.0175781 616.18 0.277777 617.457 0.798176C618.758 1.31858 619.669 2.09917 620.189 3.13997C620.733 4.15712 621.005 5.50542 621.005 7.18489V10.6621ZM610.325 0.0175781H621.005V17.7585H610.325V0.0175781ZM621.857 28.4385C621.857 26.759 622.117 25.4107 622.637 24.3936C623.181 23.3528 624.092 22.5722 625.369 22.0518C626.67 21.5314 628.456 21.2712 630.727 21.2712H634.275C636.546 21.2712 638.32 21.5314 639.598 22.0518C640.899 22.5722 641.809 23.3528 642.33 24.3936C642.874 25.4107 643.146 26.759 643.146 28.4385V31.9157C643.146 33.5715 642.874 34.9198 642.33 35.9606C641.809 36.9778 640.899 37.7465 639.598 38.2669C638.32 38.7637 636.546 39.012 634.275 39.012H630.727C628.456 39.012 626.67 38.7637 625.369 38.2669C624.092 37.7465 623.181 36.9778 622.637 35.9606C622.117 34.9198 621.857 33.5715 621.857 31.9157V28.4385ZM624.837 39.0475C624.837 37.3681 625.097 36.0197 625.618 35.0026C626.162 33.9618 627.073 33.1812 628.35 32.6608C629.651 32.1404 631.437 31.8802 633.708 31.8802H637.256C639.527 31.8802 641.301 32.1404 642.578 32.6608C643.879 33.1812 644.79 33.9618 645.31 35.0026C645.854 36.0197 646.126 37.3681 646.126 39.0475V42.5247C646.126 44.1806 645.854 45.5289 645.31 46.5697C644.79 47.5868 643.879 48.3556 642.578 48.876C641.301 49.3727 639.527 49.6211 637.256 49.6211H633.708C631.437 49.6211 629.651 49.3727 628.35 48.876C627.073 48.3556 626.162 47.5868 625.618 46.5697C625.097 45.5289 624.837 44.1806 624.837 42.5247V39.0475ZM627.711 49.763C627.711 48.0835 627.971 46.7352 628.492 45.7181C629.036 44.6773 629.947 43.8967 631.224 43.3763C632.525 42.8559 634.311 42.5957 636.582 42.5957H640.13C642.401 42.5957 644.175 42.8559 645.452 43.3763C646.753 43.8967 647.664 44.6773 648.184 45.7181C648.728 46.7352 649 48.0835 649 49.763V53.2402C649 54.8961 648.728 56.2444 648.184 57.2852C647.664 58.3023 646.753 59.0711 645.452 59.5915C644.175 60.0882 642.401 60.3366 640.13 60.3366H636.582C634.311 60.3366 632.525 60.0882 631.224 59.5915C629.947 59.0711 629.036 58.3023 628.492 57.2852C627.971 56.2444 627.711 54.8961 627.711 53.2402V49.763ZM618.592 17.7585C618.592 16.079 618.853 14.7307 619.373 13.7135C619.917 12.6727 620.828 11.8921 622.105 11.3717C623.406 10.8513 625.192 10.5911 627.463 10.5911H631.011C633.282 10.5911 635.056 10.8513 636.333 11.3717C637.634 11.8921 638.545 12.6727 639.065 13.7135C639.609 14.7307 639.882 16.079 639.882 17.7585V21.2357C639.882 22.8915 639.609 24.2398 639.065 25.2806C638.545 26.2977 637.634 27.0665 636.333 27.5869C635.056 28.0837 633.282 28.332 631.011 28.332H627.463C625.192 28.332 623.406 28.0837 622.105 27.5869C620.828 27.0665 619.917 26.2977 619.373 25.2806C618.853 24.2398 618.592 22.8915 618.592 21.2357V17.7585ZM612.986 7.18489C612.986 5.50542 613.247 4.15712 613.767 3.13997C614.311 2.09917 615.222 1.31858 616.499 0.798176C617.8 0.277777 619.586 0.0175781 621.857 0.0175781H625.405C627.676 0.0175781 629.45 0.277777 630.727 0.798176C632.028 1.31858 632.939 2.09917 633.459 3.13997C634.003 4.15712 634.275 5.50542 634.275 7.18489V10.6621C634.275 12.3179 634.003 13.6662 633.459 14.707C632.939 15.7242 632.028 16.4929 630.727 17.0133C629.45 17.5101 627.676 17.7585 625.405 17.7585H621.857C619.586 17.7585 617.8 17.5101 616.499 17.0133C615.222 16.4929 614.311 15.7242 613.767 14.707C613.247 13.6662 612.986 12.3179 612.986 10.6621V7.18489ZM612.986 17.7585V0.0175781H623.666V17.7585H612.986ZM615.009 42.5247C615.009 44.2042 614.737 45.5643 614.193 46.6051C613.672 47.6223 612.762 48.3911 611.461 48.9115C610.183 49.4319 608.409 49.6921 606.138 49.6921H602.59C600.319 49.6921 598.533 49.4319 597.232 48.9115C595.955 48.3911 595.044 47.6223 594.5 46.6051C593.98 45.5643 593.72 44.2042 593.72 42.5247V39.0475C593.72 37.3917 593.98 36.0552 594.5 35.0381C595.044 33.9973 595.955 33.2285 597.232 32.7318C598.533 32.2114 600.319 31.9512 602.59 31.9512H606.138C608.409 31.9512 610.183 32.2114 611.461 32.7318C612.762 33.2285 613.672 33.9973 614.193 35.0381C614.737 36.0552 615.009 37.3917 615.009 39.0475V42.5247ZM636.44 42.5247C636.44 44.2042 636.168 45.5643 635.624 46.6051C635.103 47.6223 634.193 48.3911 632.892 48.9115C631.614 49.4319 629.84 49.6921 627.569 49.6921H624.021C621.75 49.6921 619.964 49.4319 618.663 48.9115C617.386 48.3911 616.475 47.6223 615.931 46.6051C615.411 45.5643 615.151 44.2042 615.151 42.5247V39.0475C615.151 37.3917 615.411 36.0552 615.931 35.0381C616.475 33.9973 617.386 33.2285 618.663 32.7318C619.964 32.2114 621.75 31.9512 624.021 31.9512H627.569C629.84 31.9512 631.614 32.2114 632.892 32.7318C634.193 33.2285 635.103 33.9973 635.624 35.0381C636.168 36.0552 636.44 37.3917 636.44 39.0475V42.5247ZM625.511 31.9512V49.6921H604.258V31.9512H625.511Z" fill="white"/>
<path d="M684.979 31.8981C684.979 33.5776 684.707 34.9377 684.163 35.9785C683.643 36.9957 682.732 37.7644 681.431 38.2848C680.154 38.8052 678.38 39.0654 676.109 39.0654H672.561C670.29 39.0654 668.504 38.8052 667.203 38.2848C665.926 37.7644 665.015 36.9957 664.471 35.9785C663.951 34.9377 663.69 33.5776 663.69 31.8981V28.4209C663.69 26.7651 663.951 25.4286 664.471 24.4115C665.015 23.3707 665.926 22.6019 667.203 22.1051C668.504 21.5847 670.29 21.3245 672.561 21.3245H676.109C678.38 21.3245 680.154 21.5847 681.431 22.1051C682.732 22.6019 683.643 23.3707 684.163 24.4115C684.707 25.4286 684.979 26.7651 684.979 28.4209V31.8981ZM709.781 31.8981C709.781 33.5776 709.509 34.9377 708.965 35.9785C708.445 36.9957 707.534 37.7644 706.233 38.2848C704.956 38.8052 703.182 39.0654 700.911 39.0654H697.363C695.092 39.0654 693.306 38.8052 692.005 38.2848C690.727 37.7644 689.817 36.9957 689.273 35.9785C688.752 34.9377 688.492 33.5776 688.492 31.8981V28.4209C688.492 26.7651 688.752 25.4286 689.273 24.4115C689.817 23.3707 690.727 22.6019 692.005 22.1051C693.306 21.5847 695.092 21.3245 697.363 21.3245H700.911C703.182 21.3245 704.956 21.5847 706.233 22.1051C707.534 22.6019 708.445 23.3707 708.965 24.4115C709.509 25.4286 709.781 26.7651 709.781 28.4209V31.8981ZM698.533 21.3245V39.0654H674.228V21.3245H698.533ZM716.878 24.8727C716.878 26.5522 716.606 27.9123 716.061 28.9531C715.541 29.9703 714.63 30.739 713.329 31.2594C712.052 31.7798 710.278 32.04 708.007 32.04H704.459C702.188 32.04 700.402 31.7798 699.101 31.2594C697.824 30.739 696.913 29.9703 696.369 28.9531C695.849 27.9123 695.588 26.5522 695.588 24.8727V21.3955C695.588 19.7397 695.849 18.4032 696.369 17.3861C696.913 16.3453 697.824 15.5765 699.101 15.0798C700.402 14.5594 702.188 14.2992 704.459 14.2992H708.007C710.278 14.2992 712.052 14.5594 713.329 15.0798C714.63 15.5765 715.541 16.3453 716.061 17.3861C716.606 18.4032 716.878 19.7397 716.878 21.3955V24.8727ZM716.878 17.7409C716.878 19.4204 716.606 20.7805 716.061 21.8213C715.541 22.8384 714.63 23.6072 713.329 24.1276C712.052 24.648 710.278 24.9082 708.007 24.9082H704.459C702.188 24.9082 700.402 24.648 699.101 24.1276C697.824 23.6072 696.913 22.8384 696.369 21.8213C695.849 20.7805 695.588 19.4204 695.588 17.7409V14.2637C695.588 12.6079 695.849 11.2714 696.369 10.2542C696.913 9.21343 697.824 8.44466 699.101 7.94792C700.402 7.42752 702.188 7.16732 704.459 7.16732H708.007C710.278 7.16732 712.052 7.42752 713.329 7.94792C714.63 8.44466 715.541 9.21343 716.061 10.2542C716.606 11.2714 716.878 12.6079 716.878 14.2637V17.7409ZM684.979 10.609C684.979 12.2885 684.707 13.6487 684.163 14.6895C683.643 15.7066 682.732 16.4754 681.431 16.9958C680.154 17.5162 678.38 17.7764 676.109 17.7764H672.561C670.29 17.7764 668.504 17.5162 667.203 16.9958C665.926 16.4754 665.015 15.7066 664.471 14.6895C663.951 13.6487 663.69 12.2885 663.69 10.609V7.13183C663.69 5.47602 663.951 4.13954 664.471 3.1224C665.015 2.0816 665.926 1.31282 667.203 0.81608C668.504 0.295681 670.29 0.0354824 672.561 0.0354824H676.109C678.38 0.0354824 680.154 0.295681 681.431 0.81608C682.732 1.31282 683.643 2.0816 684.163 3.1224C684.707 4.13954 684.979 5.47602 684.979 7.13183V10.609ZM709.781 10.609C709.781 12.2885 709.509 13.6487 708.965 14.6895C708.445 15.7066 707.534 16.4754 706.233 16.9958C704.956 17.5162 703.182 17.7764 700.911 17.7764H697.363C695.092 17.7764 693.306 17.5162 692.005 16.9958C690.727 16.4754 689.817 15.7066 689.273 14.6895C688.752 13.6487 688.492 12.2885 688.492 10.609V7.13183C688.492 5.47602 688.752 4.13954 689.273 3.1224C689.817 2.0816 690.727 1.31282 692.005 0.81608C693.306 0.295681 695.092 0.0354824 697.363 0.0354824H700.911C703.182 0.0354824 704.956 0.295681 706.233 0.81608C707.534 1.31282 708.445 2.0816 708.965 3.1224C709.509 4.13954 709.781 5.47602 709.781 7.13183V10.609ZM698.533 0.0354824V17.7764H674.228V0.0354824H698.533ZM681.289 21.2181C681.289 22.8976 681.017 24.2577 680.473 25.2985C679.953 26.3156 679.042 27.0844 677.741 27.6048C676.464 28.1252 674.69 28.3854 672.419 28.3854H668.871C666.6 28.3854 664.814 28.1252 663.513 27.6048C662.236 27.0844 661.325 26.3156 660.781 25.2985C660.26 24.2577 660 22.8976 660 21.2181V17.7409C660 16.0851 660.26 14.7486 660.781 13.7314C661.325 12.6906 662.236 11.9219 663.513 11.4251C664.814 10.9047 666.6 10.6445 668.871 10.6445H672.419C674.69 10.6445 676.464 10.9047 677.741 11.4251C679.042 11.9219 679.953 12.6906 680.473 13.7314C681.017 14.7486 681.289 16.0851 681.289 17.7409V21.2181ZM681.289 10.5736C681.289 12.253 681.017 13.6132 680.473 14.654C679.953 15.6711 679.042 16.4399 677.741 16.9603C676.464 17.4807 674.69 17.7409 672.419 17.7409H668.871C666.6 17.7409 664.814 17.4807 663.513 16.9603C662.236 16.4399 661.325 15.6711 660.781 14.654C660.26 13.6132 660 12.253 660 10.5736V7.09635C660 5.44054 660.26 4.10406 660.781 3.08691C661.325 2.04612 662.236 1.27734 663.513 0.7806C664.814 0.2602 666.6 0 668.871 0H672.419C674.69 0 676.464 0.2602 677.741 0.7806C679.042 1.27734 679.953 2.04612 680.473 3.08691C681.017 4.10406 681.289 5.44054 681.289 7.09635V10.5736ZM681.289 42.5072C681.289 44.1866 681.017 45.5468 680.473 46.5876C679.953 47.6047 679.042 48.3735 677.741 48.8939C676.464 49.4143 674.69 49.6745 672.419 49.6745H668.871C666.6 49.6745 664.814 49.4143 663.513 48.8939C662.236 48.3735 661.325 47.6047 660.781 46.5876C660.26 45.5468 660 44.1866 660 42.5072V39.0299C660 37.3741 660.26 36.0377 660.781 35.0205C661.325 33.9797 662.236 33.2109 663.513 32.7142C664.814 32.1938 666.6 31.9336 668.871 31.9336H672.419C674.69 31.9336 676.464 32.1938 677.741 32.7142C679.042 33.2109 679.953 33.9797 680.473 35.0205C681.017 36.0377 681.289 37.3741 681.289 39.0299V42.5072ZM681.289 53.1872C681.289 54.8666 681.017 56.2268 680.473 57.2676C679.953 58.2847 679.042 59.0535 677.741 59.5739C676.464 60.0943 674.69 60.3545 672.419 60.3545H668.871C666.6 60.3545 664.814 60.0943 663.513 59.5739C662.236 59.0535 661.325 58.2847 660.781 57.2676C660.26 56.2268 660 54.8666 660 53.1872V49.71C660 48.0541 660.26 46.7177 660.781 45.7005C661.325 44.6597 662.236 43.8909 663.513 43.3942C664.814 42.8738 666.6 42.6136 668.871 42.6136H672.419C674.69 42.6136 676.464 42.8738 677.741 43.3942C679.042 43.8909 679.953 44.6597 680.473 45.7005C681.017 46.7177 681.289 48.0541 681.289 49.71V53.1872ZM681.289 31.9691C681.289 33.6485 681.017 35.0087 680.473 36.0495C679.953 37.0666 679.042 37.8354 677.741 38.3558C676.464 38.8762 674.69 39.1364 672.419 39.1364H668.871C666.6 39.1364 664.814 38.8762 663.513 38.3558C662.236 37.8354 661.325 37.0666 660.781 36.0495C660.26 35.0087 660 33.6485 660 31.9691V28.4919C660 26.836 660.26 25.4996 660.781 24.4824C661.325 23.4416 662.236 22.6729 663.513 22.1761C664.814 21.6557 666.6 21.3955 668.871 21.3955H672.419C674.69 21.3955 676.464 21.6557 677.741 22.1761C679.042 22.6729 679.953 23.4416 680.473 24.4824C681.017 25.4996 681.289 26.836 681.289 28.4919V31.9691ZM715.21 42.5781C715.21 44.2576 714.938 45.6177 714.394 46.6585C713.873 47.6757 712.963 48.4444 711.662 48.9648C710.384 49.4852 708.61 49.7454 706.339 49.7454H702.791C700.52 49.7454 698.735 49.4852 697.434 48.9648C696.156 48.4444 695.245 47.6757 694.701 46.6585C694.181 45.6177 693.921 44.2576 693.921 42.5781V39.1009C693.921 37.4451 694.181 36.1086 694.701 35.0915C695.245 34.0507 696.156 33.2819 697.434 32.7852C698.735 32.2648 700.52 32.0046 702.791 32.0046H706.339C708.61 32.0046 710.384 32.2648 711.662 32.7852C712.963 33.2819 713.873 34.0507 714.394 35.0915C714.938 36.1086 715.21 37.4451 715.21 39.1009V42.5781ZM720.248 53.1872C720.248 54.8666 719.976 56.2268 719.432 57.2676C718.912 58.2847 718.001 59.0535 716.7 59.5739C715.423 60.0943 713.649 60.3545 711.378 60.3545H707.83C705.559 60.3545 703.773 60.0943 702.472 59.5739C701.195 59.0535 700.284 58.2847 699.74 57.2676C699.219 56.2268 698.959 54.8666 698.959 53.1872V49.71C698.959 48.0541 699.219 46.7177 699.74 45.7005C700.284 44.6597 701.195 43.8909 702.472 43.3942C703.773 42.8738 705.559 42.6136 707.83 42.6136H711.378C713.649 42.6136 715.423 42.8738 716.7 43.3942C718.001 43.8909 718.912 44.6597 719.432 45.7005C719.976 46.7177 720.248 48.0541 720.248 49.71V53.1872Z" fill="white"/>
<path d="M764.956 24.6953C764.956 26.3748 764.684 27.7349 764.14 28.7757C763.619 29.7929 762.709 30.5616 761.408 31.082C760.13 31.6024 758.356 31.8626 756.086 31.8626H752.537C750.267 31.8626 748.481 31.6024 747.18 31.082C745.902 30.5616 744.992 29.7929 744.448 28.7757C743.927 27.7349 743.667 26.3748 743.667 24.6953V21.2181C743.667 19.5623 743.927 18.2258 744.448 17.2087C744.992 16.1679 745.902 15.3991 747.18 14.9023C748.481 14.3819 750.267 14.1217 752.537 14.1217H756.086C758.356 14.1217 760.13 14.3819 761.408 14.9023C762.709 15.3991 763.619 16.1679 764.14 17.2087C764.684 18.2258 764.956 19.5623 764.956 21.2181V24.6953ZM764.956 10.5736C764.956 12.253 764.684 13.6132 764.14 14.654C763.619 15.6711 762.709 16.4399 761.408 16.9603C760.13 17.4807 758.356 17.7409 756.086 17.7409H752.537C750.267 17.7409 748.481 17.4807 747.18 16.9603C745.902 16.4399 744.992 15.6711 744.448 14.654C743.927 13.6132 743.667 12.253 743.667 10.5736V7.09635C743.667 5.44054 743.927 4.10406 744.448 3.08691C744.992 2.04612 745.902 1.27734 747.18 0.7806C748.481 0.2602 750.267 0 752.537 0H756.086C758.356 0 760.13 0.2602 761.408 0.7806C762.709 1.27734 763.619 2.04612 764.14 3.08691C764.684 4.10406 764.956 5.44054 764.956 7.09635V10.5736ZM764.956 38.959C764.956 40.6385 764.684 41.9986 764.14 43.0394C763.619 44.0565 762.709 44.8253 761.408 45.3457C760.13 45.8661 758.356 46.1263 756.086 46.1263H752.537C750.267 46.1263 748.481 45.8661 747.18 45.3457C745.902 44.8253 744.992 44.0565 744.448 43.0394C743.927 41.9986 743.667 40.6385 743.667 38.959V35.4818C743.667 33.826 743.927 32.4895 744.448 31.4723C744.992 30.4315 745.902 29.6628 747.18 29.166C748.481 28.6456 750.267 28.3854 752.537 28.3854H756.086C758.356 28.3854 760.13 28.6456 761.408 29.166C762.709 29.6628 763.619 30.4315 764.14 31.4723C764.684 32.4895 764.956 33.826 764.956 35.4818V38.959ZM764.956 53.1872C764.956 54.8666 764.684 56.2268 764.14 57.2676C763.619 58.2847 762.709 59.0535 761.408 59.5739C760.13 60.0943 758.356 60.3545 756.086 60.3545H752.537C750.267 60.3545 748.481 60.0943 747.18 59.5739C745.902 59.0535 744.992 58.2847 744.448 57.2676C743.927 56.2268 743.667 54.8666 743.667 53.1872V49.71C743.667 48.0541 743.927 46.7177 744.448 45.7005C744.992 44.6597 745.902 43.8909 747.18 43.3942C748.481 42.8738 750.267 42.6136 752.537 42.6136H756.086C758.356 42.6136 760.13 42.8738 761.408 43.3942C762.709 43.8909 763.619 44.6597 764.14 45.7005C764.684 46.7177 764.956 48.0541 764.956 49.71V53.1872ZM752.537 10.5736C752.537 12.253 752.265 13.6132 751.721 14.654C751.201 15.6711 750.29 16.4399 748.989 16.9603C747.712 17.4807 745.938 17.7409 743.667 17.7409H740.119C737.848 17.7409 736.062 17.4807 734.761 16.9603C733.484 16.4399 732.573 15.6711 732.029 14.654C731.508 13.6132 731.248 12.253 731.248 10.5736V7.09635C731.248 5.44054 731.508 4.10406 732.029 3.08691C732.573 2.04612 733.484 1.27734 734.761 0.7806C736.062 0.2602 737.848 0 740.119 0H743.667C745.938 0 747.712 0.2602 748.989 0.7806C750.29 1.27734 751.201 2.04612 751.721 3.08691C752.265 4.10406 752.537 5.44054 752.537 7.09635V10.5736ZM777.339 10.5736C777.339 12.253 777.067 13.6132 776.523 14.654C776.003 15.6711 775.092 16.4399 773.791 16.9603C772.514 17.4807 770.74 17.7409 768.469 17.7409H764.92C762.65 17.7409 760.864 17.4807 759.563 16.9603C758.285 16.4399 757.375 15.6711 756.831 14.654C756.31 13.6132 756.05 12.253 756.05 10.5736V7.09635C756.05 5.44054 756.31 4.10406 756.831 3.08691C757.375 2.04612 758.285 1.27734 759.563 0.7806C760.864 0.2602 762.65 0 764.92 0H768.469C770.74 0 772.514 0.2602 773.791 0.7806C775.092 1.27734 776.003 2.04612 776.523 3.08691C777.067 4.10406 777.339 5.44054 777.339 7.09635V10.5736ZM766.091 0V17.7409H741.786V0H766.091ZM752.537 53.1872C752.537 54.8666 752.265 56.2268 751.721 57.2676C751.201 58.2847 750.29 59.0535 748.989 59.5739C747.712 60.0943 745.938 60.3545 743.667 60.3545H740.119C737.848 60.3545 736.062 60.0943 734.761 59.5739C733.484 59.0535 732.573 58.2847 732.029 57.2676C731.508 56.2268 731.248 54.8666 731.248 53.1872V49.71C731.248 48.0541 731.508 46.7177 732.029 45.7005C732.573 44.6597 733.484 43.8909 734.761 43.3942C736.062 42.8738 737.848 42.6136 740.119 42.6136H743.667C745.938 42.6136 747.712 42.8738 748.989 43.3942C750.29 43.8909 751.201 44.6597 751.721 45.7005C752.265 46.7177 752.537 48.0541 752.537 49.71V53.1872ZM777.339 53.1872C777.339 54.8666 777.067 56.2268 776.523 57.2676C776.003 58.2847 775.092 59.0535 773.791 59.5739C772.514 60.0943 770.74 60.3545 768.469 60.3545H764.92C762.65 60.3545 760.864 60.0943 759.563 59.5739C758.285 59.0535 757.375 58.2847 756.831 57.2676C756.31 56.2268 756.05 54.8666 756.05 53.1872V49.71C756.05 48.0541 756.31 46.7177 756.831 45.7005C757.375 44.6597 758.285 43.8909 759.563 43.3942C760.864 42.8738 762.65 42.6136 764.92 42.6136H768.469C770.74 42.6136 772.514 42.8738 773.791 43.3942C775.092 43.8909 776.003 44.6597 776.523 45.7005C777.067 46.7177 777.339 48.0541 777.339 49.71V53.1872ZM766.091 42.6136V60.3545H741.786V42.6136H766.091Z" fill="white"/>
<path d="M815.483 31.9157C815.483 33.5715 815.211 34.9198 814.667 35.9606C814.146 36.9778 813.236 37.7465 811.935 38.2669C810.657 38.7637 808.883 39.012 806.612 39.012H803.064C800.793 39.012 799.007 38.7637 797.706 38.2669C796.429 37.7465 795.518 36.9778 794.974 35.9606C794.454 34.9198 794.194 33.5715 794.194 31.9157V28.4385C794.194 26.759 794.454 25.4107 794.974 24.3936C795.518 23.3528 796.429 22.5722 797.706 22.0518C799.007 21.5314 800.793 21.2712 803.064 21.2712H806.612C808.883 21.2712 810.657 21.5314 811.935 22.0518C813.236 22.5722 814.146 23.3528 814.667 24.3936C815.211 25.4107 815.483 26.759 815.483 28.4385V31.9157ZM812.502 42.5247C812.502 44.1806 812.23 45.5289 811.686 46.5697C811.166 47.5868 810.255 48.3556 808.954 48.876C807.677 49.3727 805.903 49.6211 803.632 49.6211H800.084C797.813 49.6211 796.027 49.3727 794.726 48.876C793.448 48.3556 792.538 47.5868 791.994 46.5697C791.473 45.5289 791.213 44.1806 791.213 42.5247V39.0475C791.213 37.3681 791.473 36.0197 791.994 35.0026C792.538 33.9618 793.448 33.1812 794.726 32.6608C796.027 32.1404 797.813 31.8802 800.084 31.8802H803.632C805.903 31.8802 807.677 32.1404 808.954 32.6608C810.255 33.1812 811.166 33.9618 811.686 35.0026C812.23 36.0197 812.502 37.3681 812.502 39.0475V42.5247ZM809.628 53.2402C809.628 54.8961 809.356 56.2444 808.812 57.2852C808.292 58.3023 807.381 59.0711 806.08 59.5915C804.803 60.0882 803.029 60.3366 800.758 60.3366H797.21C794.939 60.3366 793.153 60.0882 791.852 59.5915C790.574 59.0711 789.664 58.3023 789.12 57.2852C788.599 56.2444 788.339 54.8961 788.339 53.2402V49.763C788.339 48.0835 788.599 46.7352 789.12 45.7181C789.664 44.6773 790.574 43.8967 791.852 43.3763C793.153 42.8559 794.939 42.5957 797.21 42.5957H800.758C803.029 42.5957 804.803 42.8559 806.08 43.3763C807.381 43.8967 808.292 44.6773 808.812 45.7181C809.356 46.7352 809.628 48.0835 809.628 49.763V53.2402ZM818.747 21.2357C818.747 22.8915 818.475 24.2398 817.931 25.2806C817.411 26.2977 816.5 27.0665 815.199 27.5869C813.921 28.0837 812.147 28.332 809.877 28.332H806.328C804.058 28.332 802.272 28.0837 800.971 27.5869C799.693 27.0665 798.783 26.2977 798.239 25.2806C797.718 24.2398 797.458 22.8915 797.458 21.2357V17.7585C797.458 16.079 797.718 14.7307 798.239 13.7135C798.783 12.6727 799.693 11.8921 800.971 11.3717C802.272 10.8513 804.058 10.5911 806.328 10.5911H809.877C812.147 10.5911 813.921 10.8513 815.199 11.3717C816.5 11.8921 817.411 12.6727 817.931 13.7135C818.475 14.7307 818.747 16.079 818.747 17.7585V21.2357ZM824.353 10.6621C824.353 12.3179 824.081 13.6662 823.537 14.707C823.017 15.7242 822.106 16.4929 820.805 17.0133C819.528 17.5101 817.753 17.7585 815.483 17.7585H811.935C809.664 17.7585 807.878 17.5101 806.577 17.0133C805.299 16.4929 804.389 15.7242 803.845 14.707C803.324 13.6662 803.064 12.3179 803.064 10.6621V7.18489C803.064 5.50542 803.324 4.15712 803.845 3.13997C804.389 2.09917 805.299 1.31858 806.577 0.798176C807.878 0.277777 809.664 0.0175781 811.935 0.0175781H815.483C817.753 0.0175781 819.528 0.277777 820.805 0.798176C822.106 1.31858 823.017 2.09917 823.537 3.13997C824.081 4.15712 824.353 5.50542 824.353 7.18489V10.6621ZM813.673 0.0175781H824.353V17.7585H813.673V0.0175781ZM825.205 28.4385C825.205 26.759 825.465 25.4107 825.985 24.3936C826.529 23.3528 827.44 22.5722 828.717 22.0518C830.018 21.5314 831.804 21.2712 834.075 21.2712H837.623C839.894 21.2712 841.668 21.5314 842.946 22.0518C844.247 22.5722 845.157 23.3528 845.678 24.3936C846.222 25.4107 846.494 26.759 846.494 28.4385V31.9157C846.494 33.5715 846.222 34.9198 845.678 35.9606C845.157 36.9778 844.247 37.7465 842.946 38.2669C841.668 38.7637 839.894 39.012 837.623 39.012H834.075C831.804 39.012 830.018 38.7637 828.717 38.2669C827.44 37.7465 826.529 36.9778 825.985 35.9606C825.465 34.9198 825.205 33.5715 825.205 31.9157V28.4385ZM828.185 39.0475C828.185 37.3681 828.445 36.0197 828.966 35.0026C829.51 33.9618 830.42 33.1812 831.698 32.6608C832.999 32.1404 834.785 31.8802 837.056 31.8802H840.604C842.875 31.8802 844.649 32.1404 845.926 32.6608C847.227 33.1812 848.138 33.9618 848.658 35.0026C849.202 36.0197 849.474 37.3681 849.474 39.0475V42.5247C849.474 44.1806 849.202 45.5289 848.658 46.5697C848.138 47.5868 847.227 48.3556 845.926 48.876C844.649 49.3727 842.875 49.6211 840.604 49.6211H837.056C834.785 49.6211 832.999 49.3727 831.698 48.876C830.42 48.3556 829.51 47.5868 828.966 46.5697C828.445 45.5289 828.185 44.1806 828.185 42.5247V39.0475ZM831.059 49.763C831.059 48.0835 831.319 46.7352 831.84 45.7181C832.384 44.6773 833.294 43.8967 834.572 43.3763C835.873 42.8559 837.659 42.5957 839.93 42.5957H843.478C845.749 42.5957 847.523 42.8559 848.8 43.3763C850.101 43.8967 851.012 44.6773 851.532 45.7181C852.076 46.7352 852.348 48.0835 852.348 49.763V53.2402C852.348 54.8961 852.076 56.2444 851.532 57.2852C851.012 58.3023 850.101 59.0711 848.8 59.5915C847.523 60.0882 845.749 60.3366 843.478 60.3366H839.93C837.659 60.3366 835.873 60.0882 834.572 59.5915C833.294 59.0711 832.384 58.3023 831.84 57.2852C831.319 56.2444 831.059 54.8961 831.059 53.2402V49.763ZM821.94 17.7585C821.94 16.079 822.201 14.7307 822.721 13.7135C823.265 12.6727 824.176 11.8921 825.453 11.3717C826.754 10.8513 828.54 10.5911 830.811 10.5911H834.359C836.63 10.5911 838.404 10.8513 839.681 11.3717C840.982 11.8921 841.893 12.6727 842.413 13.7135C842.957 14.7307 843.229 16.079 843.229 17.7585V21.2357C843.229 22.8915 842.957 24.2398 842.413 25.2806C841.893 26.2977 840.982 27.0665 839.681 27.5869C838.404 28.0837 836.63 28.332 834.359 28.332H830.811C828.54 28.332 826.754 28.0837 825.453 27.5869C824.176 27.0665 823.265 26.2977 822.721 25.2806C822.201 24.2398 821.94 22.8915 821.94 21.2357V17.7585ZM816.334 7.18489C816.334 5.50542 816.594 4.15712 817.115 3.13997C817.659 2.09917 818.57 1.31858 819.847 0.798176C821.148 0.277777 822.934 0.0175781 825.205 0.0175781H828.753C831.024 0.0175781 832.798 0.277777 834.075 0.798176C835.376 1.31858 836.287 2.09917 836.807 3.13997C837.351 4.15712 837.623 5.50542 837.623 7.18489V10.6621C837.623 12.3179 837.351 13.6662 836.807 14.707C836.287 15.7242 835.376 16.4929 834.075 17.0133C832.798 17.5101 831.024 17.7585 828.753 17.7585H825.205C822.934 17.7585 821.148 17.5101 819.847 17.0133C818.57 16.4929 817.659 15.7242 817.115 14.707C816.594 13.6662 816.334 12.3179 816.334 10.6621V7.18489ZM816.334 17.7585V0.0175781H827.014V17.7585H816.334ZM818.357 42.5247C818.357 44.2042 818.085 45.5643 817.541 46.6051C817.02 47.6223 816.11 48.3911 814.809 48.9115C813.531 49.4319 811.757 49.6921 809.486 49.6921H805.938C803.667 49.6921 801.881 49.4319 800.58 48.9115C799.303 48.3911 798.392 47.6223 797.848 46.6051C797.328 45.5643 797.068 44.2042 797.068 42.5247V39.0475C797.068 37.3917 797.328 36.0552 797.848 35.0381C798.392 33.9973 799.303 33.2285 800.58 32.7318C801.881 32.2114 803.667 31.9512 805.938 31.9512H809.486C811.757 31.9512 813.531 32.2114 814.809 32.7318C816.11 33.2285 817.02 33.9973 817.541 35.0381C818.085 36.0552 818.357 37.3917 818.357 39.0475V42.5247ZM839.788 42.5247C839.788 44.2042 839.516 45.5643 838.972 46.6051C838.451 47.6223 837.541 48.3911 836.24 48.9115C834.962 49.4319 833.188 49.6921 830.917 49.6921H827.369C825.098 49.6921 823.312 49.4319 822.011 48.9115C820.734 48.3911 819.823 47.6223 819.279 46.6051C818.759 45.5643 818.499 44.2042 818.499 42.5247V39.0475C818.499 37.3917 818.759 36.0552 819.279 35.0381C819.823 33.9973 820.734 33.2285 822.011 32.7318C823.312 32.2114 825.098 31.9512 827.369 31.9512H830.917C833.188 31.9512 834.962 32.2114 836.24 32.7318C837.541 33.2285 838.451 33.9973 838.972 35.0381C839.516 36.0552 839.788 37.3917 839.788 39.0475V42.5247ZM828.859 31.9512V49.6921H807.606V31.9512H828.859Z" fill="white"/>
<path d="M886.979 31.8271C886.979 33.5066 886.707 34.8667 886.163 35.9075C885.643 36.9247 884.732 37.6935 883.431 38.2139C882.154 38.7343 880.38 38.9945 878.109 38.9945H874.56C872.29 38.9945 870.504 38.7343 869.203 38.2139C867.925 37.6935 867.015 36.9247 866.471 35.9075C865.95 34.8667 865.69 33.5066 865.69 31.8271V28.3499C865.69 26.6941 865.95 25.3576 866.471 24.3405C867.015 23.2997 867.925 22.5309 869.203 22.0342C870.504 21.5138 872.29 21.2536 874.56 21.2536H878.109C880.38 21.2536 882.154 21.5138 883.431 22.0342C884.732 22.5309 885.643 23.2997 886.163 24.3405C886.707 25.3576 886.979 26.6941 886.979 28.3499V31.8271ZM911.781 31.8271C911.781 33.5066 911.509 34.8667 910.965 35.9075C910.444 36.9247 909.534 37.6935 908.233 38.2139C906.955 38.7343 905.181 38.9945 902.91 38.9945H899.362C897.091 38.9945 895.306 38.7343 894.005 38.2139C892.727 37.6935 891.816 36.9247 891.272 35.9075C890.752 34.8667 890.492 33.5066 890.492 31.8271V28.3499C890.492 26.6941 890.752 25.3576 891.272 24.3405C891.816 23.2997 892.727 22.5309 894.005 22.0342C895.306 21.5138 897.091 21.2536 899.362 21.2536H902.91C905.181 21.2536 906.955 21.5138 908.233 22.0342C909.534 22.5309 910.444 23.2997 910.965 24.3405C911.509 25.3576 911.781 26.6941 911.781 28.3499V31.8271ZM900.533 21.2536V38.9945H876.228V21.2536H900.533ZM920.048 46.0908C920.048 47.7703 919.776 49.1304 919.232 50.1712C918.712 51.1884 917.801 51.9571 916.5 52.4775C915.223 52.9979 913.449 53.2581 911.178 53.2581H907.63C905.359 53.2581 903.573 52.9979 902.272 52.4775C900.994 51.9571 900.084 51.1884 899.54 50.1712C899.019 49.1304 898.759 47.7703 898.759 46.0908V42.6136C898.759 40.9578 899.019 39.6213 899.54 38.6042C900.084 37.5634 900.994 36.7946 902.272 36.2979C903.573 35.7775 905.359 35.5173 907.63 35.5173H911.178C913.449 35.5173 915.223 35.7775 916.5 36.2979C917.801 36.7946 918.712 37.5634 919.232 38.6042C919.776 39.6213 920.048 40.9578 920.048 42.6136V46.0908ZM920.048 38.9235C920.048 40.603 919.776 41.9631 919.232 43.0039C918.712 44.0211 917.801 44.7898 916.5 45.3102C915.223 45.8306 913.449 46.0908 911.178 46.0908H907.63C905.359 46.0908 903.573 45.8306 902.272 45.3102C900.994 44.7898 900.084 44.0211 899.54 43.0039C899.019 41.9631 898.759 40.603 898.759 38.9235V35.4463C898.759 33.7905 899.019 32.454 899.54 31.4368C900.084 30.396 900.994 29.6273 902.272 29.1305C903.573 28.6101 905.359 28.3499 907.63 28.3499H911.178C913.449 28.3499 915.223 28.6101 916.5 29.1305C917.801 29.6273 918.712 30.396 919.232 31.4368C919.776 32.454 920.048 33.7905 920.048 35.4463V38.9235ZM920.119 24.6953C920.119 26.3748 919.847 27.7349 919.303 28.7757C918.783 29.7929 917.872 30.5616 916.571 31.082C915.294 31.6024 913.519 31.8626 911.249 31.8626H907.701C905.43 31.8626 903.644 31.6024 902.343 31.082C901.065 30.5616 900.155 29.7929 899.611 28.7757C899.09 27.7349 898.83 26.3748 898.83 24.6953V21.2181C898.83 19.5623 899.09 18.2258 899.611 17.2087C900.155 16.1679 901.065 15.3991 902.343 14.9023C903.644 14.3819 905.43 14.1217 907.701 14.1217H911.249C913.519 14.1217 915.294 14.3819 916.571 14.9023C917.872 15.3991 918.783 16.1679 919.303 17.2087C919.847 18.2258 920.119 19.5623 920.119 21.2181V24.6953ZM920.119 17.6344C920.119 19.3139 919.847 20.674 919.303 21.7148C918.783 22.732 917.872 23.5008 916.571 24.0212C915.294 24.5416 913.519 24.8018 911.249 24.8018H907.701C905.43 24.8018 903.644 24.5416 902.343 24.0212C901.065 23.5008 900.155 22.732 899.611 21.7148C899.09 20.674 898.83 19.3139 898.83 17.6344V14.1572C898.83 12.5014 899.09 11.1649 899.611 10.1478C900.155 9.10699 901.065 8.33821 902.343 7.84147C903.644 7.32107 905.43 7.06087 907.701 7.06087H911.249C913.519 7.06087 915.294 7.32107 916.571 7.84147C917.872 8.33821 918.783 9.10699 919.303 10.1478C919.847 11.1649 920.119 12.5014 920.119 14.1572V17.6344ZM888.256 10.5736C888.256 12.253 887.984 13.6132 887.44 14.654C886.92 15.6711 886.009 16.4399 884.708 16.9603C883.431 17.4807 881.657 17.7409 879.386 17.7409H875.838C873.567 17.7409 871.781 17.4807 870.48 16.9603C869.203 16.4399 868.292 15.6711 867.748 14.654C867.228 13.6132 866.967 12.253 866.967 10.5736V7.09635C866.967 5.44054 867.228 4.10406 867.748 3.08691C868.292 2.04612 869.203 1.27734 870.48 0.780598C871.781 0.260198 873.567 0 875.838 0H879.386C881.657 0 883.431 0.260198 884.708 0.780598C886.009 1.27734 886.92 2.04612 887.44 3.08691C887.984 4.10406 888.256 5.44054 888.256 7.09635V10.5736ZM913.058 10.5736C913.058 12.253 912.786 13.6132 912.242 14.654C911.722 15.6711 910.811 16.4399 909.51 16.9603C908.233 17.4807 906.459 17.7409 904.188 17.7409H900.64C898.369 17.7409 896.583 17.4807 895.282 16.9603C894.005 16.4399 893.094 15.6711 892.55 14.654C892.029 13.6132 891.769 12.253 891.769 10.5736V7.09635C891.769 5.44054 892.029 4.10406 892.55 3.08691C893.094 2.04612 894.005 1.27734 895.282 0.780598C896.583 0.260198 898.369 0 900.64 0H904.188C906.459 0 908.233 0.260198 909.51 0.780598C910.811 1.27734 911.722 2.04612 912.242 3.08691C912.786 4.10406 913.058 5.44054 913.058 7.09635V10.5736ZM901.81 0V17.7409H877.505V0H901.81ZM888.256 53.1517C888.256 54.8312 887.984 56.1913 887.44 57.2321C886.92 58.2492 886.009 59.018 884.708 59.5384C883.431 60.0588 881.657 60.319 879.386 60.319H875.838C873.567 60.319 871.781 60.0588 870.48 59.5384C869.203 59.018 868.292 58.2492 867.748 57.2321C867.228 56.1913 866.967 54.8312 866.967 53.1517V49.6745C866.967 48.0187 867.228 46.6822 867.748 45.665C868.292 44.6242 869.203 43.8555 870.48 43.3587C871.781 42.8383 873.567 42.5781 875.838 42.5781H879.386C881.657 42.5781 883.431 42.8383 884.708 43.3587C886.009 43.8555 886.92 44.6242 887.44 45.665C887.984 46.6822 888.256 48.0187 888.256 49.6745V53.1517ZM913.058 53.1517C913.058 54.8312 912.786 56.1913 912.242 57.2321C911.722 58.2492 910.811 59.018 909.51 59.5384C908.233 60.0588 906.459 60.319 904.188 60.319H900.64C898.369 60.319 896.583 60.0588 895.282 59.5384C894.005 59.018 893.094 58.2492 892.55 57.2321C892.029 56.1913 891.769 54.8312 891.769 53.1517V49.6745C891.769 48.0187 892.029 46.6822 892.55 45.665C893.094 44.6242 894.005 43.8555 895.282 43.3587C896.583 42.8383 898.369 42.5781 900.64 42.5781H904.188C906.459 42.5781 908.233 42.8383 909.51 43.3587C910.811 43.8555 911.722 44.6242 912.242 45.665C912.786 46.6822 913.058 48.0187 913.058 49.6745V53.1517ZM901.81 42.5781V60.319H877.505V42.5781H901.81ZM884.637 21.2181C884.637 22.8976 884.365 24.2577 883.821 25.2985C883.301 26.3156 882.39 27.0844 881.089 27.6048C879.812 28.1252 878.038 28.3854 875.767 28.3854H872.219C869.948 28.3854 868.162 28.1252 866.861 27.6048C865.584 27.0844 864.673 26.3156 864.129 25.2985C863.608 24.2577 863.348 22.8976 863.348 21.2181V17.7409C863.348 16.0851 863.608 14.7486 864.129 13.7314C864.673 12.6906 865.584 11.9219 866.861 11.4251C868.162 10.9047 869.948 10.6445 872.219 10.6445H875.767C878.038 10.6445 879.812 10.9047 881.089 11.4251C882.39 11.9219 883.301 12.6906 883.821 13.7314C884.365 14.7486 884.637 16.0851 884.637 17.7409V21.2181ZM884.637 10.5736C884.637 12.253 884.365 13.6132 883.821 14.654C883.301 15.6711 882.39 16.4399 881.089 16.9603C879.812 17.4807 878.038 17.7409 875.767 17.7409H872.219C869.948 17.7409 868.162 17.4807 866.861 16.9603C865.584 16.4399 864.673 15.6711 864.129 14.654C863.608 13.6132 863.348 12.253 863.348 10.5736V7.09635C863.348 5.44054 863.608 4.10406 864.129 3.08691C864.673 2.04612 865.584 1.27734 866.861 0.780598C868.162 0.260198 869.948 0 872.219 0H875.767C878.038 0 879.812 0.260198 881.089 0.780598C882.39 1.27734 883.301 2.04612 883.821 3.08691C884.365 4.10406 884.637 5.44054 884.637 7.09635V10.5736ZM884.637 42.5072C884.637 44.1866 884.365 45.5468 883.821 46.5876C883.301 47.6047 882.39 48.3735 881.089 48.8939C879.812 49.4143 878.038 49.6745 875.767 49.6745H872.219C869.948 49.6745 868.162 49.4143 866.861 48.8939C865.584 48.3735 864.673 47.6047 864.129 46.5876C863.608 45.5468 863.348 44.1866 863.348 42.5072V39.0299C863.348 37.3741 863.608 36.0377 864.129 35.0205C864.673 33.9797 865.584 33.2109 866.861 32.7142C868.162 32.1938 869.948 31.9336 872.219 31.9336H875.767C878.038 31.9336 879.812 32.1938 881.089 32.7142C882.39 33.2109 883.301 33.9797 883.821 35.0205C884.365 36.0377 884.637 37.3741 884.637 39.0299V42.5072ZM884.637 53.1872C884.637 54.8666 884.365 56.2268 883.821 57.2676C883.301 58.2847 882.39 59.0535 881.089 59.5739C879.812 60.0943 878.038 60.3545 875.767 60.3545H872.219C869.948 60.3545 868.162 60.0943 866.861 59.5739C865.584 59.0535 864.673 58.2847 864.129 57.2676C863.608 56.2268 863.348 54.8666 863.348 53.1872V49.71C863.348 48.0541 863.608 46.7177 864.129 45.7005C864.673 44.6597 865.584 43.8909 866.861 43.3942C868.162 42.8738 869.948 42.6136 872.219 42.6136H875.767C878.038 42.6136 879.812 42.8738 881.089 43.3942C882.39 43.8909 883.301 44.6597 883.821 45.7005C884.365 46.7177 884.637 48.0541 884.637 49.71V53.1872ZM884.637 31.9691C884.637 33.6485 884.365 35.0087 883.821 36.0495C883.301 37.0666 882.39 37.8354 881.089 38.3558C879.812 38.8762 878.038 39.1364 875.767 39.1364H872.219C869.948 39.1364 868.162 38.8762 866.861 38.3558C865.584 37.8354 864.673 37.0666 864.129 36.0495C863.608 35.0087 863.348 33.6485 863.348 31.9691V28.4919C863.348 26.836 863.608 25.4996 864.129 24.4824C864.673 23.4416 865.584 22.6729 866.861 22.1761C868.162 21.6557 869.948 21.3955 872.219 21.3955H875.767C878.038 21.3955 879.812 21.6557 881.089 22.1761C882.39 22.6729 883.301 23.4416 883.821 24.4824C884.365 25.4996 884.637 26.836 884.637 28.4919V31.9691Z" fill="white"/>
<path d="M952.444 24.6953C952.444 26.3748 952.172 27.7349 951.628 28.7757C951.107 29.7929 950.197 30.5616 948.896 31.082C947.618 31.6024 945.844 31.8626 943.573 31.8626H940.025C937.754 31.8626 935.968 31.6024 934.667 31.082C933.39 30.5616 932.479 29.7929 931.935 28.7757C931.415 27.7349 931.155 26.3748 931.155 24.6953V21.2181C931.155 19.5623 931.415 18.2258 931.935 17.2087C932.479 16.1679 933.39 15.3991 934.667 14.9023C935.968 14.3819 937.754 14.1217 940.025 14.1217H943.573C945.844 14.1217 947.618 14.3819 948.896 14.9023C950.197 15.3991 951.107 16.1679 951.628 17.2087C952.172 18.2258 952.444 19.5623 952.444 21.2181V24.6953ZM952.444 10.5736C952.444 12.253 952.172 13.6132 951.628 14.654C951.107 15.6711 950.197 16.4399 948.896 16.9603C947.618 17.4807 945.844 17.7409 943.573 17.7409H940.025C937.754 17.7409 935.968 17.4807 934.667 16.9603C933.39 16.4399 932.479 15.6711 931.935 14.654C931.415 13.6132 931.155 12.253 931.155 10.5736V7.09635C931.155 5.44054 931.415 4.10406 931.935 3.08691C932.479 2.04612 933.39 1.27734 934.667 0.780598C935.968 0.260198 937.754 0 940.025 0H943.573C945.844 0 947.618 0.260198 948.896 0.780598C950.197 1.27734 951.107 2.04612 951.628 3.08691C952.172 4.10406 952.444 5.44054 952.444 7.09635V10.5736ZM952.444 38.959C952.444 40.6385 952.172 41.9986 951.628 43.0394C951.107 44.0565 950.197 44.8253 948.896 45.3457C947.618 45.8661 945.844 46.1263 943.573 46.1263H940.025C937.754 46.1263 935.968 45.8661 934.667 45.3457C933.39 44.8253 932.479 44.0565 931.935 43.0394C931.415 41.9986 931.155 40.6385 931.155 38.959V35.4818C931.155 33.8259 931.415 32.4895 931.935 31.4723C932.479 30.4315 933.39 29.6628 934.667 29.166C935.968 28.6456 937.754 28.3854 940.025 28.3854H943.573C945.844 28.3854 947.618 28.6456 948.896 29.166C950.197 29.6628 951.107 30.4315 951.628 31.4723C952.172 32.4895 952.444 33.8259 952.444 35.4818V38.959ZM952.444 53.1872C952.444 54.8666 952.172 56.2268 951.628 57.2676C951.107 58.2847 950.197 59.0535 948.896 59.5739C947.618 60.0943 945.844 60.3545 943.573 60.3545H940.025C937.754 60.3545 935.968 60.0943 934.667 59.5739C933.39 59.0535 932.479 58.2847 931.935 57.2676C931.415 56.2268 931.155 54.8666 931.155 53.1872V49.71C931.155 48.0541 931.415 46.7177 931.935 45.7005C932.479 44.6597 933.39 43.8909 934.667 43.3942C935.968 42.8738 937.754 42.6136 940.025 42.6136H943.573C945.844 42.6136 947.618 42.8738 948.896 43.3942C950.197 43.8909 951.107 44.6597 951.628 45.7005C952.172 46.7177 952.444 48.0541 952.444 49.71V53.1872ZM952.408 53.1517C952.408 54.8312 952.136 56.1913 951.592 57.2321C951.072 58.2492 950.161 59.018 948.86 59.5384C947.583 60.0588 945.809 60.319 943.538 60.319H939.99C937.719 60.319 935.933 60.0588 934.632 59.5384C933.354 59.018 932.444 58.2492 931.9 57.2321C931.379 56.1913 931.119 54.8312 931.119 53.1517V49.6745C931.119 48.0187 931.379 46.6822 931.9 45.665C932.444 44.6242 933.354 43.8555 934.632 43.3587C935.933 42.8383 937.719 42.5781 939.99 42.5781H943.538C945.809 42.5781 947.583 42.8383 948.86 43.3587C950.161 43.8555 951.072 44.6242 951.592 45.665C952.136 46.6822 952.408 48.0187 952.408 49.6745V53.1517ZM977.21 53.1517C977.21 54.8312 976.938 56.1913 976.394 57.2321C975.873 58.2492 974.963 59.018 973.662 59.5384C972.384 60.0588 970.61 60.319 968.34 60.319H964.791C962.52 60.319 960.735 60.0588 959.434 59.5384C958.156 59.018 957.246 58.2492 956.701 57.2321C956.181 56.1913 955.921 54.8312 955.921 53.1517V49.6745C955.921 48.0187 956.181 46.6822 956.701 45.665C957.246 44.6242 958.156 43.8555 959.434 43.3587C960.735 42.8383 962.52 42.5781 964.791 42.5781H968.34C970.61 42.5781 972.384 42.8383 973.662 43.3587C974.963 43.8555 975.873 44.6242 976.394 45.665C976.938 46.6822 977.21 48.0187 977.21 49.6745V53.1517ZM965.962 42.5781V60.319H941.657V42.5781H965.962Z" fill="white"/>
<path d="M1013.15 53.1872C1013.15 54.8666 1012.88 56.2268 1012.34 57.2676C1011.82 58.2847 1010.91 59.0535 1009.61 59.5739C1008.33 60.0943 1006.55 60.3545 1004.28 60.3545H1000.74C998.464 60.3545 996.678 60.0943 995.377 59.5739C994.1 59.0535 993.189 58.2847 992.645 57.2676C992.125 56.2268 991.865 54.8666 991.865 53.1872V49.71C991.865 48.0541 992.125 46.7177 992.645 45.7005C993.189 44.6597 994.1 43.8909 995.377 43.3942C996.678 42.8738 998.464 42.6136 1000.74 42.6136H1004.28C1006.55 42.6136 1008.33 42.8738 1009.61 43.3942C1010.91 43.8909 1011.82 44.6597 1012.34 45.7005C1012.88 46.7177 1013.15 48.0541 1013.15 49.71V53.1872ZM1037.96 53.1872C1037.96 54.8666 1037.68 56.2268 1037.14 57.2676C1036.62 58.2847 1035.71 59.0535 1034.41 59.5739C1033.13 60.0943 1031.36 60.3545 1029.08 60.3545H1025.54C1023.27 60.3545 1021.48 60.0943 1020.18 59.5739C1018.9 59.0535 1017.99 58.2847 1017.45 57.2676C1016.93 56.2268 1016.67 54.8666 1016.67 53.1872V49.71C1016.67 48.0541 1016.93 46.7177 1017.45 45.7005C1017.99 44.6597 1018.9 43.8909 1020.18 43.3942C1021.48 42.8738 1023.27 42.6136 1025.54 42.6136H1029.08C1031.36 42.6136 1033.13 42.8738 1034.41 43.3942C1035.71 43.8909 1036.62 44.6597 1037.14 45.7005C1037.68 46.7177 1037.96 48.0541 1037.96 49.71V53.1872ZM1026.71 42.6136V60.3545H1002.4V42.6136H1026.71ZM1013.15 10.609C1013.15 12.2885 1012.88 13.6487 1012.34 14.6895C1011.82 15.7066 1010.91 16.4754 1009.61 16.9958C1008.33 17.5162 1006.55 17.7764 1004.28 17.7764H1000.74C998.464 17.7764 996.678 17.5162 995.377 16.9958C994.1 16.4754 993.189 15.7066 992.645 14.6895C992.125 13.6487 991.865 12.2885 991.865 10.609V7.13183C991.865 5.47602 992.125 4.13954 992.645 3.1224C993.189 2.0816 994.1 1.31282 995.377 0.81608C996.678 0.295681 998.464 0.0354824 1000.74 0.0354824H1004.28C1006.55 0.0354824 1008.33 0.295681 1009.61 0.81608C1010.91 1.31282 1011.82 2.0816 1012.34 3.1224C1012.88 4.13954 1013.15 5.47602 1013.15 7.13183V10.609ZM1037.96 10.609C1037.96 12.2885 1037.68 13.6487 1037.14 14.6895C1036.62 15.7066 1035.71 16.4754 1034.41 16.9958C1033.13 17.5162 1031.36 17.7764 1029.08 17.7764H1025.54C1023.27 17.7764 1021.48 17.5162 1020.18 16.9958C1018.9 16.4754 1017.99 15.7066 1017.45 14.6895C1016.93 13.6487 1016.67 12.2885 1016.67 10.609V7.13183C1016.67 5.47602 1016.93 4.13954 1017.45 3.1224C1017.99 2.0816 1018.9 1.31282 1020.18 0.81608C1021.48 0.295681 1023.27 0.0354824 1025.54 0.0354824H1029.08C1031.36 0.0354824 1033.13 0.295681 1034.41 0.81608C1035.71 1.31282 1036.62 2.0816 1037.14 3.1224C1037.68 4.13954 1037.96 5.47602 1037.96 7.13183V10.609ZM1026.71 0.0354824V17.7764H1002.4V0.0354824H1026.71ZM1029.37 31.8626C1029.37 33.5421 1029.1 34.9022 1028.55 35.943C1028.03 36.9602 1027.12 37.729 1025.82 38.2494C1024.54 38.7698 1022.77 39.0299 1020.5 39.0299H1016.95C1014.68 39.0299 1012.89 38.7698 1011.59 38.2494C1010.32 37.729 1009.4 36.9602 1008.86 35.943C1008.34 34.9022 1008.08 33.5421 1008.08 31.8626V28.3854C1008.08 26.7296 1008.34 25.3931 1008.86 24.376C1009.4 23.3352 1010.32 22.5664 1011.59 22.0697C1012.89 21.5493 1014.68 21.2891 1016.95 21.2891H1020.5C1022.77 21.2891 1024.54 21.5493 1025.82 22.0697C1027.12 22.5664 1028.03 23.3352 1028.55 24.376C1029.1 25.3931 1029.37 26.7296 1029.37 28.3854V31.8626ZM1018.12 21.3245V39.0299H1002.76V21.3245H1018.12ZM1009.5 21.2181C1009.5 22.8976 1009.23 24.2577 1008.68 25.2985C1008.16 26.3156 1007.25 27.0844 1005.95 27.6048C1004.67 28.1252 1002.9 28.3854 1000.63 28.3854H997.08C994.81 28.3854 993.024 28.1252 991.723 27.6048C990.445 27.0844 989.535 26.3156 988.991 25.2985C988.47 24.2577 988.21 22.8976 988.21 21.2181V17.7409C988.21 16.0851 988.47 14.7486 988.991 13.7314C989.535 12.6906 990.445 11.9219 991.723 11.4251C993.024 10.9047 994.81 10.6445 997.08 10.6445H1000.63C1002.9 10.6445 1004.67 10.9047 1005.95 11.4251C1007.25 11.9219 1008.16 12.6906 1008.68 13.7314C1009.23 14.7486 1009.5 16.0851 1009.5 17.7409V21.2181ZM1009.5 10.5736C1009.5 12.253 1009.23 13.6132 1008.68 14.654C1008.16 15.6711 1007.25 16.4399 1005.95 16.9603C1004.67 17.4807 1002.9 17.7409 1000.63 17.7409H997.08C994.81 17.7409 993.024 17.4807 991.723 16.9603C990.445 16.4399 989.535 15.6711 988.991 14.654C988.47 13.6132 988.21 12.253 988.21 10.5736V7.09635C988.21 5.44054 988.47 4.10406 988.991 3.08691C989.535 2.04612 990.445 1.27734 991.723 0.7806C993.024 0.2602 994.81 0 997.08 0H1000.63C1002.9 0 1004.67 0.2602 1005.95 0.7806C1007.25 1.27734 1008.16 2.04612 1008.68 3.08691C1009.23 4.10406 1009.5 5.44054 1009.5 7.09635V10.5736ZM1009.5 42.5072C1009.5 44.1866 1009.23 45.5468 1008.68 46.5876C1008.16 47.6047 1007.25 48.3735 1005.95 48.8939C1004.67 49.4143 1002.9 49.6745 1000.63 49.6745H997.08C994.81 49.6745 993.024 49.4143 991.723 48.8939C990.445 48.3735 989.535 47.6047 988.991 46.5876C988.47 45.5468 988.21 44.1866 988.21 42.5072V39.0299C988.21 37.3741 988.47 36.0377 988.991 35.0205C989.535 33.9797 990.445 33.2109 991.723 32.7142C993.024 32.1938 994.81 31.9336 997.08 31.9336H1000.63C1002.9 31.9336 1004.67 32.1938 1005.95 32.7142C1007.25 33.2109 1008.16 33.9797 1008.68 35.0205C1009.23 36.0377 1009.5 37.3741 1009.5 39.0299V42.5072ZM1009.5 53.1872C1009.5 54.8666 1009.23 56.2268 1008.68 57.2676C1008.16 58.2847 1007.25 59.0535 1005.95 59.5739C1004.67 60.0943 1002.9 60.3545 1000.63 60.3545H997.08C994.81 60.3545 993.024 60.0943 991.723 59.5739C990.445 59.0535 989.535 58.2847 988.991 57.2676C988.47 56.2268 988.21 54.8666 988.21 53.1872V49.71C988.21 48.0541 988.47 46.7177 988.991 45.7005C989.535 44.6597 990.445 43.8909 991.723 43.3942C993.024 42.8738 994.81 42.6136 997.08 42.6136H1000.63C1002.9 42.6136 1004.67 42.8738 1005.95 43.3942C1007.25 43.8909 1008.16 44.6597 1008.68 45.7005C1009.23 46.7177 1009.5 48.0541 1009.5 49.71V53.1872ZM1009.5 31.9691C1009.5 33.6485 1009.23 35.0087 1008.68 36.0495C1008.16 37.0666 1007.25 37.8354 1005.95 38.3558C1004.67 38.8762 1002.9 39.1364 1000.63 39.1364H997.08C994.81 39.1364 993.024 38.8762 991.723 38.3558C990.445 37.8354 989.535 37.0666 988.991 36.0495C988.47 35.0087 988.21 33.6485 988.21 31.9691V28.4919C988.21 26.836 988.47 25.4996 988.991 24.4824C989.535 23.4416 990.445 22.6729 991.723 22.1761C993.024 21.6557 994.81 21.3955 997.08 21.3955H1000.63C1002.9 21.3955 1004.67 21.6557 1005.95 22.1761C1007.25 22.6729 1008.16 23.4416 1008.68 24.4824C1009.23 25.4996 1009.5 26.836 1009.5 28.4919V31.9691Z" fill="white"/>
</svg>
