<svg width="692" height="188" viewBox="0 0 692 188" fill="none" xmlns="http://www.w3.org/2000/svg">
<path d="M44 0V92H32V0H44ZM0 176H92V188H0V176ZM0 0H28V12H0V0ZM32 96H44V172H32V96ZM48 32C57.75 32 64.7917 31.25 69.125 29.75C73.4583 28.25 76.3333 25.375 77.75 21.125C79.25 16.7917 80 9.75 80 0H92C92 12.4167 90.7917 21.6667 88.375 27.75C86.0417 33.8333 81.8333 38.0833 75.75 40.5C69.6667 42.8333 60.4167 44 48 44V32Z" fill="white"/>
<path d="M148 0C160.417 0 169.667 1.20833 175.75 3.625C181.833 5.95833 186.042 10.1667 188.375 16.25C190.792 22.3333 192 31.5833 192 44H180C180 34.25 179.25 27.25 177.75 23C176.333 18.6667 173.458 15.75 169.125 14.25C164.792 12.75 157.75 12 148 12V0ZM112 144C112 153.75 112.708 160.792 114.125 165.125C115.625 169.375 118.542 172.25 122.875 173.75C127.208 175.25 134.25 176 144 176V188C131.583 188 122.333 186.833 116.25 184.5C110.167 182.083 105.917 177.833 103.5 171.75C101.167 165.667 100 156.417 100 144H112ZM100 112H112V140H100V112ZM100 96H192V108H100V96ZM100 48H112V92H100V48ZM100 44C100 31.5833 101.167 22.3333 103.5 16.25C105.917 10.1667 110.167 5.95833 116.25 3.625C122.333 1.20833 131.583 0 144 0V12C134.25 12 127.208 12.75 122.875 14.25C118.542 15.75 115.625 18.6667 114.125 23C112.708 27.25 112 34.25 112 44H100ZM148 176C157.75 176 164.75 175.292 169 173.875C173.333 172.375 176.25 169.458 177.75 165.125C179.25 160.792 180 153.75 180 144H192C192 156.417 190.792 165.667 188.375 171.75C186.042 177.833 181.833 182.083 175.75 184.5C169.667 186.833 160.417 188 148 188V176ZM180 48H192V92H180V48Z" fill="white"/>
<path d="M200 48H292V60H200V48ZM244 160C244 166 245.167 170.167 247.5 172.5C249.833 174.833 254 176 260 176V188C250 188 242.833 185.833 238.5 181.5C234.167 177.167 232 170 232 160H244ZM232 96H244V156H232V96ZM232 64H244V92H232V64ZM232 0H244V44H232V0ZM264 176H292V188H264V176Z" fill="white"/>
<path d="M346 20C339.333 20 336 16.6667 336 10C336 3.33333 339.333 0 346 0C352.667 0 356 3.33333 356 10C356 13.8333 355.208 16.4583 353.625 17.875C352.125 19.2917 349.583 20 346 20ZM300 176H392V188H300V176ZM300 48H392V60H300V48ZM340 96H352V172H340V96ZM340 64H352V92H340V64Z" fill="white"/>
<path d="M412 0V92H400V0H412ZM412 144C412 153.75 412.708 160.792 414.125 165.125C415.625 169.375 418.542 172.25 422.875 173.75C427.208 175.25 434.25 176 444 176V188C431.583 188 422.333 186.833 416.25 184.5C410.167 182.083 405.917 177.833 403.5 171.75C401.167 165.667 400 156.417 400 144H412ZM400 96H412V140H400V96ZM448 176C457.75 176 464.792 175.25 469.125 173.75C473.458 172.25 476.333 169.375 477.75 165.125C479.25 160.792 480 153.75 480 144H492C492 156.417 490.792 165.667 488.375 171.75C486.042 177.833 481.833 182.083 475.75 184.5C469.667 186.833 460.417 188 448 188V176Z" fill="white"/>
<path d="M548 0C560.417 0 569.667 1.20833 575.75 3.625C581.833 5.95833 586.042 10.1667 588.375 16.25C590.792 22.3333 592 31.5833 592 44H580C580 34.25 579.25 27.25 577.75 23C576.333 18.6667 573.458 15.75 569.125 14.25C564.792 12.75 557.75 12 548 12V0ZM512 144C512 153.75 512.708 160.792 514.125 165.125C515.625 169.375 518.542 172.25 522.875 173.75C527.208 175.25 534.25 176 544 176V188C531.583 188 522.333 186.833 516.25 184.5C510.167 182.083 505.917 177.833 503.5 171.75C501.167 165.667 500 156.417 500 144H512ZM500 112H512V140H500V112ZM500 96H592V108H500V96ZM500 48H512V92H500V48ZM500 44C500 31.5833 501.167 22.3333 503.5 16.25C505.917 10.1667 510.167 5.95833 516.25 3.625C522.333 1.20833 531.583 0 544 0V12C534.25 12 527.208 12.75 522.875 14.25C518.542 15.75 515.625 18.6667 514.125 23C512.708 27.25 512 34.25 512 44H500ZM548 176C557.75 176 564.75 175.292 569 173.875C573.333 172.375 576.25 169.458 577.75 165.125C579.25 160.792 580 153.75 580 144H592C592 156.417 590.792 165.667 588.375 171.75C586.042 177.833 581.833 182.083 575.75 184.5C569.667 186.833 560.417 188 548 188V176ZM580 48H592V92H580V48Z" fill="white"/>
<path d="M644 0V92H632V0H644ZM600 176H692V188H600V176ZM600 0H628V12H600V0ZM632 96H644V172H632V96ZM648 32C657.75 32 664.792 31.25 669.125 29.75C673.458 28.25 676.333 25.375 677.75 21.125C679.25 16.7917 680 9.75 680 0H692C692 12.4167 690.792 21.6667 688.375 27.75C686.042 33.8333 681.833 38.0833 675.75 40.5C669.667 42.8333 660.417 44 648 44V32Z" fill="white"/>
</svg>
