<svg width="1920" height="1480" viewBox="0 0 1920 1480" fill="none" xmlns="http://www.w3.org/2000/svg">
<g clip-path="url(#clip0_438_588)">
<rect width="1920" height="1480" fill="#2B2B2B"/>
<path d="M568.775 594.543V352.869H677.873C705.953 352.869 726.783 359.314 740.363 372.203C754.173 384.862 761.078 403.851 761.078 429.169C761.078 446.432 757.395 460.817 750.03 472.325C742.665 483.603 732.077 492.35 718.267 498.564L764.876 594.543H706.874L664.408 506.85H622.633V594.543H568.775ZM677.873 461.968C687.31 461.968 694.33 459.321 698.933 454.027C703.537 448.503 705.838 440.217 705.838 429.169C705.838 418.351 703.537 410.411 698.933 405.347C694.33 400.283 687.31 397.752 677.873 397.752H622.633V461.968H677.873ZM793.078 579.007C779.268 564.967 772.363 543.446 772.363 514.445V499.6C772.363 470.829 779.613 449.769 794.114 436.419C808.844 423.07 831.286 416.395 861.437 416.395C889.057 416.395 910.117 422.494 924.618 434.693C939.118 446.892 946.368 465.19 946.368 489.588V520.66H826.567C826.567 534.7 829.329 545.057 834.853 551.732C840.377 558.177 850.044 561.399 863.854 561.399C873.751 561.399 881.001 560.248 885.605 557.947C890.208 555.645 892.509 551.732 892.509 546.208C892.509 545.057 892.164 542.065 891.474 537.232H941.535C942.686 541.145 943.261 545.633 943.261 550.696C943.261 566.578 937.507 578.777 925.999 587.293C914.49 595.809 893.775 600.067 863.854 600.067C830.48 600.067 806.888 593.047 793.078 579.007ZM835.544 462.313C830.25 466.916 827.603 475.317 827.603 487.516H895.962C895.962 475.778 892.97 467.492 886.986 462.658C881.001 457.595 872.485 455.063 861.437 455.063C849.699 455.063 841.068 457.48 835.544 462.313ZM1077.9 460.242H1030.95V538.613C1030.95 547.819 1032.21 553.919 1034.75 556.911C1037.51 559.903 1042.46 561.399 1049.59 561.399C1055.58 561.399 1063.98 560.248 1074.8 557.947L1077.9 557.256V596.269L1075.14 596.614C1069.85 597.535 1063.29 598.341 1055.46 599.031C1047.64 599.722 1041.31 600.067 1036.47 600.067C1022.89 600.067 1012.19 598.226 1004.36 594.543C996.769 591.09 991.245 584.991 987.793 576.245C984.34 567.499 982.614 554.955 982.614 538.613V460.242H948.434V421.574H982.614V366.679H1030.95V421.574H1077.9V460.242ZM1090.97 594.543V421.919H1139.31V447.813H1141.38C1147.13 438.836 1153.35 432.276 1160.02 428.133C1166.69 423.99 1176.82 421.919 1190.4 421.919H1214.57V460.587H1181.43C1169.23 460.587 1159.1 464.039 1151.04 470.944C1143.22 477.849 1139.31 487.976 1139.31 501.326V594.543H1090.97ZM1249.54 663.593L1276.12 594.543L1213.98 422.264H1265.42L1297.53 516.517L1302.02 534.125H1303.4L1307.89 516.172L1337.58 421.919H1385.91L1299.95 663.593H1249.54ZM638.573 807.398C636.271 816.604 635.12 825.12 635.12 832.946C635.12 844.224 639.033 851.934 646.859 856.077C654.915 859.99 667.919 861.947 685.872 861.947C704.285 861.947 717.174 859.99 724.54 856.077C732.135 852.165 735.933 844.454 735.933 832.946C735.933 825.35 734.667 819.711 732.135 816.029C729.603 812.116 725.921 809.354 721.087 807.743C716.254 806.132 708.198 804.29 696.92 802.219L649.276 793.588C635.926 791.286 624.303 787.143 614.406 781.159C604.739 774.944 597.143 766.773 591.619 756.646C586.325 746.289 583.678 733.86 583.678 719.359C583.678 697.494 590.814 680.692 605.084 668.953C619.584 657.215 644.442 651.345 679.657 651.345C716.254 651.345 742.377 657.33 758.029 669.298C773.91 681.037 781.851 697.724 781.851 719.359V729.026H725.23V724.193C725.23 712.684 721.663 704.514 714.527 699.68C707.392 694.616 695.769 692.085 679.657 692.085C665.157 692.085 654.684 693.811 648.24 697.263C642.025 700.486 638.918 706.7 638.918 715.907C638.918 720.74 639.724 724.768 641.335 727.99C642.946 731.213 645.363 733.745 648.585 735.586C652.038 737.427 656.411 738.808 661.704 739.729L709.349 747.67C736.738 752.273 757.223 761.134 770.803 774.254C784.383 787.373 791.172 805.786 791.172 829.493C791.172 855.272 782.311 873.915 764.588 885.424C747.096 896.932 719.936 902.686 683.11 902.686C658.712 902.686 638.918 900.269 623.727 895.436C608.766 890.372 597.719 882.546 590.583 871.959C583.448 861.141 579.881 846.986 579.881 829.493C579.881 821.207 581.032 813.842 583.333 807.398H638.573ZM872.438 904.067C856.556 904.067 843.322 901.19 832.734 895.436C822.377 889.451 814.551 880.36 809.258 868.161C804.194 855.732 801.662 839.851 801.662 820.517V812.231H852.068V814.993C852.068 834.097 855.06 847.331 861.045 854.696C867.029 861.832 876.926 865.399 890.736 865.399C901.093 865.399 909.149 864.018 914.903 861.256C920.888 858.264 925.261 853.315 928.023 846.411C930.785 839.275 932.166 829.148 932.166 816.029V812.576H936.309V874.721H930.094C924.34 884.618 917.205 891.983 908.689 896.817C900.403 901.65 888.319 904.067 872.438 904.067ZM932.166 898.543V725.919H980.501V898.543H932.166ZM872.438 720.395C888.319 720.395 900.403 722.812 908.689 727.645C917.205 732.479 924.34 739.844 930.094 749.741H936.309V811.886H932.166V808.433C932.166 795.314 930.785 785.302 928.023 778.397C925.261 771.262 920.888 766.313 914.903 763.551C909.149 760.559 901.093 759.063 890.736 759.063C876.926 759.063 867.029 762.745 861.045 770.111C855.06 777.246 852.068 790.365 852.068 809.469V812.231H801.662V803.945C801.662 784.611 804.194 768.845 809.258 756.646C814.551 744.217 822.377 735.126 832.734 729.371C843.322 723.387 856.556 720.395 872.438 720.395ZM1001.99 898.543V725.919H1050.33V750.432H1052.06C1058.5 738.923 1066.1 731.098 1074.84 726.955C1083.82 722.582 1094.98 720.395 1108.33 720.395C1129.28 720.395 1144.81 725.228 1154.94 734.895C1165.3 744.562 1170.48 759.868 1170.48 780.813V898.543H1122.14V797.385C1122.14 784.036 1119.38 774.369 1113.86 768.384C1108.56 762.17 1099.93 759.063 1087.96 759.063C1074.61 759.063 1064.95 762.17 1058.96 768.384C1053.21 774.369 1050.33 784.036 1050.33 797.385V898.543H1001.99ZM1236.69 835.017C1234.85 840.541 1233.93 844.684 1233.93 847.446C1233.93 853.661 1236.58 858.264 1241.87 861.256C1247.17 864.018 1255.22 865.399 1266.04 865.399C1275.94 865.399 1283.42 864.939 1288.48 864.018C1293.77 862.867 1297.34 861.141 1299.18 858.839C1301.25 856.538 1302.29 853.085 1302.29 848.482C1302.29 843.879 1300.68 840.081 1297.46 837.089C1294.46 833.867 1289.86 831.68 1283.65 830.529L1234.28 820.862C1219.78 818.1 1208.5 813.152 1200.44 806.017C1192.62 798.651 1188.7 788.294 1188.7 774.944C1188.7 755.61 1194.69 741.685 1206.66 733.169C1218.63 724.653 1238.42 720.395 1266.04 720.395C1293.89 720.395 1313.68 726.264 1325.42 738.003C1337.39 749.741 1343.37 764.242 1343.37 781.504H1292.97C1292.97 773.448 1290.32 767.694 1285.03 764.242C1279.96 760.789 1272.83 759.063 1263.62 759.063C1254.65 759.063 1248.32 760.444 1244.63 763.206C1240.95 765.738 1239.11 769.65 1239.11 774.944C1239.11 779.547 1240.38 783 1242.91 785.302C1245.67 787.603 1250.04 789.33 1256.03 790.48L1302.64 798.766C1316.45 801.068 1328.18 806.477 1337.85 814.993C1347.75 823.509 1352.7 835.132 1352.7 849.863C1352.7 864.363 1349.7 875.526 1343.72 883.352C1337.74 891.178 1328.53 896.587 1316.1 899.579C1303.67 902.571 1286.98 904.067 1266.04 904.067C1237.96 904.067 1217.13 900.499 1203.55 893.364C1190.2 886.229 1183.53 873.11 1183.53 854.006C1183.53 846.871 1184.56 840.887 1186.63 836.053C1186.63 835.823 1186.63 835.708 1186.63 835.708C1186.86 835.478 1186.98 835.248 1186.98 835.017H1236.69Z" fill="#C4FF46"/>
<path d="M101.455 286.846H55.8825L-29.739 45.1726H2.02378L71.7639 244.381L78.3236 265.096H79.7046L85.919 244.381L156.004 45.1726H188.112L101.455 286.846ZM241.61 290.989C228.72 290.989 216.982 288.112 206.394 282.358C196.037 276.374 187.751 267.512 181.537 255.774C175.552 243.805 172.56 229.305 172.56 212.273V188.796C172.56 171.764 175.552 157.378 181.537 145.64C187.751 133.671 196.037 124.81 206.394 119.056C216.982 113.071 228.72 110.079 241.61 110.079C254.959 110.079 266.237 112.151 275.444 116.294C284.651 120.437 292.476 126.766 298.921 135.282H300.992V114.222H327.922V286.846H300.992V265.786H298.921C292.476 274.302 284.651 280.632 275.444 284.775C266.237 288.918 254.959 290.989 241.61 290.989ZM201.561 203.987C201.561 224.471 205.704 240.008 213.99 250.595C222.506 260.953 234.935 266.131 251.277 266.131C267.618 266.131 279.932 260.953 288.218 250.595C296.734 240.008 300.992 224.471 300.992 203.987V197.082C300.992 176.597 296.734 161.176 288.218 150.818C279.932 140.231 267.618 134.937 251.277 134.937C234.935 134.937 222.506 140.231 213.99 150.818C205.704 161.176 201.561 176.597 201.561 197.082V203.987ZM356.397 286.846V114.222H383.326V143.914H385.052C391.267 134.016 398.862 126.536 407.838 121.472C416.815 116.409 429.129 113.877 444.78 113.877H462.733V138.735H436.149C400.934 138.735 383.326 160.14 383.326 202.951V286.846H356.397ZM484.521 286.846V114.222H511.451V286.846H484.521ZM481.414 45.1726H515.939V79.6974H481.414V45.1726ZM606.885 290.989C593.995 290.989 582.257 288.112 571.669 282.358C561.312 276.374 553.026 267.512 546.812 255.774C540.827 243.805 537.835 229.305 537.835 212.273V188.796C537.835 171.764 540.827 157.378 546.812 145.64C553.026 133.671 561.312 124.81 571.669 119.056C582.257 113.071 593.995 110.079 606.885 110.079C620.234 110.079 631.512 112.151 640.719 116.294C649.926 120.437 657.751 126.766 664.196 135.282H666.267V114.222H693.197V286.846H666.267V265.786H664.196C657.751 274.302 649.926 280.632 640.719 284.775C631.512 288.918 620.234 290.989 606.885 290.989ZM566.836 203.987C566.836 224.471 570.979 240.008 579.265 250.595C587.781 260.953 600.21 266.131 616.552 266.131C632.893 266.131 645.207 260.953 653.493 250.595C662.009 240.008 666.267 224.471 666.267 203.987V197.082C666.267 176.597 662.009 161.176 653.493 150.818C645.207 140.231 632.893 134.937 616.552 134.937C600.21 134.937 587.781 140.231 579.265 150.818C570.979 161.176 566.836 176.597 566.836 197.082V203.987ZM807.984 290.989C794.634 290.989 783.356 288.918 774.149 284.775C764.943 280.632 757.117 274.302 750.672 265.786H748.601V286.846H721.672V45.1726H748.601V135.282H750.672C757.117 126.766 764.943 120.437 774.149 116.294C783.356 112.151 794.634 110.079 807.984 110.079C820.873 110.079 832.496 113.071 842.854 119.056C853.441 124.81 861.727 133.671 867.711 145.64C873.926 157.378 877.033 171.764 877.033 188.796V212.273C877.033 229.305 873.926 243.805 867.711 255.774C861.727 267.512 853.441 276.374 842.854 282.358C832.496 288.112 820.873 290.989 807.984 290.989ZM748.601 203.987C748.601 224.471 752.744 240.008 761.03 250.595C769.546 260.953 781.975 266.131 798.317 266.131C814.658 266.131 826.972 260.953 835.258 250.595C843.774 240.008 848.032 224.471 848.032 203.987V197.082C848.032 176.597 843.774 161.176 835.258 150.818C826.972 140.231 814.658 134.937 798.317 134.937C781.975 134.937 769.546 140.231 761.03 150.818C752.744 161.176 748.601 176.597 748.601 197.082V203.987ZM898.948 286.846V45.1726H925.878V286.846H898.948ZM966.258 270.274C953.829 256.234 947.615 236.095 947.615 209.856V191.213C947.615 162.902 954.174 142.302 967.294 129.413C980.643 116.524 1000.32 110.079 1026.33 110.079C1050.73 110.079 1069.72 116.639 1083.3 129.758C1097.11 142.648 1103.9 160.946 1103.67 184.653V209.511H976.616C976.616 231.607 981.449 246.567 991.116 254.393C1000.78 262.219 1013.79 266.131 1030.13 266.131C1042.33 266.131 1051.76 263.945 1058.44 259.572C1065.11 254.968 1068.45 248.869 1068.45 241.273C1068.45 238.051 1068.11 234.714 1067.42 231.261H1096.42C1097.11 236.095 1097.45 239.662 1097.45 241.964C1097.45 259.226 1091.81 271.77 1080.54 279.596C1069.26 287.191 1051.19 290.989 1026.33 290.989C998.711 290.989 978.687 284.084 966.258 270.274ZM990.426 146.676C981.219 154.271 976.616 166.93 976.616 184.653H1074.67C1074.67 166.93 1070.18 154.271 1061.2 146.676C1052.22 138.85 1040.6 134.937 1026.33 134.937C1011.83 134.937 999.862 138.85 990.426 146.676Z" fill="#1E1E1E"/>
<path d="M-362.419 351.02H-278.869C-254.932 351.02 -235.253 354.587 -219.832 361.722C-204.411 368.858 -192.672 381.287 -184.617 399.009C-176.561 416.732 -172.533 441.014 -172.533 471.857C-172.533 502.699 -176.561 526.981 -184.617 544.704C-192.672 562.427 -204.411 574.856 -219.832 581.991C-235.253 589.126 -254.932 592.693 -278.869 592.693H-362.419V351.02ZM-278.869 566.455C-261.377 566.455 -247.337 563.808 -236.749 558.514C-226.161 553.22 -218.221 543.668 -212.927 529.858C-207.633 516.048 -204.986 496.714 -204.986 471.857C-204.986 446.999 -207.633 427.665 -212.927 413.855C-218.221 400.045 -226.161 390.493 -236.749 385.199C-247.337 379.906 -261.377 377.259 -278.869 377.259H-332.037V566.455H-278.869ZM-144.5 592.693V420.069H-117.571V592.693H-144.5ZM-147.608 351.02H-113.083V385.545H-147.608V351.02ZM64.1751 592.693C64.4052 619.393 58.3059 638.266 45.8769 649.314C33.448 660.362 14.5744 665.886 -10.7437 665.886C-38.1334 665.886 -57.5824 662.203 -69.0907 654.838C-80.3688 647.473 -86.0078 635.274 -86.0078 618.242C-86.0078 615.019 -85.7776 612.142 -85.3173 609.611C-84.857 607.309 -84.5117 605.352 -84.2816 603.741H-55.2807V604.432C-56.4316 611.337 -57.007 616.515 -57.007 619.968C-57.007 626.873 -53.5545 631.937 -46.6495 635.159C-39.5144 638.611 -27.4307 640.338 -10.3985 640.338C3.41142 640.338 13.6538 638.726 20.3286 635.504C27.0034 632.512 31.4916 627.678 33.7932 621.004C36.0949 614.559 37.2457 605.122 37.2457 592.693V571.633H35.1742C28.7296 580.149 20.904 586.479 11.6974 590.622C2.49076 594.765 -8.78734 596.836 -22.1369 596.836C-35.0262 596.836 -46.7646 593.959 -57.3522 588.205C-67.7097 582.221 -75.9956 573.359 -82.2101 561.621C-88.1944 549.652 -91.1865 535.152 -91.1865 518.12V494.643C-91.1865 477.611 -88.1944 463.225 -82.2101 451.487C-75.9956 439.518 -67.7097 430.657 -57.3522 424.903C-46.7646 418.919 -35.0262 415.926 -22.1369 415.926C-8.78734 415.926 2.49076 417.998 11.6974 422.141C20.904 426.284 28.7296 432.613 35.1742 441.13H37.2457V420.069H64.1751V592.693ZM-62.1857 509.834C-62.1857 530.319 -58.0427 545.855 -49.7568 556.442C-41.2406 566.8 -28.8117 571.978 -12.47 571.978C3.87175 571.978 16.1856 566.8 24.4716 556.442C32.9877 545.855 37.2457 530.319 37.2457 509.834V502.929C37.2457 482.444 32.9877 467.023 24.4716 456.666C16.1856 446.078 3.87175 440.784 -12.47 440.784C-28.8117 440.784 -41.2406 446.078 -49.7568 456.666C-58.0427 467.023 -62.1857 482.444 -62.1857 502.929V509.834ZM95.7572 592.693V420.069H122.686V592.693H95.7572ZM92.6499 351.02H127.175V385.545H92.6499V351.02ZM254.372 445.272H202.93V542.632C202.93 553.45 204.541 560.931 207.763 565.074C211.216 569.216 216.394 571.288 223.299 571.288C231.815 571.288 242.173 569.677 254.372 566.455V592.693C249.538 593.614 244.244 594.535 238.49 595.455C232.966 596.376 227.903 596.836 223.299 596.836C206.727 596.836 194.644 593.384 187.048 586.479C179.683 579.344 176 567.03 176 549.537V445.272H139.404V420.069H176V351.02H202.93V420.069H254.372V445.272ZM335.383 596.836C322.494 596.836 310.756 593.959 300.168 588.205C289.811 582.221 281.525 573.359 275.31 561.621C269.326 549.652 266.334 535.152 266.334 518.12V494.643C266.334 477.611 269.326 463.225 275.31 451.487C281.525 439.518 289.811 430.657 300.168 424.903C310.756 418.919 322.494 415.926 335.383 415.926C348.733 415.926 360.011 417.998 369.218 422.141C378.424 426.284 386.25 432.613 392.695 441.13H394.766V420.069H421.695V592.693H394.766V571.633H392.695C386.25 580.149 378.424 586.479 369.218 590.622C360.011 594.765 348.733 596.836 335.383 596.836ZM295.335 509.834C295.335 530.319 299.478 545.855 307.764 556.442C316.28 566.8 328.709 571.978 345.05 571.978C361.392 571.978 373.706 566.8 381.992 556.442C390.508 545.855 394.766 530.319 394.766 509.834V502.929C394.766 482.444 390.508 467.023 381.992 456.666C373.706 446.078 361.392 440.784 345.05 440.784C328.709 440.784 316.28 446.078 307.764 456.666C299.478 467.023 295.335 482.444 295.335 502.929V509.834ZM450.17 592.693V351.02H477.1V592.693H450.17Z" fill="#1E1E1E"/>
<path d="M-207.489 652.724C-177.798 652.724 -155.702 658.248 -141.202 669.296C-126.471 680.344 -119.106 695.075 -119.106 713.488C-119.106 717.171 -119.681 720.853 -120.832 724.536C-121.983 728.219 -122.904 730.75 -123.594 732.131H-153.631C-152.94 730.06 -152.135 727.528 -151.214 724.536C-150.063 721.314 -149.488 717.861 -149.488 714.179C-149.488 703.131 -154.551 694.615 -164.679 688.63C-174.576 682.646 -188.846 679.654 -207.489 679.654C-231.427 679.654 -249.495 686.444 -261.693 700.023C-273.892 713.373 -279.992 736.62 -279.992 769.764V785.645C-279.992 818.789 -273.892 842.151 -261.693 855.73C-249.495 869.08 -231.427 875.755 -207.489 875.755C-188.616 875.755 -174 872.647 -163.643 866.433C-153.286 860.218 -146.266 851.472 -142.583 840.194C-138.67 828.686 -136.714 813.955 -136.714 796.002H-226.823V769.764H-106.332V794.621C-106.792 832.829 -115.423 860.449 -132.225 877.481C-149.027 894.283 -174.116 902.684 -207.489 902.684C-244.776 902.684 -271.591 892.557 -287.932 872.302C-304.274 852.048 -312.445 824.773 -312.445 790.478V764.93C-312.445 730.635 -304.274 703.361 -287.932 683.106C-271.591 662.852 -244.776 652.724 -207.489 652.724ZM-18.9895 902.684C-31.8788 902.684 -43.6172 899.807 -54.2048 894.053C-64.5622 888.068 -72.8482 879.207 -79.0626 867.469C-85.0469 855.5 -88.0391 841 -88.0391 823.967V800.491C-88.0391 783.458 -85.0469 769.073 -79.0626 757.335C-72.8482 745.366 -64.5622 736.505 -54.2048 730.75C-43.6172 724.766 -31.8788 721.774 -18.9895 721.774C-5.63991 721.774 5.63819 723.846 14.8448 727.989C24.0514 732.131 31.877 738.461 38.3217 746.977H40.3932V725.917H67.3225V898.541H40.3932V877.481H38.3217C31.877 885.997 24.0514 892.327 14.8448 896.47C5.63819 900.613 -5.63991 902.684 -18.9895 902.684ZM-59.0383 815.682C-59.0383 836.166 -54.8953 851.702 -46.6093 862.29C-38.0932 872.647 -25.6643 877.826 -9.32256 877.826C7.01918 877.826 19.333 872.647 27.619 862.29C36.1351 851.702 40.3932 836.166 40.3932 815.682V808.777C40.3932 788.292 36.1351 772.871 27.619 762.513C19.333 751.926 7.01918 746.632 -9.32256 746.632C-25.6643 746.632 -38.0932 751.926 -46.6093 762.513C-54.8953 772.871 -59.0383 788.292 -59.0383 808.777V815.682ZM95.7974 898.541V725.917H122.727V746.977H124.798C130.552 738.921 137.457 732.707 145.513 728.334C153.569 723.961 163.696 721.774 175.895 721.774C186.482 721.774 196.38 723.961 205.586 728.334C215.023 732.707 221.928 739.957 226.301 750.084H227.682C232.976 741.338 239.766 734.433 248.052 729.37C256.338 724.306 267.155 721.774 280.505 721.774C297.767 721.774 311.692 726.953 322.28 737.31C332.868 747.668 338.161 768.037 338.161 798.419V898.541H311.232V798.419C311.232 779.085 307.665 765.736 300.529 758.37C293.624 751.005 283.727 747.322 270.838 747.322C257.028 747.322 246.786 750.89 240.111 758.025C233.666 765.16 230.444 778.625 230.444 798.419V898.541H203.515V798.419C203.515 779.315 199.717 766.081 192.122 758.716C184.526 751.12 174.629 747.322 162.43 747.322C149.081 747.322 139.068 751.005 132.394 758.37C125.949 765.505 122.727 778.855 122.727 798.419V898.541H95.7974ZM375.178 881.969C362.75 867.929 356.535 847.79 356.535 821.551V802.907C356.535 774.597 363.095 753.997 376.214 741.108C389.564 728.219 409.243 721.774 435.252 721.774C459.649 721.774 478.638 728.334 492.218 741.453C506.027 754.342 512.817 772.641 512.587 796.348V821.205H385.536C385.536 843.301 390.369 858.262 400.036 866.088C409.703 873.913 422.708 877.826 439.049 877.826C451.248 877.826 460.685 875.64 467.36 871.266C474.034 866.663 477.372 860.564 477.372 852.968C477.372 849.746 477.027 846.409 476.336 842.956H505.337C506.027 847.79 506.373 851.357 506.373 853.659C506.373 870.921 500.734 883.465 489.456 891.291C478.177 898.886 460.109 902.684 435.252 902.684C407.632 902.684 387.607 895.779 375.178 881.969ZM399.346 758.37C390.139 765.966 385.536 778.625 385.536 796.348H483.586C483.586 778.625 479.098 765.966 470.122 758.37C461.145 750.545 449.522 746.632 435.252 746.632C420.751 746.632 408.783 750.545 399.346 758.37Z" fill="#1E1E1E"/>
<path d="M-48.4699 1200.6V958.927H-18.0881L99.2963 1135.69L109.308 1155.37H110.689L109.999 1136.04V958.927H136.928V1200.6L106.546 1200.26L-9.11161 1023.83L-20.85 1004.15H-22.231L-21.5405 1023.49V1200.6H-48.4699ZM177.878 1200.6V1027.98H204.807V1200.6H177.878ZM174.771 958.927H209.295V993.452H174.771V958.927ZM314.742 1179.89C342.592 1179.89 356.517 1166.77 356.517 1140.53C356.517 1137.31 356.172 1133.97 355.481 1130.52H384.482C385.172 1135.35 385.518 1138.92 385.518 1141.22C385.518 1161.24 378.958 1176.89 365.838 1188.17C352.949 1199.22 334.651 1204.74 310.944 1204.74C283.324 1204.74 263.07 1197.84 250.18 1184.03C237.521 1169.99 231.192 1149.85 231.192 1123.61V1104.97C231.192 1078.73 237.521 1058.7 250.18 1044.89C263.07 1030.85 283.324 1023.83 310.944 1023.83C334.651 1023.83 352.949 1030.28 365.838 1043.17C378.958 1056.06 385.403 1072.97 385.172 1093.92H356.172C356.172 1079.88 351.913 1068.83 343.397 1060.78C334.881 1052.72 324.063 1048.69 310.944 1048.69C294.142 1048.69 281.483 1053.52 272.967 1063.19C264.451 1072.86 260.193 1088.97 260.193 1111.53V1117.05C260.193 1139.61 264.451 1155.72 272.967 1165.39C281.483 1175.05 294.142 1179.89 310.944 1179.89H314.742ZM416.323 1184.03C403.894 1169.99 397.68 1149.85 397.68 1123.61V1104.97C397.68 1076.66 404.239 1056.06 417.359 1043.17C430.708 1030.28 450.387 1023.83 476.396 1023.83C500.794 1023.83 519.782 1030.39 533.362 1043.51C547.172 1056.4 553.962 1074.7 553.732 1098.41V1123.27H426.68C426.68 1145.36 431.514 1160.32 441.181 1168.15C450.848 1175.97 463.852 1179.89 480.194 1179.89C492.393 1179.89 501.829 1177.7 508.504 1173.33C515.179 1168.72 518.516 1162.62 518.516 1155.03C518.516 1151.81 518.171 1148.47 517.481 1145.02H546.481C547.172 1149.85 547.517 1153.42 547.517 1155.72C547.517 1172.98 541.878 1185.52 530.6 1193.35C519.322 1200.95 501.254 1204.74 476.396 1204.74C448.776 1204.74 428.752 1197.84 416.323 1184.03ZM440.49 1060.43C431.284 1068.03 426.68 1080.68 426.68 1098.41H524.731C524.731 1080.68 520.243 1068.03 511.266 1060.43C502.29 1052.6 490.666 1048.69 476.396 1048.69C461.896 1048.69 449.927 1052.6 440.49 1060.43Z" fill="#1E1E1E"/>
<path d="M1392.09 1200.6V958.927H1496.36C1519.61 958.927 1537.33 965.257 1549.53 977.916C1561.96 990.575 1568.17 1007.38 1568.17 1028.32C1568.17 1045.81 1563.34 1060.54 1553.67 1072.51C1544 1084.48 1530.77 1091.96 1513.97 1094.95L1574.73 1200.6H1540.9L1480.82 1096.68H1422.48V1200.6H1392.09ZM1496.36 1070.44C1509.71 1070.44 1519.61 1066.64 1526.05 1059.05C1532.5 1051.45 1535.72 1041.21 1535.72 1028.32C1535.72 1015.2 1532.38 1004.73 1525.71 996.904C1519.26 989.079 1509.48 985.166 1496.36 985.166H1422.48V1070.44H1496.36ZM1649.17 1204.74C1636.28 1204.74 1624.54 1201.87 1613.95 1196.11C1603.59 1190.13 1595.31 1181.27 1589.09 1169.53C1583.11 1157.56 1580.12 1143.06 1580.12 1126.03V1102.55C1580.12 1085.52 1583.11 1071.13 1589.09 1059.39C1595.31 1047.43 1603.59 1038.56 1613.95 1032.81C1624.54 1026.83 1636.28 1023.83 1649.17 1023.83C1662.52 1023.83 1673.79 1025.91 1683 1030.05C1692.21 1034.19 1700.03 1040.52 1706.48 1049.04H1708.55V1027.98H1735.48V1200.6H1708.55V1179.54H1706.48C1700.03 1188.06 1692.21 1194.39 1683 1198.53C1673.79 1202.67 1662.52 1204.74 1649.17 1204.74ZM1609.12 1117.74C1609.12 1138.23 1613.26 1153.76 1621.55 1164.35C1630.06 1174.71 1642.49 1179.89 1658.83 1179.89C1675.18 1179.89 1687.49 1174.71 1695.78 1164.35C1704.29 1153.76 1708.55 1138.23 1708.55 1117.74V1110.84C1708.55 1090.35 1704.29 1074.93 1695.78 1064.57C1687.49 1053.99 1675.18 1048.69 1658.83 1048.69C1642.49 1048.69 1630.06 1053.99 1621.55 1064.57C1613.26 1074.93 1609.12 1090.35 1609.12 1110.84V1117.74ZM1767.06 1200.6V1027.98H1793.99V1200.6H1767.06ZM1763.95 958.927H1798.48V993.452H1763.95V958.927ZM1889.42 1204.74C1876.53 1204.74 1864.8 1201.87 1854.21 1196.11C1843.85 1190.13 1835.57 1181.27 1829.35 1169.53C1823.37 1157.56 1820.37 1143.06 1820.37 1126.03V1102.55C1820.37 1085.52 1823.37 1071.13 1829.35 1059.39C1835.57 1047.43 1843.85 1038.56 1854.21 1032.81C1864.8 1026.83 1876.53 1023.83 1889.42 1023.83C1902.77 1023.83 1914.05 1025.91 1923.26 1030.05C1932.47 1034.19 1940.29 1040.52 1946.74 1049.04H1948.81V958.927H1975.74V1200.6H1948.81V1179.54H1946.74C1940.29 1188.06 1932.47 1194.39 1923.26 1198.53C1914.05 1202.67 1902.77 1204.74 1889.42 1204.74ZM1849.38 1117.74C1849.38 1138.23 1853.52 1153.76 1861.8 1164.35C1870.32 1174.71 1882.75 1179.89 1899.09 1179.89C1915.43 1179.89 1927.75 1174.71 1936.03 1164.35C1944.55 1153.76 1948.81 1138.23 1948.81 1117.74V1110.84C1948.81 1090.35 1944.55 1074.93 1936.03 1064.57C1927.75 1053.99 1915.43 1048.69 1899.09 1048.69C1882.75 1048.69 1870.32 1053.99 1861.8 1064.57C1853.52 1074.93 1849.38 1090.35 1849.38 1110.84V1117.74Z" fill="#1E1E1E"/>
<path d="M27.9684 1419.78C25.6668 1427.15 24.516 1435.55 24.516 1444.98C24.516 1460.17 29.2344 1470.99 38.6711 1477.44C48.3381 1483.88 64.5647 1487.1 87.3511 1487.1C109.447 1487.1 126.134 1483.77 137.412 1477.09C148.69 1470.42 154.329 1459.71 154.329 1444.98C154.329 1436.01 153.524 1428.76 151.912 1423.23C150.531 1417.48 147.424 1412.76 142.591 1409.08C137.757 1405.16 130.622 1402.63 121.185 1401.48L49.0286 1392.85C34.7583 1391.01 23.4802 1387.9 15.1943 1383.53C7.13849 1378.93 1.26927 1372.37 -2.41337 1363.85C-5.86585 1355.1 -7.59209 1343.37 -7.59209 1328.63C-7.59209 1306.77 -0.341887 1290.66 14.1585 1280.3C28.6589 1269.71 52.0207 1264.42 84.2439 1264.42C115.777 1264.42 139.484 1269.94 155.365 1280.99C171.477 1291.81 179.532 1306.54 179.532 1325.18V1341.75H146.734V1330.71C146.734 1317.59 141.9 1307.8 132.233 1301.36C122.797 1294.69 107.03 1291.35 84.9344 1291.35C63.2988 1291.35 47.8777 1294.11 38.6711 1299.63C29.4645 1305.16 24.8612 1314.36 24.8612 1327.25C24.8612 1335.31 25.4366 1341.64 26.5875 1346.24C27.7383 1350.62 30.2701 1354.18 34.1829 1356.95C38.3259 1359.48 44.5404 1361.2 52.8263 1362.12L121.185 1370.76C142.591 1373.52 158.817 1380.42 169.865 1391.47C181.143 1402.29 186.783 1419.09 186.783 1441.88C186.783 1467.42 178.381 1485.95 161.579 1497.46C145.008 1508.74 119.229 1514.38 84.2439 1514.38C59.8463 1514.38 40.8577 1511.5 27.278 1505.75C13.6982 1499.99 4.26142 1491.94 -1.03238 1481.58C-6.09602 1470.99 -8.62784 1457.76 -8.62784 1441.88C-8.62784 1433.59 -7.47701 1426.23 -5.17536 1419.78H27.9684ZM356.008 1337.61V1510.24H329.079V1489.18H327.007C315.039 1505.98 295.82 1514.38 269.351 1514.38C250.247 1514.38 234.711 1508.62 222.742 1497.12C211.004 1485.38 205.135 1467.65 205.135 1443.95V1337.61H232.064V1434.97C232.064 1455.46 235.862 1469.73 243.457 1477.78C251.053 1485.61 263.712 1489.52 281.434 1489.52C296.395 1489.52 308.019 1485.38 316.304 1477.09C324.821 1468.81 329.079 1454.77 329.079 1434.97V1337.61H356.008ZM467.118 1333.47C480.008 1333.47 491.631 1336.46 501.988 1342.44C512.576 1348.2 520.862 1357.06 526.846 1369.03C533.061 1380.77 536.168 1395.15 536.168 1412.18V1435.66C536.168 1452.69 533.061 1467.19 526.846 1479.16C520.862 1490.9 512.576 1499.76 501.988 1505.75C491.631 1511.5 480.008 1514.38 467.118 1514.38C453.769 1514.38 442.491 1512.31 433.284 1508.16C424.078 1504.02 416.252 1497.69 409.807 1489.18H407.736V1579.28H380.806V1337.61H407.736V1358.67H409.807C416.252 1350.16 424.078 1343.83 433.284 1339.68C442.491 1335.54 453.769 1333.47 467.118 1333.47ZM407.736 1427.38C407.736 1447.86 411.879 1463.4 420.165 1473.98C428.681 1484.34 441.11 1489.52 457.451 1489.52C473.793 1489.52 486.107 1484.34 494.393 1473.98C502.909 1463.4 507.167 1447.86 507.167 1427.38V1420.47C507.167 1399.99 502.909 1384.57 494.393 1374.21C486.107 1363.62 473.793 1358.33 457.451 1358.33C441.11 1358.33 428.681 1363.62 420.165 1374.21C411.879 1384.57 407.736 1399.99 407.736 1420.47V1427.38ZM570.167 1493.66C557.738 1479.62 551.523 1459.48 551.523 1433.25V1414.6C551.523 1386.29 558.083 1365.69 571.203 1352.8C584.552 1339.91 604.231 1333.47 630.24 1333.47C654.638 1333.47 673.626 1340.03 687.206 1353.15C701.016 1366.04 707.806 1384.33 707.576 1408.04V1432.9H580.524C580.524 1455 585.358 1469.96 595.025 1477.78C604.692 1485.61 617.696 1489.52 634.038 1489.52C646.236 1489.52 655.673 1487.33 662.348 1482.96C669.023 1478.36 672.36 1472.26 672.36 1464.66C672.36 1461.44 672.015 1458.1 671.325 1454.65H700.325C701.016 1459.48 701.361 1463.05 701.361 1465.35C701.361 1482.62 695.722 1495.16 684.444 1502.99C673.166 1510.58 655.098 1514.38 630.24 1514.38C602.62 1514.38 582.596 1507.47 570.167 1493.66ZM594.334 1370.06C585.128 1377.66 580.524 1390.32 580.524 1408.04H678.575C678.575 1390.32 674.086 1377.66 665.11 1370.06C656.134 1362.24 644.51 1358.33 630.24 1358.33C615.74 1358.33 603.771 1362.24 594.334 1370.06ZM729.291 1510.24V1337.61H756.22V1367.3H757.947C764.161 1357.41 771.757 1349.93 780.733 1344.86C789.71 1339.8 802.023 1337.27 817.675 1337.27H835.628V1362.12H809.043C773.828 1362.12 756.22 1383.53 756.22 1426.34V1510.24H729.291ZM849.872 1493.66C837.443 1479.62 831.228 1459.48 831.228 1433.25V1414.6C831.228 1386.29 837.788 1365.69 850.907 1352.8C864.257 1339.91 883.936 1333.47 909.945 1333.47C934.342 1333.47 953.331 1340.03 966.911 1353.15C980.721 1366.04 987.51 1384.33 987.28 1408.04V1432.9H860.229C860.229 1455 865.063 1469.96 874.729 1477.78C884.396 1485.61 897.401 1489.52 913.743 1489.52C925.941 1489.52 935.378 1487.33 942.053 1482.96C948.728 1478.36 952.065 1472.26 952.065 1464.66C952.065 1461.44 951.72 1458.1 951.029 1454.65H980.03C980.721 1459.48 981.066 1463.05 981.066 1465.35C981.066 1482.62 975.427 1495.16 964.149 1502.99C952.871 1510.58 934.803 1514.38 909.945 1514.38C882.325 1514.38 862.301 1507.47 849.872 1493.66ZM874.039 1370.06C864.832 1377.66 860.229 1390.32 860.229 1408.04H958.279C958.279 1390.32 953.791 1377.66 944.815 1370.06C935.838 1362.24 924.215 1358.33 909.945 1358.33C895.444 1358.33 883.476 1362.24 874.039 1370.06ZM1009 1510.24V1268.56H1035.93V1510.24H1009ZM1064.22 1510.24V1268.56H1091.15V1510.24H1064.22ZM1122.56 1510.24V1337.61H1149.48V1510.24H1122.56ZM1119.45 1268.56H1153.97V1303.09H1119.45V1268.56ZM1268.74 1333.47C1281.63 1333.47 1293.25 1336.46 1303.61 1342.44C1314.2 1348.2 1322.48 1357.06 1328.47 1369.03C1334.68 1380.77 1337.79 1395.15 1337.79 1412.18V1435.66C1337.79 1452.69 1334.68 1467.19 1328.47 1479.16C1322.48 1490.9 1314.2 1499.76 1303.61 1505.75C1293.25 1511.5 1281.63 1514.38 1268.74 1514.38C1255.39 1514.38 1244.11 1512.31 1234.91 1508.16C1225.7 1504.02 1217.87 1497.69 1211.43 1489.18H1209.36V1579.28H1182.43V1337.61H1209.36V1358.67H1211.43C1217.87 1350.16 1225.7 1343.83 1234.91 1339.68C1244.11 1335.54 1255.39 1333.47 1268.74 1333.47ZM1209.36 1427.38C1209.36 1447.86 1213.5 1463.4 1221.79 1473.98C1230.3 1484.34 1242.73 1489.52 1259.07 1489.52C1275.42 1489.52 1287.73 1484.34 1296.02 1473.98C1304.53 1463.4 1308.79 1447.86 1308.79 1427.38V1420.47C1308.79 1399.99 1304.53 1384.57 1296.02 1374.21C1287.73 1363.62 1275.42 1358.33 1259.07 1358.33C1242.73 1358.33 1230.3 1363.62 1221.79 1374.21C1213.5 1384.57 1209.36 1399.99 1209.36 1420.47V1427.38ZM1384.56 1446.02C1382.95 1451.54 1382.15 1457.64 1382.15 1464.32C1382.15 1473.06 1385.48 1479.51 1392.16 1483.65C1399.06 1487.56 1410.92 1489.52 1427.72 1489.52C1444.52 1489.52 1456.26 1487.56 1462.93 1483.65C1469.84 1479.51 1473.29 1473.06 1473.29 1464.32C1473.29 1455.8 1471.11 1449.36 1466.73 1444.98C1462.36 1440.61 1455.22 1437.73 1445.33 1436.35L1399.75 1430.14C1385.02 1428.07 1374.09 1423.46 1366.96 1416.33C1359.82 1409.19 1356.25 1398.03 1356.25 1382.84C1356.25 1366.96 1361.89 1354.76 1373.17 1346.24C1384.68 1337.73 1402.06 1333.47 1425.3 1333.47C1449.47 1333.47 1466.96 1338.88 1477.78 1349.7C1488.83 1360.51 1494.35 1374.55 1494.35 1391.82H1465.35C1465.35 1380.54 1462.47 1372.14 1456.72 1366.61C1451.2 1361.09 1440.72 1358.33 1425.3 1358.33C1410.8 1358.33 1400.45 1360.4 1394.23 1364.54C1388.25 1368.45 1385.25 1374.09 1385.25 1381.46C1385.25 1387.67 1386.64 1392.62 1389.4 1396.3C1392.39 1399.99 1398.14 1402.4 1406.66 1403.55L1452.23 1409.08C1485.61 1412.99 1502.29 1430.6 1502.29 1461.9C1502.29 1480.31 1495.85 1493.66 1482.96 1501.95C1470.3 1510.24 1451.08 1514.38 1425.3 1514.38C1399.06 1514.38 1380.42 1509.89 1369.37 1500.91C1358.55 1491.94 1353.15 1478.93 1353.15 1461.9C1353.15 1456.15 1353.95 1450.85 1355.56 1446.02H1384.56ZM1536.25 1493.66C1523.83 1479.62 1517.61 1459.48 1517.61 1433.25V1414.6C1517.61 1386.29 1524.17 1365.69 1537.29 1352.8C1550.64 1339.91 1570.32 1333.47 1596.33 1333.47C1620.72 1333.47 1639.71 1340.03 1653.29 1353.15C1667.1 1366.04 1673.89 1384.33 1673.66 1408.04V1432.9H1546.61C1546.61 1455 1551.45 1469.96 1561.11 1477.78C1570.78 1485.61 1583.78 1489.52 1600.13 1489.52C1612.32 1489.52 1621.76 1487.33 1628.44 1482.96C1635.11 1478.36 1638.45 1472.26 1638.45 1464.66C1638.45 1461.44 1638.1 1458.1 1637.41 1454.65H1666.41C1667.1 1459.48 1667.45 1463.05 1667.45 1465.35C1667.45 1482.62 1661.81 1495.16 1650.53 1502.99C1639.25 1510.58 1621.19 1514.38 1596.33 1514.38C1568.71 1514.38 1548.68 1507.47 1536.25 1493.66ZM1560.42 1370.06C1551.21 1377.66 1546.61 1390.32 1546.61 1408.04H1644.66C1644.66 1390.32 1640.17 1377.66 1631.2 1370.06C1622.22 1362.24 1610.6 1358.33 1596.33 1358.33C1581.83 1358.33 1569.86 1362.24 1560.42 1370.06Z" fill="#1E1E1E"/>
<path d="M1896.13 1510.24L1832.95 1416.67L1769.77 1510.24H1733.17L1814.65 1389.4L1733.17 1268.56H1769.77L1832.95 1362.12L1896.13 1268.56H1932.73L1851.25 1389.4L1932.73 1510.24H1896.13Z" fill="#1E1E1E"/>
<path d="M1451.29 595.534V353.861H1604.58V380.099H1481.67V456.399H1592.15V482.638H1481.67V595.534H1451.29ZM1623.28 595.534V422.91H1650.21V452.602H1651.94C1658.15 442.704 1665.75 435.224 1674.73 430.16C1683.7 425.097 1696.02 422.565 1711.67 422.565H1729.62V447.423H1703.04C1667.82 447.423 1650.21 468.828 1650.21 511.639V595.534H1623.28ZM1751.41 595.534V422.91H1778.34V595.534H1751.41ZM1748.3 353.861H1782.83V388.385H1748.3V353.861ZM1823.37 578.962C1810.94 564.922 1804.72 544.783 1804.72 518.544V499.9C1804.72 471.59 1811.28 450.99 1824.4 438.101C1837.75 425.212 1857.43 418.767 1883.44 418.767C1907.84 418.767 1926.83 425.327 1940.41 438.446C1954.22 451.336 1961.01 469.634 1960.78 493.341V518.199H1833.72C1833.72 540.295 1838.56 555.255 1848.22 563.081C1857.89 570.906 1870.9 574.819 1887.24 574.819C1899.44 574.819 1908.87 572.633 1915.55 568.26C1922.22 563.656 1925.56 557.557 1925.56 549.961C1925.56 546.739 1925.21 543.402 1924.52 539.949H1953.52C1954.22 544.783 1954.56 548.35 1954.56 550.652C1954.56 567.914 1948.92 580.458 1937.64 588.284C1926.37 595.879 1908.3 599.677 1883.44 599.677C1855.82 599.677 1835.8 592.772 1823.37 578.962ZM1847.53 455.364C1838.33 462.959 1833.72 475.618 1833.72 493.341H1931.77C1931.77 475.618 1927.29 462.959 1918.31 455.364C1909.33 447.538 1897.71 443.625 1883.44 443.625C1868.94 443.625 1856.97 447.538 1847.53 455.364Z" fill="#1E1E1E"/>
<path d="M1482.83 902.328V686.893H1399.63V660.655H1596.42V686.893H1513.21V902.328H1482.83ZM1579.25 885.756C1566.82 871.716 1560.61 851.577 1560.61 825.338V806.694C1560.61 778.384 1567.17 757.784 1580.29 744.895C1593.64 732.006 1613.32 725.561 1639.33 725.561C1663.72 725.561 1682.71 732.121 1696.29 745.24C1710.1 758.13 1716.89 776.428 1716.66 800.135V824.993H1589.61C1589.61 847.088 1594.44 862.049 1604.11 869.875C1613.78 877.7 1626.78 881.613 1643.12 881.613C1655.32 881.613 1664.76 879.427 1671.43 875.054C1678.11 870.45 1681.45 864.351 1681.45 856.755C1681.45 853.533 1681.1 850.196 1680.41 846.743H1709.41C1710.1 851.577 1710.45 855.144 1710.45 857.446C1710.45 874.708 1704.81 887.252 1693.53 895.078C1682.25 902.673 1664.18 906.471 1639.33 906.471C1611.71 906.471 1591.68 899.566 1579.25 885.756ZM1603.42 762.157C1594.21 769.753 1589.61 782.412 1589.61 800.135H1687.66C1687.66 782.412 1683.17 769.753 1674.2 762.157C1665.22 754.332 1653.6 750.419 1639.33 750.419C1624.83 750.419 1612.86 754.332 1603.42 762.157ZM1815.37 881.613C1843.22 881.613 1857.14 868.494 1857.14 842.255C1857.14 839.033 1856.8 835.695 1856.11 832.243H1885.11C1885.8 837.076 1886.14 840.644 1886.14 842.945C1886.14 862.97 1879.58 878.621 1866.46 889.899C1853.58 900.947 1835.28 906.471 1811.57 906.471C1783.95 906.471 1763.7 899.566 1750.81 885.756C1738.15 871.716 1731.82 851.577 1731.82 825.338V806.694C1731.82 780.456 1738.15 760.431 1750.81 746.621C1763.7 732.581 1783.95 725.561 1811.57 725.561C1835.28 725.561 1853.58 732.006 1866.46 744.895C1879.58 757.784 1886.03 774.701 1885.8 795.647H1856.8C1856.8 781.606 1852.54 770.558 1844.02 762.503C1835.51 754.447 1824.69 750.419 1811.57 750.419C1794.77 750.419 1782.11 755.252 1773.59 764.919C1765.08 774.586 1760.82 790.698 1760.82 813.254V818.778C1760.82 841.334 1765.08 857.446 1773.59 867.113C1782.11 876.78 1794.77 881.613 1811.57 881.613H1815.37ZM1904.87 902.328V660.655H1931.79V750.764H1933.87C1945.83 733.962 1965.05 725.561 1991.52 725.561C2010.63 725.561 2026.05 731.43 2037.79 743.169C2049.75 754.677 2055.74 772.285 2055.74 795.992V902.328H2028.81V804.968C2028.81 784.483 2025.01 770.328 2017.42 762.503C2009.82 754.447 1997.16 750.419 1979.44 750.419C1964.48 750.419 1952.74 754.562 1944.22 762.848C1935.94 771.134 1931.79 785.174 1931.79 804.968V902.328H1904.87Z" fill="#1E1E1E"/>
<rect x="637.426" y="989.149" width="658.627" height="205.234" rx="42.609" stroke="#C4FF46" stroke-width="13.2565"/>
<path d="M842.627 1139.52V1060.95H841.893C834.549 1060.95 829.164 1061.93 825.737 1063.88C822.433 1065.72 820.169 1069.45 818.945 1075.08C817.721 1080.71 817.109 1089.71 817.109 1102.07V1139.7H802.789V1091.24C802.789 1079.86 804.136 1071.04 806.828 1064.8C809.643 1058.44 813.804 1054.03 819.312 1051.58C824.942 1049.01 832.469 1047.73 841.893 1047.73H857.681C867.105 1047.73 874.571 1049.01 880.078 1051.58C885.708 1054.03 889.869 1058.44 892.562 1064.8C895.377 1071.04 896.784 1079.86 896.784 1091.24V1139.7H882.465V1102.07C882.465 1089.71 881.853 1080.71 880.629 1075.08C879.405 1069.45 877.08 1065.72 873.653 1063.88C870.348 1061.93 865.024 1060.95 857.681 1060.95H856.947V1139.52H842.627ZM959.866 1045.53C974.552 1045.53 985.261 1049.26 991.993 1056.72C998.847 1064.07 1002.27 1074.72 1002.27 1088.67V1093.62H986.852V1092.16C986.852 1080.16 984.588 1071.59 980.06 1066.45C975.531 1061.31 968.8 1058.74 959.866 1058.74V1045.53ZM959.866 1058.74C950.931 1058.74 944.2 1061.31 939.671 1066.45C935.143 1071.59 932.879 1080.16 932.879 1092.16V1093.62H917.458V1088.67C917.458 1074.72 920.823 1064.07 927.555 1056.72C934.409 1049.26 945.179 1045.53 959.866 1045.53V1058.74ZM959.866 1128.51C968.8 1128.51 975.531 1125.94 980.06 1120.8C984.588 1115.66 986.852 1107.09 986.852 1095.09V1093.62H1002.27V1098.58C1002.27 1112.53 998.847 1123.24 991.993 1130.71C985.261 1138.05 974.552 1141.72 959.866 1141.72V1128.51ZM959.866 1141.72C945.179 1141.72 934.409 1138.05 927.555 1130.71C920.823 1123.24 917.458 1112.53 917.458 1098.58V1093.62H932.879V1095.09C932.879 1107.09 935.143 1115.66 939.671 1120.8C944.2 1125.94 950.931 1128.51 959.866 1128.51V1141.72ZM1109.05 1139.52H1094.73V1100.05C1094.73 1087.69 1094.12 1078.75 1092.89 1073.25C1091.67 1067.62 1089.34 1063.88 1085.92 1062.05C1082.61 1060.09 1077.29 1059.11 1069.94 1059.11C1062.6 1059.11 1057.22 1060.09 1053.79 1062.05C1050.48 1063.88 1048.22 1067.62 1047 1073.25C1045.77 1078.75 1045.16 1087.69 1045.16 1100.05V1139.52H1030.84V1089.22C1030.84 1077.84 1032.19 1068.96 1034.88 1062.6C1037.69 1056.23 1041.86 1051.83 1047.36 1049.38C1052.99 1046.81 1060.52 1045.53 1069.94 1045.53C1079.37 1045.53 1086.83 1046.81 1092.34 1049.38C1097.97 1051.83 1102.13 1056.23 1104.83 1062.6C1107.64 1068.96 1109.05 1077.84 1109.05 1089.22V1139.52ZM1180.02 1045.53C1194.71 1045.53 1205.42 1049.26 1212.15 1056.72C1219 1064.07 1222.43 1074.72 1222.43 1088.67V1093.62H1207.01V1092.16C1207.01 1080.16 1204.75 1071.59 1200.22 1066.45C1195.69 1061.31 1188.96 1058.74 1180.02 1058.74V1045.53ZM1180.02 1058.74C1171.09 1058.74 1164.36 1061.31 1159.83 1066.45C1155.3 1071.59 1153.04 1080.16 1153.04 1092.16V1093.62H1137.62V1088.67C1137.62 1074.72 1140.98 1064.07 1147.71 1056.72C1154.57 1049.26 1165.34 1045.53 1180.02 1045.53V1058.74ZM1180.02 1128.51C1188.96 1128.51 1195.69 1125.94 1200.22 1120.8C1204.75 1115.66 1207.01 1107.09 1207.01 1095.09V1093.62H1222.43V1098.58C1222.43 1112.53 1219 1123.24 1212.15 1130.71C1205.42 1138.05 1194.71 1141.72 1180.02 1141.72V1128.51ZM1180.02 1141.72C1165.34 1141.72 1154.57 1138.05 1147.71 1130.71C1140.98 1123.24 1137.62 1112.53 1137.62 1098.58V1093.62H1153.04V1095.09C1153.04 1107.09 1155.3 1115.66 1159.83 1120.8C1164.36 1125.94 1171.09 1128.51 1180.02 1128.51V1141.72Z" fill="#C4FF46"/>
<path d="M763.108 1098.33H738.014V1124.39H723.859V1098.33H698.765V1086.1H723.859V1060.04H738.014V1086.1H763.108V1098.33Z" fill="#C4FF46"/>
<path d="M1192.92 291.581V49.907H1290.28C1314.68 49.907 1333.32 56.8119 1346.21 70.6219C1359.1 84.2016 1365.55 103.19 1365.55 127.588C1365.55 152.215 1359.1 171.434 1346.21 185.244C1333.32 198.824 1314.68 205.614 1290.28 205.614H1223.3V291.581H1192.92ZM1290.28 179.375C1304.55 179.375 1315.26 174.887 1322.39 165.91C1329.53 156.704 1333.09 143.93 1333.09 127.588C1333.09 111.476 1329.53 98.9322 1322.39 89.9557C1315.26 80.7491 1304.55 76.1458 1290.28 76.1458H1223.3V179.375H1290.28ZM1390.54 291.581V49.907H1417.47V291.581H1390.54ZM1508.26 295.724C1495.37 295.724 1483.63 292.846 1473.04 287.092C1462.68 281.108 1454.4 272.247 1448.18 260.508C1442.2 248.54 1439.21 234.039 1439.21 217.007V193.53C1439.21 176.498 1442.2 162.113 1448.18 150.374C1454.4 138.406 1462.68 129.544 1473.04 123.79C1483.63 117.806 1495.37 114.814 1508.26 114.814C1521.6 114.814 1532.88 116.885 1542.09 121.028C1551.3 125.171 1559.12 131.501 1565.57 140.017H1567.64V118.957H1594.57V291.581H1567.64V270.52H1565.57C1559.12 279.037 1551.3 285.366 1542.09 289.509C1532.88 293.652 1521.6 295.724 1508.26 295.724ZM1468.21 208.721C1468.21 229.206 1472.35 244.742 1480.64 255.33C1489.15 265.687 1501.58 270.866 1517.92 270.866C1534.26 270.866 1546.58 265.687 1554.86 255.33C1563.38 244.742 1567.64 229.206 1567.64 208.721V201.816C1567.64 181.331 1563.38 165.91 1554.86 155.553C1546.58 144.965 1534.26 139.671 1517.92 139.671C1501.58 139.671 1489.15 144.965 1480.64 155.553C1472.35 165.91 1468.21 181.331 1468.21 201.816V208.721ZM1643.76 360.63L1667.92 291.581L1606.82 119.302H1636.16L1680.7 247.734L1682.77 258.437H1684.15L1686.22 247.734L1732.14 118.957H1761.14L1672.76 360.63H1643.76ZM1872.09 145.195H1817.19V291.581H1790.26V145.195H1757.12V118.957H1790.26V98.2417C1790.26 79.3682 1794.41 65.9035 1802.69 57.8477C1810.98 49.7919 1823.18 45.764 1839.29 45.764C1852.64 45.764 1863.57 47.7204 1872.09 51.6332V79.2531C1860.35 73.9593 1849.42 71.3124 1839.29 71.3124C1831 71.3124 1825.25 73.4989 1822.03 77.8721C1818.8 82.0151 1817.19 89.9558 1817.19 101.694V118.957H1872.09V145.195ZM2038.03 118.957V291.581H2011.1V270.52H2009.03C1997.06 287.323 1977.84 295.724 1951.37 295.724C1932.27 295.724 1916.73 289.969 1904.76 278.461C1893.03 266.723 1887.16 249 1887.16 225.293V118.957H1914.09V216.317C1914.09 236.801 1917.88 251.071 1925.48 259.127C1933.07 266.953 1945.73 270.866 1963.46 270.866C1978.42 270.866 1990.04 266.723 1998.33 258.437C2006.84 250.151 2011.1 236.111 2011.1 216.317V118.957H2038.03ZM2062.83 291.581V49.907H2089.76V291.581H2062.83Z" fill="#1E1E1E"/>
</g>
<defs>
<clipPath id="clip0_438_588">
<rect width="1920" height="1480" fill="white"/>
</clipPath>
</defs>
</svg>
