<svg width="922" height="98" viewBox="0 0 922 98" fill="none" xmlns="http://www.w3.org/2000/svg">
<path d="M897.423 21.2808C905.934 21.2808 912.141 23.4441 916.042 27.7708C920.014 32.0266 922 38.1975 922 46.2835V49.1562H913.063V48.305C913.063 41.3539 911.751 36.3888 909.126 33.4098C906.502 30.4307 902.601 28.9412 897.423 28.9412V21.2808ZM897.423 28.9412C892.245 28.9412 888.344 30.4307 885.719 33.4098C883.095 36.3888 881.783 41.3539 881.783 48.305V49.1562H872.846V46.2835C872.846 38.1975 874.796 32.0266 878.697 27.7708C882.669 23.4441 888.911 21.2808 897.423 21.2808V28.9412ZM897.423 69.3712C902.601 69.3712 906.502 67.8816 909.126 64.9026C911.751 61.9235 913.063 56.9585 913.063 50.0073V49.1562H922V52.0288C922 60.1148 920.014 66.3212 916.042 70.6479C912.141 74.9037 905.934 77.0316 897.423 77.0316V69.3712ZM897.423 77.0316C888.911 77.0316 882.669 74.9037 878.697 70.6479C874.796 66.3212 872.846 60.1148 872.846 52.0288V49.1562H881.783V50.0073C881.783 56.9585 883.095 61.9235 885.719 64.9026C888.344 67.8816 892.245 69.3712 897.423 69.3712V77.0316Z" fill="white"/>
<path d="M856.29 75.7549H847.991V52.88C847.991 45.7161 847.636 40.5382 846.927 37.3464C846.218 34.0836 844.87 31.9202 842.884 30.8563C840.969 29.7214 837.883 29.154 833.628 29.154C829.372 29.154 826.251 29.7214 824.265 30.8563C822.35 31.9202 821.038 34.0836 820.328 37.3464C819.619 40.5382 819.264 45.7161 819.264 52.88V75.7549H810.965V46.6027C810.965 40.0062 811.746 34.8638 813.306 31.1755C814.938 27.4871 817.349 24.9336 820.541 23.515C823.804 22.0255 828.166 21.2808 833.628 21.2808C839.089 21.2808 843.416 22.0255 846.608 23.515C849.87 24.9336 852.282 27.4871 853.843 31.1755C855.474 34.8638 856.29 40.0062 856.29 46.6027V75.7549Z" fill="white"/>
<path d="M769.832 21.2808C778.344 21.2808 784.55 23.4441 788.451 27.7708C792.423 32.0266 794.409 38.1975 794.409 46.2835V49.1562H785.472V48.305C785.472 41.3539 784.16 36.3888 781.536 33.4098C778.911 30.4307 775.01 28.9412 769.832 28.9412V21.2808ZM769.832 28.9412C764.654 28.9412 760.753 30.4307 758.129 33.4098C755.504 36.3888 754.192 41.3539 754.192 48.305V49.1562H745.255V46.2835C745.255 38.1975 747.206 32.0266 751.107 27.7708C755.079 23.4441 761.321 21.2808 769.832 21.2808V28.9412ZM769.832 69.3712C775.01 69.3712 778.911 67.8816 781.536 64.9026C784.16 61.9235 785.472 56.9585 785.472 50.0073V49.1562H794.409V52.0288C794.409 60.1148 792.423 66.3212 788.451 70.6479C784.55 74.9037 778.344 77.0316 769.832 77.0316V69.3712ZM769.832 77.0316C761.321 77.0316 755.079 74.9037 751.107 70.6479C747.206 66.3212 745.255 60.1148 745.255 52.0288V49.1562H754.192V50.0073C754.192 56.9585 755.504 61.9235 758.129 64.9026C760.753 67.8816 764.654 69.3712 769.832 69.3712V77.0316Z" fill="white"/>
<path d="M679.013 75.7546V1.27832H694.972L705.186 57.4547L706.25 63.732H706.569L707.526 57.4547L717.634 1.27832H733.487V75.7546H724.55V16.1736L724.656 12.5562H724.23L723.698 16.1736L712.314 75.7546H699.653L688.482 16.1736L687.843 12.5562H687.418L687.524 16.1736V75.7546H679.013Z" fill="white"/>
<path d="M639.054 40.9626H596.496V32.8766H639.054V40.9626ZM623.946 15.6406V58.1985H614.583V15.6406H623.946Z" fill="white"/>
<path d="M545.375 42.3469C545.872 40.5737 546.12 38.694 546.12 36.708C546.12 33.9417 545.233 31.9557 543.46 30.7499C541.758 29.5441 538.46 28.9412 533.565 28.9412C529.948 28.9412 527.217 29.2249 525.373 29.7923C523.529 30.3598 522.252 31.1755 521.543 32.2394C520.904 33.3034 520.585 34.7929 520.585 36.708C520.585 39.2615 521.153 41.0702 522.288 42.1341C523.493 43.1271 525.657 43.8364 528.778 44.262L542.822 46.1771C547.219 46.7446 550.553 48.305 552.823 50.8585C555.093 53.412 556.228 57.0648 556.228 61.8171C556.228 66.8532 554.49 70.6479 551.014 73.2014C547.61 75.7549 541.793 77.0316 533.565 77.0316C524.912 77.0316 518.989 75.4357 515.798 72.2438C512.606 69.052 511.01 64.6543 511.01 59.0509V57.8805H519.947V59.0509C519.947 61.6753 520.302 63.7323 521.011 65.2218C521.791 66.6404 523.139 67.7043 525.054 68.4136C527.04 69.052 529.877 69.3712 533.565 69.3712C537.538 69.3712 540.517 69.0875 542.503 68.52C544.489 67.9526 545.765 67.1723 546.333 66.1793C546.971 65.1863 547.29 63.8741 547.29 62.2427C547.29 57.4195 545.092 54.7242 540.694 54.1567L526.65 52.4544C521.756 51.887 518.032 50.5038 515.478 48.305C512.925 46.1062 511.648 42.4888 511.648 37.4528C511.648 31.7074 513.386 27.5935 516.862 25.111C520.337 22.5575 525.905 21.2808 533.565 21.2808C541.722 21.2808 547.326 22.6284 550.376 25.3238C553.497 28.0191 555.057 32.0621 555.057 37.4528C555.057 39.226 554.809 40.8574 554.312 42.3469H545.375Z" fill="white"/>
<path d="M452.677 75.7549V22.5575H460.976V75.7549H452.677ZM479.276 21.2808C485.943 21.2808 491.05 23.0185 494.597 26.4941C498.143 29.9697 499.916 35.6086 499.916 43.4109V49.1562H491.618V48.0922C491.618 43.3399 491.157 39.6161 490.234 36.9208C489.383 34.1545 487.858 32.133 485.659 30.8563C483.461 29.5795 480.34 28.9412 476.297 28.9412C470.764 28.9412 466.828 30.4307 464.487 33.4098C462.146 36.3179 460.976 41.212 460.976 48.0922V49.1562H459.699V29.0476H461.614C463.6 26.4232 466.012 24.4726 468.849 23.1959C471.686 21.9191 475.162 21.2808 479.276 21.2808ZM499.916 49.1562V75.7549H491.618V49.1562H499.916Z" fill="white"/>
<path d="M410.709 77.0316C404.042 77.0316 398.935 75.2938 395.389 71.8183C391.842 68.3427 390.069 62.7038 390.069 54.9015V49.1562H398.368V50.2201C398.368 54.9724 398.793 58.7317 399.644 61.498C400.566 64.1933 402.127 66.1793 404.326 67.4561C406.525 68.7328 409.645 69.3712 413.688 69.3712C419.221 69.3712 423.158 67.9171 425.498 65.009C427.839 62.0299 429.009 57.1003 429.009 50.2201V49.1562H430.286V69.2648H428.371C426.385 71.8892 423.973 73.8397 421.136 75.1165C418.299 76.3932 414.823 77.0316 410.709 77.0316ZM429.009 75.7549V22.5575H437.308V75.7549H429.009ZM410.709 21.2808C414.823 21.2808 418.299 21.9191 421.136 23.1959C423.973 24.4726 426.385 26.4232 428.371 29.0476H430.286V49.1562H429.009V48.0922C429.009 41.212 427.839 36.3179 425.498 33.4098C423.158 30.4307 419.221 28.9412 413.688 28.9412C409.645 28.9412 406.525 29.5795 404.326 30.8563C402.127 32.133 400.566 34.1545 399.644 36.9208C398.793 39.6161 398.368 43.3399 398.368 48.0922V49.1562H390.069V43.4109C390.069 35.6086 391.842 29.9697 395.389 26.4941C398.935 23.0185 404.042 21.2808 410.709 21.2808Z" fill="white"/>
<path d="M364.239 27.0243C364.877 24.9673 365.196 23.0877 365.196 21.3853C365.196 18.0516 364.7 15.4982 363.707 13.7249C362.785 11.8807 360.941 10.5331 358.174 9.68191C355.479 8.83076 351.507 8.40518 346.258 8.40518C338.811 8.40518 333.455 9.25634 330.193 10.9587C327.001 12.661 325.405 15.7819 325.405 20.3214C325.405 24.2225 326.185 27.2016 327.745 29.2585C329.306 31.2446 332.285 32.4859 336.683 32.9824L359.664 35.6422C366.189 36.4225 370.906 38.4085 373.814 41.6003C376.723 44.7212 378.177 49.6154 378.177 56.2828C378.177 63.0921 375.694 68.2699 370.729 71.8164C365.764 75.292 357.926 77.0298 347.216 77.0298C337.002 77.0298 329.341 75.3629 324.234 72.0292C319.128 68.6246 316.574 64.0496 316.574 58.3043V50.0055H326.682V56.602C326.682 60.7159 328.242 63.7659 331.363 65.7519C334.484 67.738 339.697 68.731 347.003 68.731C354.663 68.731 360.089 67.8444 363.281 66.0711C366.544 64.2269 368.175 61.106 368.175 56.7084C368.175 53.02 367.466 50.1119 366.048 47.984C364.7 45.8561 362.182 44.5794 358.494 44.1538L336.683 41.4939C329.732 40.6428 324.447 38.7986 320.83 35.9614C317.212 33.0533 315.404 28.1591 315.404 21.2789C315.404 15.9592 316.503 11.7743 318.702 8.72436C320.901 5.60345 324.27 3.36916 328.809 2.0215C333.42 0.673833 339.555 0 347.216 0C357.501 0 364.771 1.59592 369.027 4.78776C373.282 7.9796 375.41 12.4836 375.41 18.2999C375.41 21.7045 374.985 24.6126 374.134 27.0243H364.239Z" fill="white"/>
<path d="M238.239 97.0325L246.431 75.7535L227.28 22.6625H243.133L253.028 51.7083L254.411 57.1344H254.836L256.219 51.6019L265.369 22.5562H280.265L253.772 97.0325H238.239Z" fill="white"/>
<path d="M198.172 30.5358C199.945 27.7695 201.86 25.748 203.917 24.4713C205.974 23.1945 209.095 22.5562 213.28 22.5562H223.919V34.4724H210.514C206.754 34.4724 203.633 35.5363 201.151 37.6642C198.739 39.7921 197.533 42.913 197.533 47.0269V30.5358H198.172ZM182.638 75.7535V22.5562H197.533V75.7535H182.638Z" fill="white"/>
<path d="M157.117 58.6237C157.117 61.5318 157.542 63.4469 158.393 64.369C159.316 65.2201 161.089 65.6457 163.713 65.6457C165.132 65.6457 166.515 65.5393 167.863 65.3265C169.281 65.0428 170.522 64.7591 171.586 64.4754V76.3916C169.388 76.8172 167.508 77.1009 165.948 77.2427C164.458 77.4555 162.436 77.5619 159.883 77.5619C155.414 77.5619 151.903 76.9945 149.35 75.8596C146.867 74.7957 145.059 72.916 143.924 70.2207C142.789 67.5253 142.221 63.6597 142.221 58.6237V1.3833H157.117V58.6237ZM171.586 22.5559V34.4721H131.795V22.5559H171.586Z" fill="white"/>
<path d="M98.5201 32.7702C94.4062 32.7702 91.4271 33.8342 89.583 35.9621C87.8097 38.019 86.9231 41.601 86.9231 46.7079V49.155V51.6021C86.9231 56.709 87.8097 60.3264 89.583 62.4543C91.4271 64.5113 94.4062 65.5398 98.5201 65.5398C101.286 65.5398 103.485 65.1142 105.117 64.263C106.819 63.341 108.06 61.8869 108.84 59.9009H124.48C123.416 65.7171 120.686 70.1148 116.288 73.0938C111.89 76.0019 105.968 77.456 98.5201 77.456C89.9376 77.456 83.3766 75.47 78.8371 71.4979C74.2976 67.5258 72.0278 61.6741 72.0278 53.9428V49.155V44.3672C72.0278 36.6359 74.2976 30.7842 78.8371 26.8121C83.3766 22.84 89.9376 20.854 98.5201 20.854V32.7702ZM110.33 42.6649L125.012 46.6015V54.5811H78.5179V42.6649H110.33ZM98.5201 20.854C107.103 20.854 113.664 22.84 118.203 26.8121C122.743 30.7842 125.012 36.6359 125.012 44.3672V49.155H110.117V46.7079C110.117 41.601 109.195 38.019 107.351 35.9621C105.578 33.8342 102.634 32.7702 98.5201 32.7702V20.854Z" fill="white"/>
<path d="M0 75.7546V1.27832H16.5976V75.7546H0ZM32.4504 1.27832V14.0457H15.4272V1.27832H32.4504ZM32.6632 36.0694V48.8368H15.64V36.0694H32.6632ZM43.8346 23.1956C43.8346 19.6491 43.0899 17.2375 41.6003 15.9608C40.1108 14.6841 37.6283 14.0457 34.1527 14.0457H32.4504V1.27832H34.1527C40.3236 1.27832 45.2887 1.84576 49.048 2.98064C52.8782 4.04459 55.7863 6.13702 57.7723 9.25793C59.8293 12.3788 60.8578 16.8829 60.8578 22.7701V23.9404H43.8346V23.1956ZM43.8346 26.1747H60.8578V27.345C60.8578 33.2322 59.8293 37.7362 57.7723 40.8572C55.7863 43.9781 52.8782 46.106 49.048 47.2408C45.2887 48.3048 40.3236 48.8368 34.1527 48.8368H32.4504V36.0694H34.1527C37.6283 36.0694 40.1108 35.431 41.6003 34.1543C43.0899 32.8776 43.8346 30.4659 43.8346 26.9195V26.1747ZM60.8578 23.9404V26.1747H43.8346V23.9404H60.8578ZM44.1538 75.7546L27.769 42.0275H45.4305L61.8153 75.7546H44.1538Z" fill="white"/>
</svg>
